<svg width="24" height="24" viewBox="0 0 24 24" fill="none" xmlns="http://www.w3.org/2000/svg">
<path d="M23.4597 12.2778H0.540288C0.450358 12.2778 0.361849 12.3003 0.282789 12.3431C0.203729 12.386 0.136618 12.4479 0.087542 12.5233C0.0384656 12.5986 0.00897617 12.685 0.00174808 12.7747C-0.00548002 12.8643 0.00978186 12.9544 0.0461496 13.0366L1.71333 16.8071C1.75567 16.9029 1.82491 16.9842 1.91263 17.0414C2.00035 17.0985 2.10279 17.1289 2.20747 17.1289H15.2166C15.3213 17.1289 15.4237 17.0985 15.5114 17.0414C15.5991 16.9842 15.6684 16.9029 15.7107 16.8071L17.2356 13.3584H23.4597C23.603 13.3584 23.7404 13.3015 23.8418 13.2001C23.9431 13.0988 24 12.9614 24 12.8181C24 12.6748 23.9431 12.5374 23.8418 12.4361C23.7404 12.3348 23.603 12.2778 23.4597 12.2778ZM15.2297 14.3545L14.757 15.4237C14.721 15.505 14.6621 15.5742 14.5876 15.6228C14.513 15.6713 14.426 15.6972 14.337 15.6972H10.8037C10.6819 15.6972 10.5651 15.6488 10.4789 15.5627C10.3928 15.4765 10.3444 15.3597 10.3444 15.2379C10.3444 15.1161 10.3928 14.9993 10.4789 14.9132C10.5651 14.8271 10.6819 14.7787 10.8037 14.7787H14.0379L14.3897 13.9831C14.439 13.8717 14.5304 13.7844 14.644 13.7405C14.7576 13.6966 14.884 13.6995 14.9954 13.7488C15.1068 13.7981 15.1941 13.8895 15.238 14.0031C15.282 14.1167 15.279 14.2431 15.2297 14.3545Z" fill="white"/>
<path d="M16.4391 10.4875C15.4258 9.59411 14.2535 8.89935 12.9834 8.43944C12.0766 8.10597 11.1331 7.88231 10.1731 7.77323V7.3831C10.1731 6.64853 9.56987 6.04201 8.7999 6.00228C8.74133 5.99924 8.68264 5.99924 8.62407 6.00228C7.85399 6.04201 7.25077 6.64853 7.25077 7.3831V7.77318C6.29074 7.88223 5.34723 8.10588 4.4404 8.43934C3.17029 8.89922 1.99803 9.59393 0.984781 10.4872C0.902963 10.5601 0.845212 10.656 0.819185 10.7624C0.793158 10.8688 0.800085 10.9806 0.839047 11.083C0.878009 11.1853 0.947166 11.2735 1.03735 11.3356C1.12753 11.3978 1.23448 11.4311 1.34401 11.4311L16.0799 11.4313C16.1894 11.4313 16.2964 11.398 16.3866 11.3359C16.4767 11.2737 16.5459 11.1856 16.5849 11.0832C16.6238 10.9808 16.6307 10.869 16.6047 10.7626C16.5787 10.6562 16.5209 10.5603 16.4391 10.4874L16.4391 10.4875Z" fill="white"/>
</svg>
