<svg width="24" height="24" viewBox="0 0 24 24" fill="none" xmlns="http://www.w3.org/2000/svg">
<path d="M13.3125 4.9126C13.3121 4.18735 12.7253 3.60047 12 3.6001C11.2747 3.60047 10.6879 4.18735 10.6875 4.9126C10.6879 5.5066 11.0842 6.0016 11.625 6.16397V7.1626C11.625 7.36997 11.7926 7.5376 12 7.5376C12.2074 7.5376 12.375 7.36997 12.375 7.1626V6.16397C12.9158 6.0016 13.3121 5.5066 13.3125 4.9126ZM12 5.4751C11.6895 5.47435 11.4383 5.2231 11.4375 4.9126C11.4383 4.6021 11.6895 4.35085 12 4.3501C12.3105 4.35085 12.5617 4.6021 12.5625 4.9126C12.5617 5.2231 12.3105 5.47435 12 5.4751Z" fill="white"/>
<path d="M20.8115 15.9458C20.7954 11.0922 16.8567 7.16297 11.9997 7.1626C7.14274 7.16297 3.20411 11.0922 3.18799 15.9458H20.8115ZM6.36761 10.9535C6.86936 10.3508 7.67749 9.6451 8.88086 9.24422C9.07736 9.1786 9.28999 9.28472 9.35524 9.48122C9.42086 9.67772 9.31474 9.89035 9.11824 9.9556C8.10424 10.2938 7.42324 10.874 6.98524 11.3847C6.54799 11.8947 6.35974 12.3346 6.34774 12.3638V12.3642C6.27086 12.5566 6.05261 12.6503 5.86024 12.5735C5.66786 12.4966 5.57411 12.2783 5.65099 12.086C5.66224 12.0601 5.86549 11.5576 6.36761 10.9535Z" fill="white"/>
<path d="M2.06543 16.6958L4.18943 18.8198C4.45943 19.0879 4.81905 19.3024 5.20305 19.4629C5.58818 19.6212 5.9943 19.7236 6.37493 19.7251H17.6249C18.0056 19.7236 18.4117 19.6212 18.7968 19.4629C19.1808 19.3024 19.5404 19.0879 19.8104 18.8198L21.9344 16.6958H2.06543Z" fill="white"/>
</svg>
