<svg width="80" height="40" viewBox="0 0 80 40" fill="none" xmlns="http://www.w3.org/2000/svg">
<path fill-rule="evenodd" clip-rule="evenodd" d="M27.7588 4.28743C27.5575 4.36618 27.269 4.50712 27.1177 4.60055C26.9665 4.69399 26.6849 4.94602 26.492 5.16063C26.2972 5.37727 26.0665 5.74891 25.9731 5.99618C25.8457 6.33383 25.7315 7.12258 25.5015 9.25415C25.3345 10.801 25.1973 12.0903 25.1966 12.1193C25.1959 12.1482 24.5185 12.1834 23.6914 12.1974C22.1966 12.2227 22.1845 12.2244 21.6797 12.4641C21.39 12.6016 21.012 12.8677 20.7997 13.0835C20.595 13.2916 20.3313 13.6577 20.2138 13.897L20 14.3323V24.0198V33.7073L20.2297 34.175C20.3559 34.4323 20.6204 34.8038 20.8173 35.0008C21.0142 35.1977 21.3855 35.4618 21.6423 35.5877L22.1094 35.8166H37.1094H52.1094L52.5781 35.5693C52.8359 35.4332 53.2121 35.152 53.4141 34.9443C53.6161 34.7366 53.8798 34.3557 54 34.0979C54.217 33.6328 54.2189 33.6149 54.2435 31.8064C54.2655 30.1897 54.2822 29.989 54.3908 30.0306C54.4581 30.0565 54.8688 30.0788 55.3035 30.0802C55.832 30.082 56.2093 30.0418 56.4427 29.9589C56.6347 29.8908 56.9365 29.7502 57.1134 29.6466C57.2902 29.5429 57.5626 29.3168 57.7187 29.1441C57.8747 28.9714 58.0913 28.6545 58.2001 28.4398C58.3088 28.2252 58.4355 27.8109 58.4814 27.5191C58.5273 27.2273 58.8791 23.1855 59.263 18.5373C59.6469 13.8892 59.9609 9.82626 59.9609 9.5086C59.9609 9.19087 59.9087 8.75532 59.845 8.54063C59.7812 8.32602 59.5902 7.95626 59.4203 7.71907C59.2505 7.48188 58.9247 7.16165 58.6963 7.00743C58.468 6.85329 58.0879 6.67047 57.8516 6.60118C57.5572 6.51493 52.9936 6.10704 43.3624 5.3061C35.6297 4.66305 29.0379 4.1386 28.714 4.14063C28.336 4.14297 27.9938 4.19555 27.7588 4.28743ZM43.2595 6.95047C50.992 7.59555 57.3947 8.16235 57.4875 8.21001C57.5803 8.25766 57.7561 8.38907 57.878 8.50196C58.0001 8.61485 58.1495 8.80219 58.2101 8.91821C58.2707 9.0343 58.3207 9.31555 58.3213 9.54321C58.3218 9.77094 58.0022 13.8245 57.6111 18.551C57.22 23.2776 56.8671 27.275 56.8269 27.4342C56.7866 27.5934 56.6671 27.8265 56.5613 27.9522C56.4555 28.0779 56.2368 28.2437 56.0752 28.3205C55.868 28.4189 55.6198 28.4563 55.2344 28.4473C54.9336 28.4402 54.5916 28.414 54.4743 28.3891L54.2611 28.344L54.2399 21.3755L54.2188 14.407L53.9655 13.8927C53.8126 13.582 53.5564 13.2326 53.3185 13.01C53.1019 12.8074 52.7237 12.5474 52.478 12.4323L52.0312 12.2229L39.4269 12.2024L26.8225 12.182L26.8673 11.8899C26.892 11.7293 27.02 10.5608 27.1519 9.29321C27.2838 8.02563 27.4278 6.87337 27.472 6.73266C27.5163 6.59188 27.6444 6.36751 27.7567 6.23399C27.8691 6.10047 28.0682 5.94454 28.1992 5.88751C28.3303 5.8304 28.6091 5.78235 28.8188 5.78063C29.0286 5.77899 35.5269 6.3054 43.2595 6.95047ZM51.8352 13.9694C51.9838 14.0491 52.2118 14.2456 52.3418 14.4061L52.5781 14.6978L52.6025 16.1362L52.6269 17.5745H37.0662H21.5057L21.538 16.2268C21.5629 15.1833 21.5986 14.8263 21.6961 14.6448C21.7653 14.5159 21.9218 14.3157 22.0438 14.2C22.1658 14.0843 22.3535 13.9547 22.4609 13.912C22.5877 13.8616 27.7279 13.8327 37.1106 13.8294C51.0451 13.8246 51.5747 13.8297 51.8352 13.9694ZM52.6172 27.7647C52.6172 31.3523 52.5898 33.1835 52.5341 33.3311C52.4884 33.452 52.3566 33.6509 52.2411 33.7728C52.1257 33.8948 51.9363 34.0442 51.8203 34.1048C51.6409 34.1986 49.4379 34.2151 37.1044 34.2151H22.5994L22.2881 34.0402C22.104 33.9366 21.8923 33.7213 21.7697 33.5128L21.5625 33.1604L21.5399 27.7893L21.5173 22.4182H37.0673H52.6172V27.7647ZM41.3489 25.6931L41.0938 25.921V28.7381V31.5553L41.3103 31.7719L41.5269 31.9885L45.5273 32.0102C48.4377 32.0259 49.5877 32.007 49.7475 31.9408C49.8683 31.8907 50.0185 31.7765 50.0813 31.687C50.176 31.5516 50.1953 31.0573 50.1953 28.7629C50.1953 27.0185 50.1657 25.9463 50.1148 25.8514C50.0706 25.7687 49.9317 25.648 49.8062 25.5831C49.6115 25.4823 48.9944 25.4651 45.591 25.4651H41.6041L41.3489 25.6931ZM48.5547 28.7463V30.387H45.625H42.6953V28.7463V27.1057H45.625H48.5547V28.7463Z" fill="#FF7A00"/>
<path fill-rule="evenodd" clip-rule="evenodd" d="M27.7588 4.28743C27.5575 4.36618 27.269 4.50712 27.1177 4.60055C26.9665 4.69399 26.6849 4.94602 26.492 5.16063C26.2972 5.37727 26.0665 5.74891 25.9731 5.99618C25.8457 6.33383 25.7315 7.12258 25.5015 9.25415C25.3345 10.801 25.1973 12.0903 25.1966 12.1193C25.1959 12.1482 24.5185 12.1834 23.6914 12.1974C22.1966 12.2227 22.1845 12.2244 21.6797 12.4641C21.39 12.6016 21.012 12.8677 20.7997 13.0835C20.595 13.2916 20.3313 13.6577 20.2138 13.897L20 14.3323V24.0198V33.7073L20.2297 34.175C20.3559 34.4323 20.6204 34.8038 20.8173 35.0008C21.0142 35.1977 21.3855 35.4618 21.6423 35.5877L22.1094 35.8166H37.1094H52.1094L52.5781 35.5693C52.8359 35.4332 53.2121 35.152 53.4141 34.9443C53.6161 34.7366 53.8798 34.3557 54 34.0979C54.217 33.6328 54.2189 33.6149 54.2435 31.8064C54.2655 30.1897 54.2822 29.989 54.3908 30.0306C54.4581 30.0565 54.8688 30.0788 55.3035 30.0802C55.832 30.082 56.2093 30.0418 56.4427 29.9589C56.6347 29.8908 56.9365 29.7502 57.1134 29.6466C57.2902 29.5429 57.5626 29.3168 57.7187 29.1441C57.8747 28.9714 58.0913 28.6545 58.2001 28.4398C58.3088 28.2252 58.4355 27.8109 58.4814 27.5191C58.5273 27.2273 58.8791 23.1855 59.263 18.5373C59.6469 13.8892 59.9609 9.82626 59.9609 9.5086C59.9609 9.19087 59.9087 8.75532 59.845 8.54063C59.7812 8.32602 59.5902 7.95626 59.4203 7.71907C59.2505 7.48188 58.9247 7.16165 58.6963 7.00743C58.468 6.85329 58.0879 6.67047 57.8516 6.60118C57.5572 6.51493 52.9936 6.10704 43.3624 5.3061C35.6297 4.66305 29.0379 4.1386 28.714 4.14063C28.336 4.14297 27.9938 4.19555 27.7588 4.28743ZM43.2595 6.95047C50.992 7.59555 57.3947 8.16235 57.4875 8.21001C57.5803 8.25766 57.7561 8.38907 57.878 8.50196C58.0001 8.61485 58.1495 8.80219 58.2101 8.91821C58.2707 9.0343 58.3207 9.31555 58.3213 9.54321C58.3218 9.77094 58.0022 13.8245 57.6111 18.551C57.22 23.2776 56.8671 27.275 56.8269 27.4342C56.7866 27.5934 56.6671 27.8265 56.5613 27.9522C56.4555 28.0779 56.2368 28.2437 56.0752 28.3205C55.868 28.4189 55.6198 28.4563 55.2344 28.4473C54.9336 28.4402 54.5916 28.414 54.4743 28.3891L54.2611 28.344L54.2399 21.3755L54.2188 14.407L53.9655 13.8927C53.8126 13.582 53.5564 13.2326 53.3185 13.01C53.1019 12.8074 52.7237 12.5474 52.478 12.4323L52.0312 12.2229L39.4269 12.2024L26.8225 12.182L26.8673 11.8899C26.892 11.7293 27.02 10.5608 27.1519 9.29321C27.2838 8.02563 27.4278 6.87337 27.472 6.73266C27.5163 6.59188 27.6444 6.36751 27.7567 6.23399C27.8691 6.10047 28.0682 5.94454 28.1992 5.88751C28.3303 5.8304 28.6091 5.78235 28.8188 5.78063C29.0286 5.77899 35.5269 6.3054 43.2595 6.95047ZM52.038 14.102C52.2002 14.2333 52.4055 14.4794 52.4945 14.6489C52.6558 14.9564 52.6562 14.9838 52.6334 24.0427C52.6186 29.9841 52.583 33.2014 52.5309 33.3396C52.487 33.4559 52.3566 33.6509 52.2411 33.7728C52.1257 33.8948 51.9363 34.0442 51.8203 34.1048C51.6409 34.1986 49.4374 34.2151 37.1006 34.2151H22.5919L22.2716 34.0274C22.0852 33.9181 21.8702 33.698 21.757 33.5001L21.5625 33.1604V24.0979C21.5625 19.1135 21.5894 14.9394 21.6222 14.822C21.6551 14.7046 21.7951 14.4798 21.9333 14.3223C22.0715 14.1649 22.2907 13.9897 22.4204 13.933C22.6134 13.8487 25.2994 13.833 37.1998 13.8467L51.7434 13.8635L52.038 14.102ZM41.3489 25.6931L41.0938 25.921V28.7381V31.5553L41.3103 31.7719L41.5269 31.9885L45.5273 32.0102C48.4377 32.0259 49.5877 32.007 49.7475 31.9408C49.8683 31.8907 50.0185 31.7765 50.0813 31.687C50.176 31.5516 50.1953 31.0573 50.1953 28.7629C50.1953 27.0185 50.1657 25.9463 50.1148 25.8514C50.0706 25.7687 49.9317 25.648 49.8062 25.5831C49.6115 25.4823 48.9944 25.4651 45.591 25.4651H41.6041L41.3489 25.6931ZM48.5547 28.7463V30.387H45.625H42.6953V28.7463V27.1057H45.625H48.5547V28.7463Z" fill="#009FE3"/>
</svg>
