<svg width="20" height="20" viewBox="0 0 20 20" fill="none" xmlns="http://www.w3.org/2000/svg">
<g id="info_square_icon_184028 1" clip-path="url(#clip0_3515_31738)">
<g id="Iconly/Curved/Info-Square">
<g id="Info-Square">
<path id="Stroke-1" d="M19 10C19 13.6943 18.3712 15.8392 17.1052 17.1052C15.8392 18.3712 13.6943 19 10 19C6.30574 19 4.16084 18.3712 2.89481 17.1052C1.62878 15.8392 1 13.6943 1 10C1 6.30574 1.62878 4.16084 2.89481 2.89481C4.16084 1.62878 6.30574 1 10 1C13.6943 1 15.8392 1.62878 17.1052 2.89481C18.3712 4.16084 19 6.30574 19 10Z" stroke="#009FE3" stroke-width="2" stroke-linecap="round" stroke-linejoin="round"/>
<g id="Group 259">
<path id="Stroke-3" d="M10.0046 13.6699V9.45911" stroke="#009FE3" stroke-width="2" stroke-linecap="round" stroke-linejoin="round"/>
<path id="Stroke-15" d="M10.0095 5.67578H9.99979" stroke="#009FE3" stroke-width="2" stroke-linecap="round" stroke-linejoin="round"/>
</g>
</g>
</g>
</g>
<defs>
<clipPath id="clip0_3515_31738">
<rect width="20" height="20" fill="white"/>
</clipPath>
</defs>
</svg>
