<svg width="180" height="46" viewBox="0 0 180 46" fill="none" xmlns="http://www.w3.org/2000/svg">
<g id="logo" clip-path="url(#clip0_3511_1709)">
<g id="LOGO">
<g id="Group 1">
<g id="Group">
<path id="Vector" d="M72.7908 29.6264C72.7908 29.5966 72.7908 29.5667 72.7908 29.5369C72.7607 29.4175 72.7306 29.2981 72.6403 29.2085L72.52 29.0891L71.527 27.925L71.3766 27.7459C71.2562 27.6266 71.0757 27.5669 70.8951 27.537C70.865 27.537 70.835 27.537 70.8049 27.537C70.7748 27.537 70.7447 27.537 70.7146 27.537C70.6845 27.537 70.6544 27.537 70.6243 27.537C70.504 27.5669 70.3836 27.6266 70.2633 27.6863C70.2633 27.6863 70.2332 27.6863 70.2332 27.7161C69.3907 28.3728 68.6986 28.8205 68.0968 29.119C67.3446 29.4772 66.472 29.6563 65.5392 29.6563C63.8241 29.6563 62.44 29.0593 61.4169 27.8057C60.3638 26.5819 59.8522 24.97 59.8522 22.9403C59.8522 20.9106 60.3638 19.2988 61.4169 18.1048C62.47 16.9109 63.8542 16.2841 65.5994 16.2841C66.472 16.2841 67.3145 16.4333 68.0366 16.7616C68.6083 17.0004 69.2101 17.3586 69.8721 17.8959C69.9022 17.9257 69.9323 17.9556 69.9624 17.9556C70.0827 18.0451 70.2332 18.1048 70.3836 18.1048C70.4137 18.1048 70.4438 18.1048 70.4739 18.1048H70.504C70.5641 18.1048 70.6544 18.1048 70.7146 18.075C70.835 18.0451 70.9252 17.9854 71.0155 17.8959C71.0155 17.8959 71.0456 17.8959 71.0456 17.866L71.1058 17.8063L72.2492 16.493C72.3695 16.3736 72.4598 16.1945 72.4598 16.0154C72.4598 15.9856 72.4598 15.9557 72.4598 15.9259C72.4598 15.896 72.4598 15.8662 72.4598 15.8363C72.4598 15.8065 72.4598 15.7766 72.4598 15.7468C72.4297 15.6274 72.3996 15.5378 72.3394 15.4483C72.3394 15.4483 72.3394 15.4483 72.3394 15.4184L72.2191 15.2991C72.2191 15.2991 72.2191 15.2991 72.189 15.2991C71.2562 14.5528 70.3535 14.0156 69.4508 13.6574C68.3375 13.2096 67.0737 13.0007 65.6595 13.0007C62.7108 12.9709 60.3638 13.8962 58.5885 15.7766C56.8132 17.6571 55.9707 20.045 56.0008 22.9403C55.9707 25.8356 56.8433 28.2534 58.6186 30.1637C60.3939 32.074 62.7408 33.0292 65.5994 32.9993C67.0738 32.9993 68.3676 32.7605 69.5411 32.2531C70.504 31.8352 71.4668 31.2084 72.4598 30.3726L72.4899 30.3428C72.6403 30.1935 72.7306 30.0144 72.7607 29.8055C72.7607 29.7757 72.7607 29.7458 72.7607 29.716C72.7908 29.6861 72.7908 29.6563 72.7908 29.6264Z" fill="#191C1F"/>
</g>
<path id="Vector_2" d="M83.442 18.818C82.5995 18.4001 81.6968 18.1912 80.7038 18.1912C79.741 18.1912 78.8383 18.4001 78.0258 18.7881V14.6093C78.0258 14.5795 78.0258 14.5496 78.0258 14.5198C78.0258 14.4899 78.0258 14.4601 78.0258 14.4302C77.9657 14.072 77.6347 13.7736 77.2736 13.7437C77.2435 13.7437 77.2134 13.7437 77.1833 13.7437H75.378C75.3479 13.7437 75.3178 13.7437 75.2877 13.7437C75.2576 13.7437 75.2275 13.7437 75.1974 13.7437C74.8364 13.8034 74.5355 14.1317 74.5054 14.4899C74.5054 14.5198 74.5054 14.5496 74.5054 14.5795V31.9514C74.5054 31.9813 74.5054 32.0111 74.5054 32.041C74.5355 32.429 74.8664 32.7573 75.2877 32.7872C75.3178 32.7872 75.3479 32.7872 75.378 32.7872H77.1833H77.2134C77.2736 32.7872 77.3639 32.7872 77.4241 32.7573C77.755 32.6678 77.9958 32.3693 78.0258 32.041C78.0258 32.0111 78.0258 31.9813 78.0258 31.9514V29.8322V24.5191C78.0258 23.6535 78.2967 22.967 78.8082 22.4297C79.3197 21.8924 80.0118 21.6238 80.8242 21.6238C81.6667 21.6238 82.2986 21.8626 82.7198 22.3401C83.1712 22.8177 83.3818 23.5341 83.3818 24.4295V29.8322V32.041C83.4119 32.429 83.7429 32.7573 84.1641 32.7872C84.1942 32.7872 84.2243 32.7872 84.2544 32.7872H86.0598H86.0899C86.15 32.7872 86.2102 32.7872 86.3005 32.7573C86.6315 32.6678 86.8722 32.3693 86.9023 32.041C86.9023 32.0111 86.9023 31.9813 86.9023 31.9514V24.34C86.9023 21.8924 85.4881 19.803 83.442 18.818Z" fill="#191C1F"/>
<g id="Group_2">
<path id="Vector_3" d="M114.133 31.6581L113.952 30.494C113.952 30.4642 113.952 30.4343 113.952 30.4045C113.892 30.0463 113.561 29.7478 113.2 29.7179C113.17 29.7179 113.14 29.7179 113.109 29.7179C113.079 29.7179 113.049 29.7179 113.019 29.7179C112.989 29.7179 112.959 29.7179 112.929 29.7179C112.628 29.7776 112.327 29.7776 112.056 29.7776C111.575 29.7776 111.214 29.6881 111.003 29.509C110.793 29.3299 110.672 29.0016 110.672 28.524V21.42H113.14C113.23 21.42 113.29 21.42 113.38 21.3902C113.711 21.3006 113.952 21.0021 113.982 20.6738V19.5694C113.982 19.5395 113.982 19.5097 113.982 19.4798C113.922 19.1217 113.591 18.8232 113.23 18.7933H110.702V15.3906C110.702 15.3607 110.702 15.3309 110.702 15.301C110.702 15.2712 110.702 15.2413 110.702 15.2115C110.642 14.8533 110.311 14.5548 109.95 14.525C109.92 14.525 109.89 14.525 109.86 14.525H108.054C108.024 14.525 107.994 14.525 107.964 14.525C107.934 14.525 107.904 14.525 107.874 14.525C107.513 14.5847 107.212 14.913 107.182 15.2712C107.182 15.301 107.182 15.3309 107.182 15.3607V18.7635H105.497C105.467 18.7635 105.437 18.7635 105.407 18.7635C105.045 18.8232 104.745 19.1515 104.714 19.5097C104.714 19.5395 104.714 19.5694 104.714 19.5992V20.5842C104.714 20.6141 104.714 20.6439 104.714 20.6738C104.745 21.0618 105.076 21.3902 105.497 21.42H107.182V28.9419C107.182 30.2552 107.483 31.2104 108.145 31.8671C108.777 32.4939 109.77 32.8222 111.124 32.8222C111.936 32.8222 112.748 32.7327 113.531 32.5237C113.862 32.4342 114.102 32.1357 114.133 31.8074C114.133 31.7775 114.133 31.7477 114.133 31.7178C114.133 31.7178 114.133 31.688 114.133 31.6581Z" fill="#191C1F"/>
</g>
<path id="Vector_4" d="M180 14.1073C179.97 13.7193 179.639 13.3909 179.217 13.3611C179.187 13.3611 179.157 13.3611 179.127 13.3611H177.322C177.292 13.3611 177.262 13.3611 177.232 13.3611C176.84 13.3909 176.509 13.7193 176.449 14.1073V19.4801C175.216 18.5846 173.711 18.0473 172.086 18.0473C168.024 18.0473 164.714 21.3307 164.714 25.3901C164.714 29.4495 168.024 32.703 172.086 32.703C173.711 32.703 175.246 32.1658 176.449 31.2703V31.5688C176.449 31.5986 176.449 31.6285 176.449 31.6583C176.509 32.0762 176.87 32.4045 177.292 32.4045H179.097C179.548 32.4045 179.909 32.0762 179.94 31.6583C179.94 31.6285 179.94 31.5986 179.94 31.5688V14.1968C180 14.167 180 14.1371 180 14.1073ZM176.479 25.4796C176.419 27.8377 174.493 29.7182 172.116 29.7182C169.709 29.7182 167.753 27.778 167.753 25.3901C167.753 23.0022 169.709 21.0322 172.116 21.0322C174.493 21.0322 176.419 22.9127 176.479 25.2707V25.4796Z" fill="#191C1F"/>
<path id="Vector_5" d="M155.567 18.0486C151.505 18.0486 148.195 21.3319 148.195 25.3615C148.195 29.3911 151.505 32.6744 155.567 32.6744C159.66 32.6744 162.939 29.3911 162.939 25.3615C162.939 21.3319 159.66 18.0486 155.567 18.0486ZM155.567 29.6299C153.16 29.6299 151.204 27.6897 151.204 25.3018C151.204 22.9139 153.16 20.9738 155.567 20.9738C157.975 20.9738 159.93 22.9139 159.93 25.3018C159.93 27.6897 157.975 29.6299 155.567 29.6299Z" fill="#191C1F"/>
<path id="Vector_6" d="M139.109 18.0486C135.047 18.0486 131.707 21.3319 131.707 25.3615C131.707 29.3911 135.017 32.6744 139.109 32.6744C143.201 32.6744 146.481 29.3911 146.481 25.3615C146.481 21.3319 143.171 18.0486 139.109 18.0486ZM139.109 29.6299C136.702 29.6299 134.746 27.6897 134.746 25.3018C134.746 22.9139 136.702 20.9738 139.109 20.9738C141.516 20.9738 143.472 22.9139 143.472 25.3018C143.472 27.6897 141.516 29.6299 139.109 29.6299Z" fill="#191C1F"/>
<path id="Vector_7" d="M130.232 14.5244C130.202 14.1363 129.871 13.808 129.48 13.7781C129.45 13.7781 129.42 13.7781 129.39 13.7781H118.016C117.294 13.7781 116.722 14.3453 116.722 15.0616V32.0157C116.722 32.0455 116.722 32.0754 116.722 32.1052C116.782 32.5231 117.143 32.8514 117.564 32.8514H119.641C120.122 32.8514 120.483 32.4634 120.483 32.0157V25.5087C120.483 25.2699 120.664 25.0908 120.874 25.0908H128.758C129.209 25.0908 129.57 24.7625 129.6 24.3446V22.7029C129.57 22.3149 129.239 21.9865 128.848 21.9567H120.934C120.694 21.9268 120.513 21.7477 120.513 21.5388V17.4197C120.513 17.1809 120.694 17.0018 120.934 17.0018H129.39C129.841 17.0018 130.202 16.6735 130.232 16.2556C130.232 16.2257 130.232 16.1959 130.232 16.166V14.6736C130.232 14.5841 130.232 14.5542 130.232 14.5244Z" fill="#191C1F"/>
<path id="Vector_8" d="M102.188 29.208C102.82 28.1334 103.181 26.8798 103.181 25.5366C103.181 21.4771 99.8708 18.1938 95.7786 18.1938C91.6864 18.1938 88.3766 21.4771 88.3766 25.5366C88.3766 29.596 91.6864 32.8793 95.7786 32.8793C97.1327 32.8793 98.3964 32.5212 99.5097 31.8943L102.398 32.8196C102.609 32.8793 102.82 32.8196 102.97 32.6704C103.12 32.5212 103.181 32.2824 103.12 32.1033L102.188 29.208ZM95.7786 29.8646C93.3715 29.8646 91.3855 27.9245 91.3855 25.5067C91.3855 23.089 93.3414 21.1787 95.7786 21.1787C98.1858 21.1787 100.142 23.1188 100.142 25.5067C100.142 27.8946 98.2159 29.8646 95.7786 29.8646Z" fill="#191C1F"/>
</g>
<g id="logo_2">
<path id="Rectangle 5" d="M0 13.8C0 6.17847 6.17847 0 13.8 0H32.2C39.8215 0 46 6.17847 46 13.8V32.2C46 39.8215 39.8215 46 32.2 46H13.8C6.17847 46 0 39.8215 0 32.2V13.8Z" fill="#009FE3"/>
<path id="Vector_9" d="M38.3333 22.5699C38.1048 22.6156 37.8763 22.6156 37.6935 22.6156C34.7228 22.6156 32.3462 20.239 32.3462 17.2683C32.3462 15.4859 33.2146 13.932 34.4943 12.9722C34.0829 12.5152 33.6259 12.0582 33.1689 11.6469C32.9861 11.4641 32.7575 11.3269 32.5747 11.1441C32.4376 11.0527 32.3005 10.9156 32.1634 10.8242C32.1177 10.7785 32.072 10.7785 32.072 10.7328C31.8892 10.5957 31.7521 10.5043 31.5693 10.3672C31.3865 10.2301 31.2036 10.1387 31.0208 10.0016C30.7923 9.86445 30.5638 9.72734 30.3353 9.59023C30.1525 9.49882 30.0154 9.40742 29.8326 9.31601C29.6497 9.2246 29.5126 9.1789 29.3298 9.0875C29.2384 9.04179 29.1927 9.0418 29.1013 8.9961C28.9185 8.90469 28.7357 8.85899 28.5529 8.76758C28.3244 8.67618 28.1416 8.63047 27.913 8.53907C27.913 8.53907 27.913 8.53907 27.8673 8.53907C27.6388 8.44766 27.4103 8.40196 27.1818 8.31055C26.9533 8.26485 26.7705 8.17345 26.5419 8.12774C26.4962 8.12774 26.4505 8.12774 26.4048 8.08204C26.222 8.03634 25.9935 7.99062 25.8107 7.94492C25.6279 7.89922 25.4451 7.89923 25.308 7.85352C25.2166 7.85352 25.1252 7.80782 25.0795 7.80782C24.8509 7.76212 24.6681 7.76211 24.4396 7.71641C24.2111 7.71641 23.9826 7.67072 23.7084 7.67072C23.4798 7.67072 23.2056 7.67072 22.9771 7.67072C18.7724 7.67072 14.9334 9.40742 12.1455 12.1496C11.6428 12.6523 11.1401 13.2008 10.683 13.7949C10.5459 13.9777 10.4088 14.2062 10.2717 14.389C10.226 14.4804 10.1346 14.6176 10.0889 14.709C9.90607 14.9832 9.76896 15.2574 9.58615 15.5316C9.12912 16.3543 8.7635 17.2226 8.44357 18.1367C8.35217 18.3195 8.30647 18.548 8.26077 18.7765C7.89514 20.1019 7.66663 21.5187 7.66663 22.9812C7.66663 23.164 7.66663 23.3468 7.66663 23.5296C7.66663 23.7124 7.66663 23.8953 7.71233 24.0324C7.71233 24.3523 7.75803 24.6265 7.80374 24.9464C7.80374 25.0835 7.84944 25.1749 7.84944 25.312C7.84944 25.4034 7.89514 25.4949 7.89514 25.5863C7.89514 25.7234 7.94084 25.8605 7.98655 25.9976C8.03225 26.2261 8.07795 26.4546 8.12366 26.6831C8.16936 26.8202 8.16936 26.9116 8.21506 27.0488C8.30647 27.3687 8.39787 27.7343 8.53498 28.0542C8.58068 28.1913 8.62639 28.3741 8.7178 28.5112C8.7635 28.6484 8.8549 28.8312 8.9006 28.9683C8.94631 29.1054 9.03772 29.2882 9.08342 29.4253C9.17483 29.5624 9.22053 29.6995 9.31194 29.8823C9.44904 30.1566 9.58615 30.4308 9.72326 30.705C9.72326 30.705 9.72326 30.7507 9.76896 30.7507L7.84944 36.7378C7.71233 37.1491 7.80373 37.6518 8.12366 37.9261C8.44358 38.246 8.90061 38.3374 9.31194 38.2003L15.299 36.2807L15.3447 36.3265C15.6189 36.4636 15.8932 36.6007 16.1674 36.7378C16.3045 36.8292 16.4416 36.8749 16.6244 36.9663C16.7615 37.012 16.8986 37.1034 17.0357 37.1491C17.0357 37.1491 17.0357 37.1491 17.0814 37.1491C17.2185 37.1948 17.4014 37.2862 17.5385 37.3319C17.6756 37.3776 17.8584 37.469 17.9955 37.5147C18.0869 37.5604 18.224 37.6061 18.3154 37.6061C18.5439 37.6975 18.7724 37.7432 19.001 37.7889C19.0924 37.8347 19.2295 37.8346 19.3209 37.8803C19.7779 37.9718 20.1892 38.0632 20.6463 38.1546C20.7834 38.2003 20.9205 38.2003 21.0119 38.2003C21.3318 38.246 21.606 38.2917 21.9259 38.2917C22.1088 38.2917 22.2916 38.3374 22.4287 38.3374C22.6115 38.3374 22.7943 38.3374 22.9314 38.3374C31.3865 38.3374 38.2419 31.4819 38.2419 23.0269V22.9812C38.3333 22.8898 38.3333 22.707 38.3333 22.5699ZM17.0814 25.0835C16.1217 25.0835 15.3447 24.3066 15.3447 23.3468C15.3447 22.3871 16.1217 21.6101 17.0814 21.6101C18.0412 21.6101 18.8181 22.3871 18.8181 23.3468C18.8638 24.3066 18.0412 25.0835 17.0814 25.0835ZM23.0685 25.0835C22.1088 25.0835 21.3318 24.3066 21.3318 23.3468C21.3318 22.3871 22.1088 21.6101 23.0685 21.6101C24.0283 21.6101 24.8052 22.3871 24.8052 23.3468C24.8052 24.3066 24.0283 25.0835 23.0685 25.0835ZM29.0099 25.0835C28.0501 25.0835 27.2732 24.3066 27.2732 23.3468C27.2732 22.3871 28.0501 21.6101 29.0099 21.6101C29.9697 21.6101 30.7466 22.3871 30.7466 23.3468C30.7466 24.3066 29.9697 25.0835 29.0099 25.0835Z" fill="white"/>
</g>
</g>
</g>
<defs>
<clipPath id="clip0_3511_1709">
<rect width="180" height="46" fill="white"/>
</clipPath>
</defs>
</svg>
