<svg width="50" height="50" viewBox="0 0 50 50" fill="none" xmlns="http://www.w3.org/2000/svg">
<rect width="50" height="50" rx="12" fill="#009FE3"/>
<path d="M41 24.5469C40.7615 24.5946 40.5231 24.5946 40.3323 24.5946C37.2325 24.5946 34.7526 22.1147 34.7526 19.0149C34.7526 17.155 35.6587 15.5335 36.994 14.532C36.5648 14.0551 36.0879 13.5782 35.611 13.149C35.4203 12.9583 35.1818 12.8152 34.9911 12.6244C34.848 12.529 34.7049 12.386 34.5618 12.2906C34.5142 12.2429 34.4665 12.2429 34.4665 12.1952C34.2757 12.0522 34.1326 11.9568 33.9419 11.8137C33.7511 11.6706 33.5604 11.5752 33.3696 11.4322C33.1311 11.2891 32.8927 11.146 32.6542 11.003C32.4635 10.9076 32.3204 10.8122 32.1297 10.7168C31.9389 10.6214 31.7958 10.5738 31.6051 10.4784C31.5097 10.4307 31.462 10.4307 31.3666 10.383C31.1759 10.2876 30.9851 10.2399 30.7943 10.1446C30.5559 10.0492 30.3651 10.0015 30.1267 9.90611C30.1267 9.90611 30.1267 9.90611 30.079 9.90611C29.8405 9.81073 29.6021 9.76304 29.3636 9.66766C29.1252 9.61997 28.9344 9.52459 28.696 9.4769C28.6483 9.4769 28.6006 9.4769 28.5529 9.42921C28.3621 9.38152 28.1237 9.33382 27.9329 9.28613C27.7422 9.23844 27.5514 9.23845 27.4083 9.19076C27.313 9.19076 27.2176 9.14306 27.1699 9.14306C26.9314 9.09537 26.7407 9.09537 26.5022 9.04768C26.2638 9.04768 26.0253 9 25.7392 9C25.5007 9 25.2146 9 24.9762 9C20.5887 9 16.5827 10.8122 13.6736 13.6736C13.149 14.1982 12.6244 14.7705 12.1475 15.3905C12.0045 15.5812 11.8614 15.8197 11.7183 16.0104C11.6706 16.1058 11.5753 16.2489 11.5276 16.3443C11.3368 16.6304 11.1937 16.9165 11.003 17.2027C10.5261 18.0611 10.1446 18.9672 9.81073 19.921C9.71535 20.1118 9.66766 20.3502 9.61997 20.5887C9.23845 21.9717 9 23.4501 9 24.9761C9 25.1669 9 25.3577 9 25.5484C9 25.7392 9 25.9299 9.04769 26.073C9.04769 26.4068 9.09538 26.693 9.14307 27.0268C9.14307 27.1699 9.19076 27.2653 9.19076 27.4083C9.19076 27.5037 9.23845 27.5991 9.23845 27.6945C9.23845 27.8375 9.28614 27.9806 9.33383 28.1237C9.38152 28.3621 9.42921 28.6006 9.4769 28.839C9.52459 28.9821 9.52459 29.0775 9.57228 29.2206C9.66766 29.5544 9.76304 29.9359 9.90611 30.2697C9.9538 30.4128 10.0015 30.6036 10.0969 30.7466C10.1446 30.8897 10.2399 31.0805 10.2876 31.2235C10.3353 31.3666 10.4307 31.5574 10.4784 31.7004C10.5738 31.8435 10.6215 31.9866 10.7168 32.1773C10.8599 32.4635 11.003 32.7496 11.1461 33.0358C11.1461 33.0358 11.1461 33.0834 11.1937 33.0834L9.19076 39.3308C9.04769 39.76 9.14307 40.2846 9.4769 40.5708C9.81073 40.9046 10.2876 41 10.7168 40.8569L16.9642 38.8539L17.0119 38.9016C17.2981 39.0447 17.5842 39.1878 17.8703 39.3308C18.0134 39.4262 18.1565 39.4739 18.3472 39.5693C18.4903 39.617 18.6334 39.7124 18.7765 39.76C18.7765 39.76 18.7765 39.76 18.8241 39.76C18.9672 39.8077 19.158 39.9031 19.301 39.9508C19.4441 39.9985 19.6349 40.0939 19.7779 40.1416C19.8733 40.1892 20.0164 40.2369 20.1118 40.2369C20.3502 40.3323 20.5887 40.38 20.8271 40.4277C20.9225 40.4754 21.0656 40.4754 21.161 40.5231C21.6379 40.6185 22.0671 40.7138 22.544 40.8092C22.687 40.8569 22.8301 40.8569 22.9255 40.8569C23.2593 40.9046 23.5455 40.9523 23.8793 40.9523C24.07 40.9523 24.2608 41 24.4039 41C24.5946 41 24.7854 41 24.9285 41C33.7511 41 40.9046 33.8465 40.9046 25.0238V24.9761C41 24.8808 41 24.69 41 24.5469ZM18.8241 27.1699C17.8227 27.1699 17.0119 26.3592 17.0119 25.3577C17.0119 24.3562 17.8227 23.5454 18.8241 23.5454C19.8256 23.5454 20.6364 24.3562 20.6364 25.3577C20.684 26.3592 19.8256 27.1699 18.8241 27.1699ZM25.0715 27.1699C24.07 27.1699 23.2593 26.3592 23.2593 25.3577C23.2593 24.3562 24.07 23.5454 25.0715 23.5454C26.073 23.5454 26.8838 24.3562 26.8838 25.3577C26.8838 26.3592 26.073 27.1699 25.0715 27.1699ZM31.2712 27.1699C30.2697 27.1699 29.459 26.3592 29.459 25.3577C29.459 24.3562 30.2697 23.5454 31.2712 23.5454C32.2727 23.5454 33.0835 24.3562 33.0835 25.3577C33.0835 26.3592 32.2727 27.1699 31.2712 27.1699Z" fill="white"/>
</svg>
