<svg width="80" height="40" viewBox="0 0 80 40" fill="none" xmlns="http://www.w3.org/2000/svg">
<path d="M69.1765 11.4179V21.1972H65.6699V14.3372H62.2935V21.1972H58.7869V11.4172H69.1765V11.4179Z" fill="black"/>
<path fill-rule="evenodd" clip-rule="evenodd" d="M51.5852 21.5469C54.7243 21.5469 57.0553 19.6303 57.0553 16.7246C57.0553 13.9123 55.3355 12.0863 52.4612 12.0863C51.1346 12.0863 50.0401 12.5513 49.2157 13.3536C49.4125 11.6953 50.8207 10.4846 52.3711 10.4846C52.729 10.4846 55.4229 10.4789 55.4229 10.4789L56.9462 7.57593C56.9462 7.57593 53.5641 7.65259 51.9919 7.65259C48.3996 7.71493 45.9731 10.9666 45.9731 14.9159C45.9731 19.5169 48.3397 21.5469 51.5852 21.5469ZM51.6043 14.6576C52.7698 14.6576 53.5778 15.4203 53.5778 16.7243C53.5778 17.8979 52.8598 18.8649 51.6043 18.8676C50.4033 18.8676 49.5952 17.9716 49.5952 16.7443C49.5952 15.4399 50.4033 14.6576 51.6043 14.6576Z" fill="black"/>
<path d="M43.1189 17.9232C43.1189 17.9232 42.2908 18.3985 41.054 18.4885C39.632 18.5305 38.3651 17.6362 38.3651 16.0472C38.3651 14.4972 39.4831 13.6089 41.0181 13.6089C41.9594 13.6089 43.2046 14.2585 43.2046 14.2585C43.2046 14.2585 44.1157 12.5935 44.5877 11.7609C43.7234 11.1085 42.5723 10.7509 41.2334 10.7509C37.8543 10.7509 35.2371 12.9449 35.2371 16.0275C35.2371 19.1495 37.697 21.2925 41.2334 21.2279C42.2218 21.1912 43.5855 20.8455 44.4166 20.3139L43.1189 17.9232Z" fill="black"/>
<path d="M0 8.70667L4.86427 17.365V22.6463L0.00569038 31.2877L0 8.70667Z" fill="#5B57A2"/>
<path d="M18.6768 14.2144L23.2347 11.4324L32.5629 11.4237L18.6768 19.895V14.2144Z" fill="#D90751"/>
<path d="M18.651 8.65567L18.6768 20.119L13.8011 17.1357V0L18.651 8.65567Z" fill="#FAB718"/>
<path d="M32.563 11.4237L23.2345 11.4323L18.651 8.65567L13.8011 0L32.563 11.4237Z" fill="#ED6F26"/>
<path d="M18.6768 31.3356V25.774L13.8011 22.8473L13.8038 40L18.6768 31.3356Z" fill="#63B22F"/>
<path d="M23.2234 28.579L4.86393 17.365L0 8.70667L32.5433 28.5677L23.2234 28.579Z" fill="#1487C9"/>
<path d="M13.8042 40L18.6765 31.3356L23.2231 28.579L32.5429 28.5676L13.8042 40Z" fill="#017F36"/>
<path d="M0.00561523 31.2876L13.8409 22.8476L9.18955 20.0056L4.86419 22.6463L0.00561523 31.2876Z" fill="#984995"/>
<path d="M38.3661 27.7789C38.259 27.9149 38.1181 28.0176 37.949 28.0869C37.7756 28.1573 37.59 28.193 37.4028 28.1923C37.2165 28.1948 37.0314 28.1638 36.8562 28.1009C36.6988 28.044 36.555 27.9553 36.4337 27.8403C36.314 27.7251 36.22 27.5861 36.1579 27.4323C36.0907 27.2638 36.0571 27.0839 36.0592 26.9026C36.0592 26.7226 36.0903 26.5559 36.1549 26.3979C36.2168 26.2396 36.3069 26.1039 36.4197 25.9899C36.5325 25.8736 36.6677 25.7849 36.8197 25.7156C36.9747 25.6489 37.1437 25.6129 37.3295 25.6129C37.5296 25.6129 37.7154 25.6379 37.8844 25.6876C38.0535 25.7376 38.1971 25.8209 38.3152 25.9376L38.1097 26.2843C38.0103 26.1946 37.8932 26.1265 37.7659 26.0843C37.6449 26.0455 37.5185 26.0259 37.3914 26.0263C37.2789 26.0263 37.1718 26.0483 37.0677 26.0899C36.9651 26.1311 36.8714 26.1914 36.7916 26.2676C36.71 26.346 36.6457 26.4404 36.6028 26.5449C36.5549 26.6529 36.5325 26.7723 36.5325 26.9053C36.5325 27.0413 36.5576 27.1633 36.6054 27.2686C36.6536 27.3769 36.7183 27.4686 36.7999 27.5459C36.8816 27.6239 36.9773 27.6819 37.0871 27.7209C37.1972 27.7626 37.3127 27.7819 37.4366 27.7819C37.5885 27.7819 37.7268 27.7513 37.8449 27.6929C37.962 27.6366 38.0672 27.5586 38.1549 27.4629L38.3661 27.7789ZM38.9462 28.1339V25.6656H39.3914V27.5046L40.8391 25.6656H41.2843V28.1343H40.8391V26.2953L39.3914 28.1343L38.9462 28.1339ZM44.2332 27.7789C44.1237 27.9161 43.98 28.0223 43.8165 28.0869C43.6429 28.1572 43.4572 28.193 43.2699 28.1923C43.0838 28.1948 42.8987 28.1638 42.7236 28.1009C42.5661 28.044 42.4222 27.9553 42.3008 27.8403C42.1811 27.7251 42.0872 27.5861 42.025 27.4323C41.9578 27.2638 41.9242 27.0839 41.9263 26.9026C41.9263 26.7226 41.9574 26.5559 42.022 26.3979C42.0843 26.2396 42.1743 26.1039 42.2868 25.9899C42.3996 25.8736 42.5348 25.7849 42.6868 25.7156C42.8473 25.6452 43.0212 25.6102 43.1966 25.6129C43.3967 25.6129 43.5825 25.6379 43.7516 25.6876C43.9206 25.7376 44.0642 25.8209 44.1827 25.9376L43.9768 26.2843C43.8776 26.1945 43.7606 26.1264 43.6334 26.0843C43.5124 26.0455 43.386 26.0259 43.2588 26.0263C43.0351 26.027 42.8202 26.1134 42.6587 26.2676C42.5778 26.3466 42.5136 26.4409 42.4699 26.5449C42.422 26.6529 42.3996 26.7723 42.3996 26.9053C42.3996 27.0413 42.425 27.1633 42.4729 27.2686C42.5208 27.3769 42.5854 27.4686 42.667 27.5459C42.7487 27.6239 42.8448 27.6819 42.9546 27.7209C43.0644 27.7596 43.1798 27.7819 43.3037 27.7819C43.456 27.7819 43.5912 27.7513 43.7121 27.6929C43.8291 27.6366 43.9343 27.5586 44.022 27.4629L44.2332 27.7789ZM44.4615 25.6656H46.7457V26.1039H45.8275V28.1339H45.3823V26.1039H44.4642V25.6656H44.4615Z" fill="black"/>
<path fill-rule="evenodd" clip-rule="evenodd" d="M48.8247 28.1092C48.9937 28.0566 49.1373 27.9759 49.2612 27.8652L49.126 27.5212C49.0443 27.5936 48.9345 27.6546 48.8023 27.7046C48.6697 27.7546 48.5204 27.7792 48.3571 27.7792C48.1121 27.7792 47.9092 27.7156 47.7486 27.5852C47.5882 27.4546 47.5009 27.2719 47.4811 27.0386H49.4078C49.4275 26.9526 49.4359 26.8556 49.4359 26.7419C49.4359 26.5726 49.4048 26.4202 49.3429 26.2816C49.2852 26.1469 49.201 26.0252 49.0952 25.9236C48.9879 25.8229 48.8614 25.7447 48.7233 25.6936C48.5787 25.6377 48.4248 25.6094 48.2697 25.6102C48.0612 25.6102 47.8781 25.6462 47.7178 25.7129C47.5662 25.7764 47.4291 25.8699 47.3147 25.9876C47.2038 26.1047 47.1185 26.2435 47.0644 26.3952C47.0049 26.5568 46.9753 26.7278 46.977 26.8999C46.977 27.0942 47.0108 27.2716 47.0727 27.4299C47.133 27.5833 47.2252 27.7222 47.3432 27.8376C47.4587 27.9509 47.5993 28.0372 47.7656 28.0982C47.9437 28.1611 48.1316 28.1921 48.3206 28.1896C48.4917 28.1885 48.6617 28.1612 48.8247 28.1092ZM47.698 26.2092C47.8359 26.0846 48.019 26.0236 48.25 26.0236C48.4669 26.0236 48.6416 26.0819 48.7685 26.1986C48.8953 26.3149 48.9626 26.4759 48.974 26.6809H47.453C47.4745 26.4994 47.5616 26.3316 47.698 26.2092Z" fill="black"/>
<path d="M50.0414 25.6655H50.4471L51.4104 26.8889L52.3229 25.6655H52.7172V28.1342H52.2723V26.3342L51.4047 27.4795H51.3877L50.4866 26.3339V28.1339H50.0414V25.6655Z" fill="black"/>
<path fill-rule="evenodd" clip-rule="evenodd" d="M53.9283 25.6738C53.7932 25.709 53.6641 25.764 53.5454 25.8372L53.6635 26.1872C53.7649 26.1372 53.8664 26.0955 53.9678 26.0595C54.0692 26.0232 54.1988 26.0065 54.3537 26.0065C54.4776 26.0065 54.5763 26.0262 54.6523 26.0648C54.7283 26.1008 54.7845 26.1565 54.824 26.2232C54.8635 26.2898 54.889 26.3728 54.903 26.4698C54.9171 26.5668 54.9228 26.6722 54.9228 26.7862C54.8317 26.723 54.7278 26.6803 54.6185 26.6612C54.5128 26.6402 54.4053 26.6291 54.2975 26.6278C54.1649 26.6278 54.0411 26.6475 53.9226 26.6805C53.8044 26.7138 53.703 26.7638 53.6213 26.8305C53.538 26.8971 53.4706 26.9813 53.4242 27.0772C53.3746 27.1821 53.3495 27.2969 53.3509 27.4128C53.3509 27.6542 53.4215 27.8428 53.5621 27.9762C53.703 28.1092 53.8888 28.1755 54.1198 28.1755C54.3283 28.1755 54.4946 28.1395 54.6212 28.0675C54.748 27.9952 54.8495 27.9122 54.9228 27.8178V28.1368H55.3395V26.6225C55.3395 26.3005 55.2692 26.0512 55.1256 25.8762C54.9847 25.7015 54.734 25.6128 54.3792 25.6128C54.2212 25.6128 54.0719 25.6348 53.9283 25.6738ZM54.6724 27.6738C54.571 27.7458 54.4384 27.7788 54.2751 27.7788C54.1315 27.7788 54.0187 27.7428 53.94 27.6735C53.861 27.6015 53.8215 27.5072 53.8215 27.3905C53.8215 27.3215 53.8356 27.2632 53.8667 27.2105C53.8978 27.1578 53.94 27.1162 53.9879 27.0828C54.0402 27.048 54.0984 27.0226 54.1596 27.0078C54.2245 26.9912 54.2891 26.9828 54.3567 26.9828C54.5767 26.9828 54.7651 27.0355 54.9201 27.1465V27.4598C54.8471 27.5413 54.7638 27.6135 54.6724 27.6738ZM59.2692 24.7972C59.3593 24.7558 59.4436 24.6865 59.5226 24.5838L59.2803 24.2372C59.2183 24.3205 59.148 24.3785 59.069 24.4092C58.9853 24.4418 58.8985 24.4659 58.81 24.4812L58.7256 24.4962C58.6523 24.5088 58.5736 24.5228 58.489 24.5368C58.3531 24.5619 58.2208 24.6028 58.0946 24.6588C57.8945 24.7448 57.7341 24.8612 57.613 25.0082C57.4918 25.1552 57.3961 25.3215 57.3311 25.5048C57.2654 25.6906 57.221 25.8831 57.1989 26.0788C57.1762 26.2788 57.1651 26.4698 57.1651 26.6528C57.1651 26.8888 57.1959 27.1022 57.2578 27.2935C57.3201 27.4852 57.4071 27.6458 57.5226 27.7762C57.6381 27.9095 57.7763 28.0095 57.9397 28.0815C58.103 28.1535 58.2861 28.1895 58.4916 28.1895C58.6804 28.1895 58.8551 28.1535 59.0128 28.0868C59.1648 28.0228 59.3026 27.9296 59.4185 27.8125C59.531 27.6985 59.6213 27.5625 59.6833 27.4102C59.7479 27.2575 59.779 27.0938 59.779 26.9218C59.779 26.7362 59.7509 26.5672 59.6973 26.4172C59.648 26.2742 59.5694 26.143 59.4664 26.0319C59.3632 25.9226 59.2371 25.8373 59.0972 25.7819C58.943 25.7214 58.7785 25.6913 58.6128 25.6932C58.5057 25.6932 58.4016 25.7072 58.3002 25.7348C58.2015 25.7625 58.1068 25.8026 58.0183 25.8542C57.9325 25.9031 57.8539 25.9637 57.7847 26.0342C57.7171 26.1038 57.6608 26.1815 57.6213 26.2702H57.61C57.6187 26.1565 57.6327 26.0402 57.6578 25.9209C57.6833 25.8015 57.7198 25.6875 57.768 25.5795C57.8158 25.4715 57.8777 25.3742 57.9537 25.2855C58.0352 25.196 58.1351 25.1251 58.2466 25.0775C58.3692 25.0194 58.499 24.9774 58.6326 24.9528L58.7209 24.9368C58.809 24.9208 58.893 24.9055 58.9733 24.8888C59.0804 24.8668 59.1788 24.8385 59.2692 24.7972ZM57.703 27.1688C57.6595 27.0288 57.6386 26.8828 57.6411 26.7362C57.66 26.6521 57.6944 26.5721 57.7425 26.5005C57.7904 26.4255 57.8523 26.3592 57.9256 26.3005C58.091 26.1715 58.2956 26.1021 58.5057 26.1038C58.7678 26.1038 58.9649 26.1842 59.1029 26.3425C59.2411 26.5032 59.3087 26.7028 59.3087 26.9442C59.3087 27.0635 59.2859 27.1718 59.2468 27.2715C59.2087 27.3698 59.1512 27.4595 59.0777 27.5353C59.0041 27.611 58.916 27.6713 58.8187 27.7125C58.7172 27.7569 58.6071 27.7792 58.4833 27.7792C58.3594 27.7792 58.2466 27.7542 58.1425 27.7042C58.0391 27.6552 57.9476 27.5842 57.8747 27.4962C57.7984 27.3981 57.7402 27.2873 57.703 27.1688ZM63.1929 25.6655H62.7477V28.1342H63.1929V25.6655ZM60.421 25.6655H60.8662V26.4062H61.2776C61.4717 26.4062 61.6294 26.4312 61.7562 26.4782C61.8831 26.5255 61.9845 26.5892 62.0605 26.6668C62.1365 26.7445 62.19 26.8362 62.2212 26.9385C62.252 27.0412 62.269 27.1465 62.269 27.2575C62.269 27.3685 62.252 27.4742 62.2155 27.5795C62.1817 27.6848 62.1224 27.7762 62.0434 27.8595C61.9648 27.9428 61.8577 28.0095 61.7224 28.0595C61.5872 28.1092 61.4239 28.1368 61.2267 28.1368H60.4183V25.6655H60.421ZM60.8662 26.8192V27.7235H61.1902C61.4128 27.7235 61.5705 27.6848 61.6605 27.6068C61.7509 27.5292 61.7957 27.4185 61.7957 27.2715C61.7957 27.1215 61.7479 27.0082 61.6578 26.9302C61.5648 26.8525 61.4098 26.8135 61.1959 26.8135H60.8662V26.8192Z" fill="black"/>
<path d="M66.1364 27.7789C66.0293 27.9149 65.8883 28.0176 65.7193 28.0869C65.5459 28.1572 65.3603 28.193 65.173 28.1923C64.9868 28.1948 64.8016 28.1639 64.6264 28.1009C64.469 28.0441 64.3252 27.9554 64.204 27.8403C64.0843 27.725 63.9902 27.586 63.9278 27.4323C63.8609 27.2638 63.8274 27.0839 63.8294 26.9026C63.8294 26.7226 63.8602 26.5559 63.9252 26.3979C63.9871 26.2396 64.0771 26.1039 64.1899 25.9899C64.3027 25.8736 64.4376 25.7849 64.5899 25.7156C64.7504 25.6452 64.9244 25.6102 65.0997 25.6129C65.2996 25.6129 65.4857 25.6379 65.6547 25.6876C65.8237 25.7376 65.9673 25.8209 66.0855 25.9376L65.88 26.2843C65.7806 26.1946 65.6635 26.1265 65.5362 26.0843C65.4152 26.0455 65.2888 26.0259 65.1617 26.0263C65.0492 26.0263 64.9421 26.0483 64.8376 26.0899C64.7352 26.1311 64.6415 26.1914 64.5618 26.2676C64.4808 26.3465 64.4166 26.4408 64.373 26.5449C64.3252 26.6529 64.3027 26.7723 64.3027 26.9053C64.3027 27.0413 64.3278 27.1633 64.3757 27.2686C64.4236 27.3769 64.4885 27.4686 64.5702 27.5459C64.6519 27.6239 64.7476 27.6819 64.8574 27.7209C64.9675 27.7596 65.083 27.7819 65.2068 27.7819C65.3588 27.7819 65.494 27.7513 65.6152 27.6929C65.7323 27.6366 65.8375 27.5586 65.9252 27.4629L66.1364 27.7789ZM66.3643 25.6656H68.6488V26.1039H67.7304V28.1339H67.2855V26.1039H66.3673V25.6656H66.3643Z" fill="black"/>
<path fill-rule="evenodd" clip-rule="evenodd" d="M69.5785 25.666H69.1333V29.2326H69.5785V28.0206C69.6685 28.079 69.7756 28.1206 69.8995 28.1483C70.0233 28.176 70.1529 28.1896 70.2854 28.1896C70.4826 28.1896 70.66 28.1536 70.8207 28.0873C70.9748 28.0216 71.1144 27.9265 71.2317 27.8073C71.3472 27.6876 71.4346 27.549 71.4965 27.3853C71.5584 27.222 71.5895 27.047 71.5895 26.8613C71.5895 26.678 71.5614 26.509 71.5079 26.3563C71.4574 26.2113 71.379 26.0776 71.2769 25.9626C71.1767 25.8505 71.0525 25.7623 70.9134 25.7046C70.7614 25.6396 70.5972 25.6074 70.4317 25.6103C70.2573 25.6103 70.094 25.6436 69.939 25.7103C69.784 25.777 69.6628 25.857 69.5785 25.957V25.666ZM69.8885 26.1236C70.0153 26.057 70.1532 26.0236 70.3025 26.0236C70.432 26.0236 70.5475 26.043 70.652 26.0846C70.7534 26.1263 70.8377 26.1846 70.9084 26.2623C70.9787 26.34 71.0322 26.429 71.066 26.534C71.1025 26.6393 71.1196 26.7533 71.1196 26.878C71.1196 27.0113 71.0968 27.1303 71.0577 27.2413C71.0207 27.3465 70.9621 27.4429 70.8856 27.5243C70.8087 27.6047 70.7156 27.6679 70.6125 27.71C70.4974 27.7579 70.3736 27.7815 70.249 27.7793C70.1281 27.7793 70.0153 27.7656 69.9082 27.738C69.7909 27.7062 69.6797 27.6555 69.5788 27.588V26.3646C69.6575 26.2706 69.7619 26.1903 69.8885 26.1236ZM75.0034 25.6656H74.5582V28.1343H75.0034V25.6656ZM72.2289 25.6656H72.6741V26.4063H73.0851C73.2796 26.4063 73.4372 26.4313 73.5641 26.4783C73.691 26.5256 73.7924 26.5893 73.8684 26.667C73.9444 26.7446 73.9979 26.8363 74.0287 26.9386C74.0598 27.0413 74.0766 27.1466 74.0766 27.2576C74.0766 27.3686 74.0598 27.4743 74.0233 27.5796C73.9895 27.685 73.9303 27.7763 73.8513 27.8596C73.7726 27.943 73.6655 28.0096 73.5303 28.0596C73.3951 28.1093 73.2317 28.137 73.0346 28.137H72.2262V25.6656H72.2289ZM72.6771 26.8193V27.7236H73.0011C73.2233 27.7236 73.3813 27.685 73.4714 27.607C73.5614 27.5293 73.6066 27.4186 73.6066 27.2716C73.6066 27.1216 73.5587 27.0083 73.4687 26.9303C73.3756 26.8526 73.2207 26.8136 73.0068 26.8136H72.6771V26.8193Z" fill="black"/>
<path d="M77.1386 26.8555L78.0906 28.1342H77.5443L76.8089 27.1355L76.0624 28.1342H75.5443L76.4906 26.8775L75.6005 25.6655H76.1471L76.826 26.5975L77.5158 25.6655H78.0343L77.1386 26.8555ZM38.0367 31.1852H36.6707V33.2432H36.2255V30.7749H38.4815V33.2432H38.0367V31.1852ZM41.0081 31.2129H40.1294L40.1009 31.6289C40.0702 31.9812 40.028 32.2642 39.9687 32.4802C39.9095 32.6969 39.8362 32.8632 39.7518 32.9795C39.6675 33.0962 39.5687 33.1765 39.4559 33.2155C39.3396 33.2575 39.2165 33.2782 39.0927 33.2765L39.0589 32.8492C39.1068 32.8519 39.163 32.8409 39.225 32.8132C39.2872 32.7855 39.3491 32.7245 39.4081 32.6332C39.4673 32.5385 39.5209 32.4055 39.5687 32.2335C39.6166 32.0589 39.6477 31.8315 39.6645 31.5455L39.7096 30.7772H41.4532V33.2459H41.0081V31.2129Z" fill="black"/>
<path fill-rule="evenodd" clip-rule="evenodd" d="M42.6533 30.7806C42.5093 30.8193 42.3798 30.8746 42.27 30.9439L42.3885 31.2936C42.4899 31.2436 42.5913 31.2019 42.6924 31.1659C42.7939 31.1299 42.9237 31.1133 43.0784 31.1133C43.2026 31.1133 43.301 31.1326 43.377 31.1713C43.4533 31.2076 43.5095 31.2629 43.549 31.3296C43.5882 31.3963 43.6136 31.4796 43.6277 31.5763C43.6417 31.6736 43.6474 31.7789 43.6474 31.8926C43.5563 31.8295 43.4525 31.7869 43.3431 31.7679C43.2374 31.747 43.13 31.7358 43.0221 31.7346C42.8899 31.7346 42.7657 31.7539 42.6476 31.7873C42.5291 31.8206 42.4277 31.8706 42.346 31.9373C42.2626 32.0038 42.1953 32.0881 42.1488 32.1839C42.0993 32.2889 42.0744 32.4037 42.0759 32.5196C42.0759 32.7606 42.1462 32.9496 42.2871 33.0826C42.4277 33.2156 42.6138 33.2823 42.8447 33.2823C43.0533 33.2823 43.2193 33.2463 43.3462 33.1739C43.4727 33.1019 43.5741 33.0186 43.6474 32.9243V33.2433H44.0645V31.7289C44.0645 31.4073 43.9939 31.1576 43.8503 30.9829C43.7093 30.8079 43.4586 30.7196 43.1038 30.7196C42.9516 30.7197 42.8001 30.7405 42.6533 30.7806ZM43.3997 32.7799C43.2986 32.8523 43.1661 32.8856 43.0027 32.8856C42.8561 32.8856 42.7463 32.8496 42.6677 32.7799C42.5887 32.7079 42.5492 32.6136 42.5492 32.4973C42.5492 32.4279 42.5632 32.3696 42.5944 32.3169C42.6252 32.2643 42.6677 32.2226 42.7155 32.1893C42.7634 32.1559 42.8223 32.1309 42.8872 32.1143C42.9516 32.0977 43.0179 32.0894 43.0844 32.0896C43.304 32.0896 43.4928 32.1423 43.6477 32.2529V32.5663C43.5746 32.6478 43.4912 32.7196 43.3997 32.7799Z" fill="black"/>
<path d="M44.5006 30.7749H46.7851V31.2129H45.8666V33.2432H45.4218V31.2132H44.5036V30.7749H44.5006Z" fill="black"/>
<path fill-rule="evenodd" clip-rule="evenodd" d="M48.8641 33.2183C49.0331 33.1656 49.1767 33.0849 49.3006 32.9743L49.1653 32.6303C49.0837 32.7026 48.9739 32.7636 48.8413 32.8136C48.7091 32.8636 48.5598 32.8883 48.3965 32.8883C48.1515 32.8883 47.9486 32.8246 47.7879 32.6943C47.6273 32.5639 47.5402 32.3809 47.5205 32.1476H49.4472C49.4666 32.0619 49.4753 31.9646 49.4753 31.8509C49.4753 31.6819 49.4442 31.5293 49.3822 31.3906C49.3246 31.256 49.2402 31.1343 49.1342 31.0329C49.0271 30.9321 48.9008 30.8538 48.7627 30.8026C48.6181 30.7468 48.4642 30.7185 48.3091 30.7193C48.1006 30.7193 47.9175 30.7553 47.7571 30.8219C47.6055 30.8853 47.4683 30.9787 47.3541 31.0966C47.2432 31.2138 47.1578 31.3526 47.1034 31.5043C47.0441 31.6659 47.0145 31.8369 47.0161 32.0089C47.0161 32.2033 47.0499 32.3806 47.1118 32.5389C47.174 32.6969 47.2668 32.8329 47.3822 32.9466C47.4977 33.0603 47.6386 33.1463 47.805 33.2073C47.983 33.2703 48.1708 33.3013 48.3597 33.2989C48.526 33.2989 48.695 33.2709 48.8641 33.2183ZM47.7347 31.3156C47.8726 31.1909 48.0557 31.1299 48.2867 31.1299C48.5066 31.1299 48.6783 31.1909 48.8052 31.3046C48.9317 31.4213 48.9993 31.5819 49.0107 31.7873H47.4897C47.5112 31.6056 47.5983 31.438 47.7347 31.3156ZM49.6922 30.7749H50.2556L51.1145 31.9649L50.1963 33.2433H49.65L50.613 31.9646L49.6922 30.7749ZM51.2243 30.7749H51.6694V33.2433H51.2243V30.7749ZM53.2607 33.2433L52.2807 31.9646L53.1961 30.7746H52.6438L51.7792 31.9646L52.7088 33.2433H53.2607ZM55.2945 33.2183C55.4636 33.1656 55.6072 33.0849 55.731 32.9743L55.5958 32.6303C55.5141 32.7026 55.4043 32.7636 55.2721 32.8136C55.1396 32.8636 54.9903 32.8883 54.8269 32.8883C54.5819 32.8883 54.3791 32.8246 54.2184 32.6943C54.0581 32.5639 53.9707 32.3809 53.9509 32.1476H55.8776C55.8974 32.0619 55.9058 31.9646 55.9058 31.8509C55.9058 31.6819 55.875 31.5293 55.8127 31.3906C55.755 31.2561 55.6708 31.1344 55.565 31.0329C55.4578 30.9321 55.3313 30.8538 55.1931 30.8026C55.0485 30.7467 54.8947 30.7185 54.7396 30.7193C54.5314 30.7193 54.3483 30.7553 54.1876 30.8219C54.0361 30.8854 53.8991 30.9788 53.7849 31.0966C53.6737 31.2136 53.5883 31.3525 53.5342 31.5043C53.4747 31.6659 53.4451 31.8368 53.4468 32.0089C53.4468 32.2033 53.4807 32.3806 53.5426 32.5389C53.6045 32.6969 53.6976 32.8329 53.813 32.9466C53.9285 33.0603 54.0691 33.1463 54.2355 33.2073C54.4136 33.2703 54.6015 33.3013 54.7904 33.2989C54.9616 33.2977 55.1316 33.2705 55.2945 33.2183ZM54.1652 31.3156C54.3034 31.1909 54.4865 31.1299 54.7175 31.1299C54.9344 31.1299 55.1088 31.1909 55.2356 31.3046C55.3625 31.4213 55.4301 31.5819 55.4412 31.7873H53.9202C53.9416 31.6056 54.0287 31.438 54.1652 31.3156ZM57.7116 29.9456C57.4495 29.9456 57.3059 29.8013 57.2835 29.5129H56.8637C56.8637 29.6236 56.8835 29.7236 56.92 29.8179C56.9568 29.9123 57.0104 29.9926 57.0807 30.0593C57.1509 30.1259 57.2413 30.1786 57.3454 30.2199C57.4495 30.2616 57.5707 30.2809 57.7086 30.2809C57.8355 30.2809 57.9483 30.2616 58.0497 30.2199C58.1511 30.1813 58.2355 30.1259 58.3088 30.0593C58.3791 29.9926 58.4356 29.9123 58.4748 29.8179C58.5143 29.7236 58.534 29.6236 58.534 29.5129H58.1173C58.0976 29.8013 57.9593 29.9456 57.7116 29.9456ZM56.5086 30.7746V33.2433H56.9538L58.4015 31.4043V33.2433H58.8467V30.7746H58.4015L56.9538 32.6136V30.7746H56.5086Z" fill="black"/>
</svg>
