<?xml version="1.0" encoding="utf-8"?><svg xmlns="http://www.w3.org/2000/svg" xmlns:xlink="http://www.w3.org/1999/xlink"><symbol viewBox="0 0 24 24" id="alarm" xmlns="http://www.w3.org/2000/svg"><path d="M20.507 16.88a.781.781 0 10-1.536.287.773.773 0 01-.167.645.77.77 0 01-.601.282H6.344a.77.77 0 01-.6-.282.773.773 0 01-.168-.645c.222-1.182.666-1.96 1.096-2.712.523-.914 1.063-1.858 1.063-3.314V9.969A4.549 4.549 0 0112.2 5.438h.147c2.454.036 4.45 2.067 4.45 4.53v1.173c0 1.239.406 2.091.785 2.793a.781.781 0 101.375-.743c-.378-.699-.597-1.258-.597-2.05V9.969a6.064 6.064 0 00-1.754-4.276 6.034 6.034 0 00-3.559-1.77V2.781a.781.781 0 10-1.562 0v1.144C8.498 4.313 6.172 6.89 6.172 9.97v1.172c0 1.04-.378 1.701-.856 2.538-.471.825-1.005 1.759-1.276 3.2a2.339 2.339 0 00.5 1.93 2.336 2.336 0 001.804.847h3.593A2.346 2.346 0 0012.281 22a2.346 2.346 0 002.344-2.344h3.578c.7 0 1.357-.308 1.803-.846a2.34 2.34 0 00.5-1.93zm-8.226 3.558a.782.782 0 01-.781-.782h1.562c0 .431-.35.782-.781.782z"/></symbol><symbol viewBox="0 0 24 24" id="avatar" xmlns="http://www.w3.org/2000/svg"><path d="M5.625 9.188c0 3.506 2.869 6.374 6.375 6.374s6.375-2.868 6.375-6.374c0-3.507-2.869-6.376-6.375-6.376s-6.375 2.87-6.375 6.376zm11.25 0A4.89 4.89 0 0112 14.061a4.89 4.89 0 01-4.875-4.874A4.89 4.89 0 0112 4.311a4.89 4.89 0 014.875 4.875zm-12.3 13.199A10.408 10.408 0 0112 19.313c2.813 0 5.438 1.088 7.425 3.075l1.069-1.068A12.004 12.004 0 0012 17.813a12.004 12.004 0 00-8.494 3.506l1.07 1.069z"/></symbol><symbol viewBox="0 0 22 24" id="basket" xmlns="http://www.w3.org/2000/svg"><g clip-path="url(#ca)"><path d="M10.363 18.443a2.046 2.046 0 00-2.045 2.042 2.046 2.046 0 004.09 0 2.046 2.046 0 00-2.045-2.042zm6.134 0a2.046 2.046 0 00-2.045 2.042 2.046 2.046 0 004.089 0 2.046 2.046 0 00-2.044-2.042zm3.978-8.199L7.413 6.891a.614.614 0 00-.75.73L8.67 16.4h-.786L5.482 5.895a.613.613 0 00-.474-.464l-4.27-.882A.614.614 0 00.489 5.75l3.885.802L6.797 17.15a.613.613 0 00.598.477h12.07a.615.615 0 00.607-.53l.858-6.175a.613.613 0 00-.455-.678zm-8.14 3.91a.613.613 0 01-1.227 0v-2.696a.613.613 0 011.227 0v2.696zm2.625 0a.613.613 0 01-1.227 0v-1.88a.613.613 0 011.227 0v1.88zm2.625 0a.613.613 0 01-1.227 0v-1.226a.613.613 0 011.227 0v1.226z"/></g><path fill-rule="evenodd" clip-rule="evenodd" d="M16.268 4.568a2.996 2.996 0 00-1.693-.523c-.627 0-1.21.193-1.693.523-.28-.843-.492-1.752-.492-2.383C12.39.98 13.37 0 14.575 0s2.185.98 2.185 2.185c0 .631-.212 1.54-.492 2.383zm-4.722 2.274l.024.006v-.011l-.024.005zm4.972 1.217c-1.333-.33-2.766-.681-4.129-1.013a2.185 2.185 0 114.129 1.013zm4.436 1.103c-.866-.217-2.155-.538-3.618-.9a2.995 2.995 0 00.243-1.425c.87.18 1.762.45 2.308.765.596.344.969.928 1.067 1.56zM9.869 6.439c-.36-.086-.706-.167-1.03-.243a2.19 2.19 0 01-.376-2.667 2.188 2.188 0 013.147-.7c.098.738.338 1.599.61 2.353a3.01 3.01 0 00-.449.774c-.628.113-1.305.278-1.902.483zm10.124.075a3.43 3.43 0 01-.217.114c-.696-.295-1.587-.526-2.397-.672a3.01 3.01 0 00-.449-.774c.262-.727.494-1.553.599-2.273.095-.067.189-.128.278-.18a2.188 2.188 0 012.986.8 2.188 2.188 0 01-.8 2.985z"/><defs><clipPath id="ca"><path transform="translate(0 3.064)" d="M0 0h20.936v20.936H0z"/></clipPath></defs></symbol><symbol viewBox="0 0 344.96 344.96" id="check" xmlns="http://www.w3.org/2000/svg"><g data-name="Слой 2"><path class="dcls-1" d="M321.85 86.24l-40-23.11-23.1-40H212.5L172.48 0l-40 23.11H86.24l-23.11 40-40 23.1v46.21L0 172.48l23.11 40v46.21l40 23.11 23.11 40h46.21l40 23.1 40-23.11h46.21l23.11-40 40-23.11V212.5l23.11-40-23.11-40V86.24zM156.91 243.07a16.79 16.79 0 01-23.34 0l-50.45-50.44a16.19 16.19 0 010-22.89l13.35-13.35a16.19 16.19 0 0122.89 0l25.87 25.87 80.34-80.35a16.19 16.19 0 0122.89 0l13.35 13.35a16.19 16.19 0 010 22.89z" data-name="Capa 1"/></g></symbol><symbol viewBox="0 0 24 24" id="check_star" xmlns="http://www.w3.org/2000/svg"><path d="M22.51 13.76a3 3 0 010-3.52l.76-1.05a1 1 0 00-.105-1.295 1.018 1.018 0 00-.395-.245l-1.23-.4a2.987 2.987 0 01-2.07-2.85V3.1a1 1 0 00-1.31-.95l-1.24.4a3 3 0 01-3.35-1.09L12.81.41a1.036 1.036 0 00-1.62 0l-.76 1.05a3 3 0 01-3.35 1.09l-1.24-.4a1 1 0 00-1.31.95v1.3a2.987 2.987 0 01-2.07 2.85l-1.23.4a1.018 1.018 0 00-.64.64 1 1 0 00.14.9l.76 1.05a3 3 0 010 3.52l-.76 1.05a1 1 0 00.5 1.54l1.23.4a2.988 2.988 0 012.07 2.85v1.3a1 1 0 001.31.95l1.23-.4a2.994 2.994 0 013.36 1.09l.76 1.05a1.005 1.005 0 001.62 0l.76-1.05a3 3 0 013.36-1.09l1.23.4a1 1 0 001.31-.95v-1.3a2.987 2.987 0 012.07-2.85l1.23-.4a1.018 1.018 0 00.64-.64 1 1 0 00-.14-.9l-.76-1.05zm-5.8-3.053l-5 5a1 1 0 01-1.414 0l-3-3a1 1 0 111.414-1.414L11 13.586l4.293-4.293a1 1 0 011.414 1.414h.003z"/></symbol><symbol viewBox="0 0 24 24" id="currency-rub" xmlns="http://www.w3.org/2000/svg"><path d="M13 15.4H8.6c-.33 0-.6-.27-.6-.6 0-.33.27-.6.6-.6H13c.33 0 .6.27.6.6 0 .33-.27.6-.6.6z"/><path d="M10.2 17c-.33 0-.6-.27-.6-.6v-3h-1c-.33 0-.6-.27-.6-.6 0-.33.27-.6.6-.6h1V7.6c0-.33.27-.6.6-.6h3c1.765 0 3.2 1.435 3.2 3.2 0 1.765-1.435 3.2-3.2 3.2h-2.4v3c0 .33-.27.6-.6.6zm.6-4.8h2.4a2 2 0 100-4h-2.4v4z"/><path d="M12 2a10 10 0 100 20 10 10 0 000-20zm0 18.333a8.333 8.333 0 110-16.666 8.333 8.333 0 010 16.666z"/></symbol><symbol viewBox="0 0 24 24" id="document" xmlns="http://www.w3.org/2000/svg"><path d="M15.716 16.223h-7.22m7.22-4.186h-7.22M11.25 7.86H8.497"/><path clip-rule="evenodd" d="M15.909 2.75l-7.69.004C5.46 2.77 3.75 4.587 3.75 7.357v9.196c0 2.784 1.722 4.607 4.506 4.607l7.69-.003c2.76-.017 4.47-1.834 4.47-4.604V7.357c0-2.784-1.724-4.607-4.508-4.607z"/></symbol><symbol viewBox="0 0 24 24" id="faqs" xmlns="http://www.w3.org/2000/svg"><path d="M13 3a10 10 0 100 20 10 10 0 000-20zm0 18.333a8.333 8.333 0 110-16.666 8.333 8.333 0 010 16.666z"/><path d="M13.717 7.25A3.333 3.333 0 009.85 9.433a.817.817 0 00.533 1.05.832.832 0 001.05-.55 1.666 1.666 0 011.9-1.066A1.667 1.667 0 0114.5 10.7a1.667 1.667 0 01-1.667 1.283.834.834 0 00-.933.833v2.6a.833.833 0 00.833.834.814.814 0 00.834-.817V13.6a3.332 3.332 0 002.583-2.617 3.333 3.333 0 00-2.433-3.733zm-1.034 9.733a.883.883 0 00-.833.834V18a.785.785 0 00.817.767.883.883 0 00.833-.867v-.133a.784.784 0 00-.817-.784z"/></symbol><symbol viewBox="0 0 24 24" id="fb" xmlns="http://www.w3.org/2000/svg"><path d="M13.397 20.997v-8.196h2.765l.411-3.209h-3.176V7.548c0-.926.258-1.56 1.587-1.56h1.684v-2.86A22.108 22.108 0 0014.201 3c-2.444 0-4.122 1.492-4.122 4.231v2.355H7.332v3.21h2.753v8.201h3.312z"/></symbol><symbol viewBox="0 0 24 24" id="gift" xmlns="http://www.w3.org/2000/svg"><path d="M20.25 12.75H3.75c-.825 0-1.5-.675-1.5-1.5v-3c0-.825.675-1.5 1.5-1.5h16.5c.825 0 1.5.675 1.5 1.5v3c0 .825-.675 1.5-1.5 1.5zm-16.5-4.5v3h16.5v-3H3.75z"/><path d="M18.75 20.25H5.25c-.825 0-1.5-.675-1.5-1.5V12c0-.412.338-.75.75-.75s.75.338.75.75v6.75h13.5V12c0-.412.337-.75.75-.75s.75.338.75.75v6.75c0 .825-.675 1.5-1.5 1.5z"/><path d="M12 20.25a.752.752 0 01-.75-.75v-12c0-.412.338-.75.75-.75s.75.338.75.75v12c0 .413-.338.75-.75.75z"/><path d="M12 8.25c-.356 0-3.525-.038-4.772-1.284a3.01 3.01 0 010-4.238 3.005 3.005 0 014.247 0c.206.206.384.469.534.769.15-.29.32-.563.535-.769a2.995 2.995 0 012.118-.881c.797 0 1.557.31 2.12.881a2.993 2.993 0 010 4.238C15.524 8.212 12.355 8.25 12 8.25zm2.653-4.903c-.384 0-.769.15-1.06.44-.459.46-.721 1.8-.806 2.935 1.125-.085 2.466-.347 2.935-.806a1.505 1.505 0 000-2.12c-.3-.3-.684-.45-1.069-.45zm-6.366 2.56c.46.459 1.8.721 2.935.805-.085-1.125-.347-2.465-.806-2.934a1.505 1.505 0 00-2.12 0c-.59.6-.59 1.547-.009 2.128z"/></symbol><symbol viewBox="0 0 30 30" id="info_square" xmlns="http://www.w3.org/2000/svg"><path clip-rule="evenodd" d="M26.563 15c0 8.671-2.891 11.562-11.563 11.562-8.671 0-11.562-2.89-11.562-11.562C3.438 6.329 6.329 3.437 15 3.437c8.672 0 11.563 2.892 11.563 11.563z"/><path d="M15.006 19.244v-4.869M15.011 10H15"/></symbol><symbol viewBox="0 0 24 24" id="instagram" xmlns="http://www.w3.org/2000/svg"><path d="M11.999 7.377a4.624 4.624 0 100 9.248 4.624 4.624 0 000-9.248zm0 7.627a3.004 3.004 0 110-6.008 3.004 3.004 0 010 6.008zm4.807-6.719a1.078 1.078 0 100-2.156 1.078 1.078 0 000 2.156z"/><path d="M20.533 6.11A4.605 4.605 0 0017.9 3.48a6.607 6.607 0 00-2.186-.42c-.963-.042-1.268-.054-3.71-.054s-2.755 0-3.71.054a6.554 6.554 0 00-2.184.42 4.6 4.6 0 00-2.633 2.63 6.585 6.585 0 00-.419 2.186c-.043.962-.056 1.267-.056 3.71 0 2.442 0 2.753.056 3.71.015.748.156 1.486.419 2.187a4.61 4.61 0 002.634 2.632 6.583 6.583 0 002.185.45c.963.042 1.268.055 3.71.055s2.755 0 3.71-.055a6.616 6.616 0 002.186-.42 4.613 4.613 0 002.633-2.632c.263-.7.404-1.438.419-2.186.043-.962.056-1.267.056-3.71s0-2.753-.056-3.71a6.583 6.583 0 00-.421-2.217zm-1.218 9.533a5.046 5.046 0 01-.311 1.688 2.987 2.987 0 01-1.712 1.71c-.535.2-1.1.305-1.67.312-.95.044-1.218.055-3.654.055-2.438 0-2.687 0-3.655-.055a4.961 4.961 0 01-1.67-.311 2.984 2.984 0 01-1.718-1.711 5.08 5.08 0 01-.311-1.67c-.043-.95-.053-1.217-.053-3.653 0-2.437 0-2.686.053-3.655a5.038 5.038 0 01.311-1.687c.305-.79.93-1.41 1.719-1.712a5.01 5.01 0 011.669-.311c.95-.043 1.218-.055 3.655-.055s2.687 0 3.654.055a4.96 4.96 0 011.67.31 2.99 2.99 0 011.712 1.713 5.06 5.06 0 01.311 1.669c.043.95.054 1.218.054 3.655 0 2.436 0 2.698-.043 3.654h-.011v-.001z"/></symbol><symbol viewBox="0 0 24 24" id="newspaper" xmlns="http://www.w3.org/2000/svg"><path d="M16.5 11.25H9a.752.752 0 01-.75-.75c0-.412.338-.75.75-.75h7.5c.413 0 .75.338.75.75s-.337.75-.75.75zm0 3H9a.752.752 0 01-.75-.75c0-.412.338-.75.75-.75h7.5c.413 0 .75.338.75.75s-.337.75-.75.75z"/><path d="M19.5 19.5H3a2.257 2.257 0 01-2.25-2.25v-9c0-.412.337-.75.75-.75s.75.338.75.75v9c0 .413.337.75.75.75s.75-.337.75-.75V6c0-.825.675-1.5 1.5-1.5h15c.825 0 1.5.675 1.5 1.5v11.25a2.257 2.257 0 01-2.25 2.25zM5.119 18H19.5c.413 0 .75-.337.75-.75V6h-15v11.25c0 .262-.047.516-.131.75z"/></symbol><symbol viewBox="0 0 24 24" id="setting" xmlns="http://www.w3.org/2000/svg"><path d="M20.814 13.59l-.832-.685a1.172 1.172 0 010-1.81l.832-.685a1.558 1.558 0 00.36-1.987l-1.643-2.846a1.558 1.558 0 00-1.901-.682l-1.01.378a1.172 1.172 0 01-1.566-.904l-.177-1.063A1.558 1.558 0 0013.335 2H10.05a1.56 1.56 0 00-1.542 1.306l-.177 1.063a1.172 1.172 0 01-1.567.904l-1.009-.378a1.558 1.558 0 00-1.901.682L2.21 8.423c-.384.664-.232 1.5.36 1.987l.832.685c.57.47.569 1.341 0 1.81l-.832.685a1.558 1.558 0 00-.36 1.987l1.643 2.846a1.558 1.558 0 001.901.682l1.01-.378a1.172 1.172 0 011.566.904l.177 1.063A1.558 1.558 0 0010.05 22h3.285c.767 0 1.415-.55 1.541-1.306l.178-1.063a1.172 1.172 0 011.567-.904l1.009.378a1.558 1.558 0 001.901-.682l1.643-2.846c.384-.664.232-1.5-.36-1.987zm-2.636 4.052l-1.01-.379a2.734 2.734 0 00-3.655 2.111l-.178 1.064H10.05l-.178-1.063a2.734 2.734 0 00-3.656-2.112l-1.01.378-1.642-2.845.832-.685a2.734 2.734 0 000-4.222l-.832-.685 1.643-2.846 1.009.379a2.734 2.734 0 003.656-2.111l.178-1.064h3.285l.177 1.064a2.734 2.734 0 003.657 2.11l1.01-.378 1.642 2.846-.832.685a2.734 2.734 0 000 4.222l.832.685-1.643 2.846zm-6.486-9.496A3.859 3.859 0 007.839 12a3.859 3.859 0 003.855 3.854A3.858 3.858 0 0015.547 12a3.858 3.858 0 00-3.854-3.854zm0 6.146A2.294 2.294 0 019.402 12a2.294 2.294 0 012.292-2.292A2.294 2.294 0 0113.984 12a2.294 2.294 0 01-2.291 2.292z"/></symbol><symbol viewBox="0 0 24 24" id="shop" xmlns="http://www.w3.org/2000/svg"><path d="M21.75 9.75a.756.756 0 00-.097-.369l-3.387-6A.75.75 0 0017.613 3H6.387a.75.75 0 00-.653.381l-3.387 6a.757.757 0 00-.097.369 2.99 2.99 0 001.5 2.583V19.5a1.5 1.5 0 001.5 1.5h4.41a1.5 1.5 0 001.5-1.5v-2.03a.914.914 0 01.75-.928.842.842 0 01.93.835V19.5a1.5 1.5 0 001.5 1.5h4.41a1.5 1.5 0 001.5-1.5v-7.167a2.99 2.99 0 001.5-2.583zm-1.51.178a1.5 1.5 0 01-2.99-.178.676.676 0 00-.021-.104.65.65 0 00-.008-.1L15.796 4.5h1.379l3.064 5.428zM9.762 4.5h1.487v5.25a1.5 1.5 0 01-2.992.075L9.762 4.5zm2.987 0h1.487l1.505 5.325a1.5 1.5 0 01-2.992-.075V4.5zm-5.925 0h1.38L6.778 9.546a.648.648 0 00-.007.1.684.684 0 00-.022.104 1.5 1.5 0 01-2.99.178L6.825 4.5zm11.925 15h-4.41v-2.122a2.341 2.341 0 00-2.58-2.325 2.412 2.412 0 00-2.1 2.42V19.5H5.25v-6.75a2.992 2.992 0 002.25-1.018 2.977 2.977 0 004.5-.018 2.978 2.978 0 004.5.018 2.993 2.993 0 002.25 1.018v6.75z"/></symbol><symbol viewBox="0 0 24 24" id="star" xmlns="http://www.w3.org/2000/svg"><path d="M22.225 9.635a.756.756 0 00-.605-.51l-6.18-.9-2.765-5.6a.753.753 0 00-1.35 0l-2.765 5.6-6.18.9a.748.748 0 00-.415 1.28l4.475 4.36-1.055 6.155a.75.75 0 001.09.79L12 18.8l5.53 2.905a.748.748 0 00.79-.06.76.76 0 00.3-.735l-1.055-6.155 4.475-4.36c.2-.19.27-.49.185-.76zm-5.995 4.33a.744.744 0 00-.215.665l.865 5.045-4.535-2.385a.785.785 0 00-.35-.085c-.12 0-.24.03-.35.085L7.11 19.675l.865-5.045a.762.762 0 00-.215-.665L4.1 10.39l5.07-.735a.752.752 0 00.565-.41L12 4.65l2.265 4.595c.11.22.32.375.565.41l5.07.735-3.67 3.575z"/></symbol><symbol viewBox="0 0 16 16" id="telegram" xmlns="http://www.w3.org/2000/svg"><path d="M14.629 3.698l-2.012 9.618c-.152.679-.548.848-1.11.528l-3.066-2.29-1.48 1.442c-.163.166-.3.305-.616.305l.22-3.165 5.683-5.204c.247-.223-.054-.347-.384-.123L4.839 9.29l-3.024-.959c-.658-.208-.67-.667.137-.986L13.78 2.727c.548-.208 1.027.124.849.971z"/></symbol><symbol viewBox="0 0 16 16" id="viber" xmlns="http://www.w3.org/2000/svg"><path d="M8 1.335c-1.071.013-3.374.19-4.662 1.37-.958.948-1.292 2.35-1.331 4.084-.033 1.728-.072 4.973 3.058 5.856v1.346s-.02.538.337.648c.438.14.688-.275 1.105-.72l.778-.879c2.142.178 3.782-.232 3.97-.293.435-.139 2.883-.451 3.283-3.696.41-3.351-.2-5.463-1.301-6.418h-.007c-.332-.306-1.668-1.279-4.652-1.29 0 0-.222-.014-.578-.008zm.037.942a7.02 7.02 0 01.488.011c2.527.007 3.732.767 4.017 1.023.927.794 1.405 2.697 1.055 5.495-.332 2.713-2.317 2.885-2.685 3.002-.156.05-1.6.406-3.42.289 0 0-1.356 1.634-1.78 2.055-.067.074-.146.095-.196.085-.071-.018-.093-.107-.089-.229l.013-2.233c-2.655-.733-2.498-3.5-2.47-4.946.033-1.446.304-2.628 1.113-3.43 1.088-.982 3.043-1.115 3.953-1.122zm.2 1.446a.166.166 0 100 .332 3.136 3.136 0 012.242.883c.606.588.9 1.378.912 2.411 0 .092.074.167.167.167V7.51a.167.167 0 00.168-.165 3.588 3.588 0 00-1.009-2.646c-.66-.645-1.496-.977-2.48-.977zm-2.198.382a.523.523 0 00-.342.067H5.69a2.61 2.61 0 00-.637.523 1.003 1.003 0 00-.256.525.71.71 0 00.026.302l.01.006c.172.504.396.988.67 1.444a8.48 8.48 0 001.29 1.762l.015.022.024.017.015.018.017.015c.532.505 1.127.94 1.769 1.295.734.4 1.18.588 1.447.667v.004c.078.024.15.034.221.034.228-.016.444-.109.613-.262a2.53 2.53 0 00.517-.638v-.004c.128-.241.085-.469-.1-.623-.37-.323-.77-.61-1.195-.857-.285-.155-.574-.061-.69.095l-.25.315c-.129.156-.361.134-.361.134l-.007.004C7.093 8.527 6.63 6.772 6.63 6.772s-.022-.239.139-.36l.312-.252c.15-.122.254-.41.094-.695a7.498 7.498 0 00-.856-1.194.475.475 0 00-.28-.167zm2.486.495c-.221 0-.221.334.003.334A2.098 2.098 0 0110 5.572 1.94 1.94 0 0110.5 7a.168.168 0 00.167.165l.007.009a.169.169 0 00.167-.167c.015-.662-.191-1.218-.595-1.663C9.84 4.9 9.273 4.65 8.549 4.6h-.024zm.274.898c-.228-.006-.236.335-.01.341.55.029.816.306.851.877a.166.166 0 00.165.163h.007a.168.168 0 00.16-.178c-.039-.744-.445-1.164-1.166-1.202H8.8z"/></symbol><symbol viewBox="0 0 24 24" id="vk" xmlns="http://www.w3.org/2000/svg"><path d="M21.579 6.855c.14-.465 0-.806-.662-.806h-2.193c-.558 0-.813.295-.953.619 0 0-1.115 2.719-2.695 4.482-.51.513-.743.675-1.021.675-.139 0-.341-.162-.341-.627V6.855c0-.558-.161-.806-.626-.806H9.642c-.348 0-.558.258-.558.504 0 .528.79.65.871 2.138v3.228c0 .707-.127.836-.407.836-.743 0-2.551-2.73-3.624-5.853-.209-.607-.42-.852-.98-.852H2.752c-.627 0-.752.295-.752.619 0 .582.743 3.462 3.461 7.27 1.812 2.602 4.363 4.012 6.687 4.012 1.393 0 1.565-.313 1.565-.853v-1.966c0-.626.133-.752.574-.752.324 0 .882.164 2.183 1.417 1.486 1.486 1.732 2.153 2.567 2.153h2.192c.626 0 .939-.313.759-.931-.197-.615-.907-1.51-1.849-2.57-.512-.603-1.277-1.253-1.51-1.578-.325-.42-.231-.604 0-.976.001 0 2.672-3.761 2.95-5.04z"/></symbol><symbol viewBox="0 0 20 20" id="wallet" xmlns="http://www.w3.org/2000/svg"><path d="M17.5 9.375h-4.375a2.512 2.512 0 00-2.5 2.5c0 1.371 1.129 2.5 2.5 2.5h2.5v1.875a.628.628 0 01-.625.625H5A1.884 1.884 0 013.125 15V5.625c0-1.029.846-1.875 1.875-1.875h1.25a.628.628 0 00.625-.625.628.628 0 00-.625-.625H5a3.14 3.14 0 00-3.125 3.125V15A3.14 3.14 0 005 18.125h10a1.884 1.884 0 001.875-1.875v-1.875h.625a.628.628 0 00.625-.625V10a.628.628 0 00-.625-.625zm-.625 3.75h-3.75c-.686 0-1.25-.564-1.25-1.25s.564-1.25 1.25-1.25h3.75v2.5z"/><path d="M4.775 5.044C4.078 5.348 4.308 6.25 5 6.25h10c.343 0 .625.282.625.625V7.5c0 .343.282.625.625.625a.628.628 0 00.625-.625v-.625A1.876 1.876 0 0015 5h-.2l-1.094-2.731a.628.628 0 00-.806-.35L4.775 5.044zM13.45 5H8.37l4.406-1.694L13.45 5z"/></symbol><symbol viewBox="0 0 16 16" id="whatsapp" xmlns="http://www.w3.org/2000/svg"><path fill-rule="evenodd" clip-rule="evenodd" d="M12.269 3.755A5.947 5.947 0 008.035 2 5.994 5.994 0 002.05 7.985a5.98 5.98 0 00.799 2.992L2 14.077l3.173-.832c.877.477 1.86.728 2.86.728h.002a5.993 5.993 0 005.533-8.276 5.953 5.953 0 00-1.3-1.942zm-4.234 9.208h-.002c-.89 0-1.765-.24-2.532-.694l-.181-.108-1.883.494.502-1.835-.118-.188a4.965 4.965 0 01-.76-2.647 4.982 4.982 0 016.88-4.597c.604.25 1.152.618 1.613 1.081a4.946 4.946 0 011.455 3.52 4.982 4.982 0 01-4.974 4.974zm2.729-3.726c-.15-.075-.885-.436-1.022-.486-.137-.05-.236-.075-.336.074-.1.15-.387.486-.474.586-.087.1-.175.112-.324.038-.15-.075-.631-.233-1.203-.742a4.505 4.505 0 01-.832-1.036c-.087-.15-.009-.231.066-.306.068-.066.15-.174.224-.262.075-.087.1-.149.15-.249.05-.1.025-.187-.013-.262-.037-.075-.337-.811-.461-1.11-.121-.29-.244-.252-.336-.256a6.418 6.418 0 00-.286-.005.55.55 0 00-.4.186c-.137.15-.523.512-.523 1.248s.536 1.447.61 1.547c.075.1 1.055 1.61 2.555 2.258.358.154.636.246.853.315.358.114.684.098.942.06.287-.043.885-.362 1.01-.711.124-.35.124-.649.087-.711-.038-.063-.138-.101-.287-.176z"/></symbol></svg>