<?xml version="1.0" encoding="utf-8"?><svg xmlns="http://www.w3.org/2000/svg" xmlns:xlink="http://www.w3.org/1999/xlink"><symbol viewBox="0 0 36 36" id="add" xmlns="http://www.w3.org/2000/svg"><path fill-rule="evenodd" clip-rule="evenodd" d="M16.815 3.052c-2.81.296-5.399 2.084-6.708 4.633-.354.69-.7 1.673-.843 2.397-.134.678-.116 2.534.032 3.213.352 1.624 1.083 3.026 2.19 4.205.28.298.683.67.896.828.387.287.464.382.31.382-.181 0-1.654.782-2.372 1.26-3.813 2.536-6.048 6.457-6.307 11.068-.063 1.116.098 1.518.737 1.844.32.163.917.156 1.242-.015.533-.282.732-.687.732-1.49 0-.668.157-1.821.346-2.55a11.295 11.295 0 012.688-4.887 10.722 10.722 0 013.302-2.428 11.2 11.2 0 018.47-.562c.533.176 1.678.704 2.42 1.117.448.25.98.25 1.357.002.388-.257.604-.618.636-1.065.035-.49-.066-.768-.39-1.066-.283-.261-1.487-.9-2.25-1.195l-.456-.175.36-.301a10.726 10.726 0 001.602-1.732c.672-.95 1.229-2.298 1.431-3.46.13-.742.13-2.077.002-2.876-.416-2.585-2.14-4.965-4.48-6.187-.785-.41-1.16-.555-1.915-.744a8.299 8.299 0 00-3.032-.216zm2.409 2.852c.565.149 1.42.532 1.87.84 1.786 1.22 2.784 3.452 2.506 5.598-.315 2.42-1.942 4.301-4.313 4.981-.66.19-2.304.209-2.937.034-1.13-.313-2.097-.868-2.816-1.617-1.115-1.162-1.655-2.489-1.658-4.067-.002-1.167.177-1.89.714-2.892a5.8 5.8 0 013.783-2.89c.692-.162.715-.164 1.559-.14.533.015.96.066 1.292.153zm7.782 16.191a1.377 1.377 0 00-.77.715c-.146.314-.152.381-.153 1.802v1.477l-1.546.02c-1.515.02-1.553.023-1.863.183-.755.389-.954 1.438-.394 2.076.382.436.52.464 2.258.466l1.545.001v1.455c0 1.54.027 1.73.304 2.103.471.634 1.72.604 2.163-.052.236-.351.27-.612.27-2.089v-1.417h1.45c.864 0 1.55-.029 1.703-.071.15-.042.363-.18.517-.334.713-.714.387-2.019-.565-2.259-.18-.045-.839-.074-1.695-.074h-1.4l-.021-1.544-.02-1.544-.177-.301c-.312-.531-1.056-.815-1.606-.613z"/></symbol><symbol viewBox="0 0 20 20" id="add-more" xmlns="http://www.w3.org/2000/svg"><path d="M13.854 3.02a2.711 2.711 0 012.709 2.709v8.125a2.711 2.711 0 01-2.708 2.708H5.729a2.711 2.711 0 01-2.708-2.709V5.73A2.711 2.711 0 015.73 3.02h8.125zm0-1.354H5.73a4.062 4.062 0 00-4.062 4.063v8.125a4.062 4.062 0 004.062 4.062h8.125a4.062 4.062 0 004.063-4.063V5.73a4.062 4.062 0 00-4.063-4.063z"/><path d="M9.792 13.854a.677.677 0 01-.677-.678v-6.77a.677.677 0 011.354 0v6.77a.677.677 0 01-.677.678z"/><path d="M5.73 9.79c0-.373.302-.677.677-.677h6.77a.677.677 0 010 1.354h-6.77a.677.677 0 01-.678-.677z"/></symbol><symbol viewBox="0 0 36 36" id="add2" xmlns="http://www.w3.org/2000/svg"><path fill-rule="evenodd" clip-rule="evenodd" d="M29.323 2.169c-.372.174-.486.29-.66.673-.117.26-.128.413-.13 1.755l-.001 1.472H27.06c-1.412 0-1.485.007-1.788.15-.372.174-.486.29-.66.673-.221.489-.151.995.195 1.415.37.448.516.48 2.22.481l1.504.002v1.44c0 .791.028 1.539.062 1.66.034.122.153.332.264.467.496.602 1.39.652 1.974.112.399-.37.42-.484.42-2.158V8.79h1.523c1.65 0 1.72-.013 2.107-.371.58-.538.56-1.487-.042-2.015a1.456 1.456 0 00-.469-.268c-.134-.038-.87-.067-1.678-.067h-1.44l-.002-1.503c-.001-1.692-.03-1.834-.461-2.212-.41-.36-.95-.428-1.467-.185zM14.61 6.167c-.226.049-.65.206-.942.35-.457.226-.657.385-1.424 1.131-.491.478-.993.923-1.115.988-.195.105-.424.124-1.961.158-1.786.04-1.895.054-2.56.342-.763.332-1.541 1.094-1.939 1.9-.452.918-.435.574-.436 8.58-.001 6.962.003 7.204.124 7.68.206.804.47 1.264 1.076 1.877.413.418.65.599 1.014.777.99.485.044.444 10.979.468 7.082.015 9.948 0 10.312-.051 1.545-.221 2.726-1.183 3.317-2.704l.166-.427.018-5.35.017-5.35-.147-.282c-.18-.343-.626-.661-1.006-.718a1.38 1.38 0 00-1.142.387c-.452.464-.43.158-.43 5.681 0 5.434.015 5.22-.366 5.622a1.814 1.814 0 01-.406.3c-.228.118-.514.122-9.998.12-9.361-.001-9.775-.006-10.022-.118a1.363 1.363 0 01-.725-.921c-.048-.223-.063-2.408-.05-7.218l.02-6.897.142-.266c.158-.295.444-.534.77-.643.135-.045.747-.072 1.645-.073 1.673-.002 2.066-.063 2.847-.448.457-.226.657-.384 1.424-1.131.491-.478.993-.923 1.114-.989.206-.112.424-.123 3.101-.152 3.211-.036 3.087-.018 3.476-.49.352-.425.411-.929.171-1.44-.175-.372-.29-.486-.674-.66-.272-.123-.399-.128-3.131-.125-2.187.003-2.943.024-3.26.092zm1.772 6.794c-1.016.228-1.97.66-2.705 1.227-.475.366-1.253 1.186-1.543 1.626-.827 1.256-1.174 2.52-1.116 4.064.065 1.743.721 3.257 1.944 4.482a6.752 6.752 0 009.439.14c.613-.58 1.018-1.134 1.417-1.947.757-1.54.907-3.199.437-4.823-.67-2.309-2.472-4.067-4.824-4.705-.723-.196-2.312-.229-3.05-.064zm2.563 2.79c.645.199 1.21.558 1.712 1.087.748.79 1.104 1.682 1.104 2.77 0 1.837-1.26 3.436-3.067 3.894-.85.215-2.034.064-2.838-.362-.49-.26-1.243-.967-1.527-1.434a4.013 4.013 0 01.593-4.947 4.132 4.132 0 011.966-1.104c.556-.125 1.48-.082 2.057.096z"/></symbol><symbol viewBox="0 0 24 24" id="alarm" xmlns="http://www.w3.org/2000/svg"><path d="M20.507 16.88a.781.781 0 10-1.536.287.773.773 0 01-.167.645.77.77 0 01-.601.282H6.344a.77.77 0 01-.6-.282.773.773 0 01-.168-.645c.222-1.182.666-1.96 1.096-2.712.523-.914 1.063-1.858 1.063-3.314V9.969A4.549 4.549 0 0112.2 5.438h.147c2.454.036 4.45 2.067 4.45 4.53v1.173c0 1.239.406 2.091.785 2.793a.781.781 0 101.375-.743c-.378-.699-.597-1.258-.597-2.05V9.969a6.064 6.064 0 00-1.754-4.276 6.034 6.034 0 00-3.559-1.77V2.781a.781.781 0 10-1.562 0v1.144C8.498 4.313 6.172 6.89 6.172 9.97v1.172c0 1.04-.378 1.701-.856 2.538-.471.825-1.005 1.759-1.276 3.2a2.339 2.339 0 00.5 1.93 2.336 2.336 0 001.804.847h3.593A2.346 2.346 0 0012.281 22a2.346 2.346 0 002.344-2.344h3.578c.7 0 1.357-.308 1.803-.846a2.34 2.34 0 00.5-1.93zm-8.226 3.558a.782.782 0 01-.781-.782h1.562c0 .431-.35.782-.781.782z"/></symbol><symbol viewBox="0 0 24 24" id="avatar" xmlns="http://www.w3.org/2000/svg"><path d="M5.625 9.188c0 3.506 2.869 6.374 6.375 6.374s6.375-2.868 6.375-6.374c0-3.507-2.869-6.376-6.375-6.376s-6.375 2.87-6.375 6.376zm11.25 0A4.89 4.89 0 0112 14.061a4.89 4.89 0 01-4.875-4.874A4.89 4.89 0 0112 4.311a4.89 4.89 0 014.875 4.875zm-12.3 13.199A10.408 10.408 0 0112 19.313c2.813 0 5.438 1.088 7.425 3.075l1.069-1.068A12.004 12.004 0 0012 17.813a12.004 12.004 0 00-8.494 3.506l1.07 1.069z"/></symbol><symbol viewBox="0 0 22 24" id="basket" xmlns="http://www.w3.org/2000/svg"><g clip-path="url(#afa)"><path d="M10.363 18.443a2.046 2.046 0 00-2.045 2.042 2.046 2.046 0 004.09 0 2.046 2.046 0 00-2.045-2.042zm6.134 0a2.046 2.046 0 00-2.045 2.042 2.046 2.046 0 004.089 0 2.046 2.046 0 00-2.044-2.042zm3.978-8.199L7.413 6.891a.614.614 0 00-.75.73L8.67 16.4h-.786L5.482 5.895a.613.613 0 00-.474-.464l-4.27-.882A.614.614 0 00.489 5.75l3.885.802L6.797 17.15a.613.613 0 00.598.477h12.07a.615.615 0 00.607-.53l.858-6.175a.613.613 0 00-.455-.678zm-8.14 3.91a.613.613 0 01-1.227 0v-2.696a.613.613 0 011.227 0v2.696zm2.625 0a.613.613 0 01-1.227 0v-1.88a.613.613 0 011.227 0v1.88zm2.625 0a.613.613 0 01-1.227 0v-1.226a.613.613 0 011.227 0v1.226z"/></g><path fill-rule="evenodd" clip-rule="evenodd" d="M16.268 4.568a2.996 2.996 0 00-1.693-.523c-.627 0-1.21.193-1.693.523-.28-.843-.492-1.752-.492-2.383C12.39.98 13.37 0 14.575 0s2.185.98 2.185 2.185c0 .631-.212 1.54-.492 2.383zm-4.722 2.274l.024.006v-.011l-.024.005zm4.972 1.217c-1.333-.33-2.766-.681-4.129-1.013a2.185 2.185 0 114.129 1.013zm4.436 1.103c-.866-.217-2.155-.538-3.618-.9a2.995 2.995 0 00.243-1.425c.87.18 1.762.45 2.308.765.596.344.969.928 1.067 1.56zM9.869 6.439c-.36-.086-.706-.167-1.03-.243a2.19 2.19 0 01-.376-2.667 2.188 2.188 0 013.147-.7c.098.738.338 1.599.61 2.353a3.01 3.01 0 00-.449.774c-.628.113-1.305.278-1.902.483zm10.124.075a3.43 3.43 0 01-.217.114c-.696-.295-1.587-.526-2.397-.672a3.01 3.01 0 00-.449-.774c.262-.727.494-1.553.599-2.273.095-.067.189-.128.278-.18a2.188 2.188 0 012.986.8 2.188 2.188 0 01-.8 2.985z"/><defs><clipPath id="afa"><path transform="translate(0 3.064)" d="M0 0h20.936v20.936H0z"/></clipPath></defs></symbol><symbol viewBox="0 0 24 24" id="book" xmlns="http://www.w3.org/2000/svg"><path fill-rule="evenodd" clip-rule="evenodd" d="M4.923 1.05c-.873.24-1.512.865-1.828 1.786-.126.368-.127 17.942 0 18.313.286.84.846 1.431 1.641 1.731l.255.096 7.201.012 7.201.012.346-.107a2.608 2.608 0 001.809-2.2c.033-.327.043-.324-.344-.085a4.294 4.294 0 01-1.9.627c-.626.06-13.577.057-13.862-.004-.89-.19-.89-1.434 0-1.625.155-.033 2.258-.047 7.094-.047h6.874l.339-.107c.816-.258 1.415-.868 1.713-1.742.126-.369.126-14.505 0-14.874-.286-.84-.847-1.431-1.642-1.731l-.255-.096L12.343 1c-5.738-.005-7.263.005-7.42.048zm14.192 1.704a.88.88 0 01.606.49c.075.164.078.488.078 7.029 0 7.688.028 7.04-.31 7.337-.269.235-.064.23-7.464.23-5.77 0-6.901.009-7.07.06l-.2.06.001-7.272c0-6.987.004-7.279.08-7.444a.85.85 0 01.551-.476c.277-.074 13.384-.088 13.728-.014zM11.44 5.2c-1.312.353-2.343 1.632-2.343 2.906v.146h1.751l.026-.191c.18-1.32 2.046-1.628 2.63-.436.34.697.183 1.062-.966 2.24-.91.932-1.159 1.386-1.162 2.117v.182h1.762v-.108c0-.234.14-.425.785-1.064 1.163-1.154 1.536-1.897 1.48-2.959-.1-1.941-2.063-3.344-3.963-2.833zm-.065 9.114v.86h1.763v-1.72h-1.763v.86z"/></symbol><symbol viewBox="0 0 24 24" id="btn-i-1" xmlns="http://www.w3.org/2000/svg"><path d="M13.313 4.913a1.312 1.312 0 10-2.626 0c0 .594.397 1.089.938 1.251v.999a.375.375 0 10.75 0v-.999a1.31 1.31 0 00.938-1.251zM12 5.475a.564.564 0 010-1.125.564.564 0 010 1.125z"/><path d="M20.811 15.946a8.812 8.812 0 00-17.623 0h17.623zM6.368 10.954a5.52 5.52 0 012.513-1.71.375.375 0 11.237.712 4.766 4.766 0 00-2.133 1.429 4.06 4.06 0 00-.637.979.375.375 0 01-.697-.278c.011-.026.214-.528.717-1.133zm-4.303 5.742L4.19 18.82c.27.268.63.482 1.014.643.385.158.791.26 1.172.262h11.25c.38-.001.787-.104 1.172-.262.384-.16.743-.375 1.013-.643l2.124-2.124H2.065z"/></symbol><symbol viewBox="0 0 24 24" id="btn-i-2" xmlns="http://www.w3.org/2000/svg"><path d="M23.46 12.278H.54a.541.541 0 00-.494.759l1.667 3.77a.54.54 0 00.494.322h13.01a.54.54 0 00.494-.322l1.525-3.449h6.224a.54.54 0 100-1.08zm-8.23 2.076l-.473 1.07a.46.46 0 01-.42.273h-3.533a.46.46 0 010-.918h3.234l.352-.796a.46.46 0 11.84.371zm1.21-3.866a10.77 10.77 0 00-3.457-2.049 12.1 12.1 0 00-2.81-.666v-.39c0-.734-.603-1.341-1.373-1.38a1.696 1.696 0 00-.176 0c-.77.039-1.373.646-1.373 1.38v.39a12.1 12.1 0 00-2.81.666 10.77 10.77 0 00-3.456 2.048.54.54 0 00.359.944H16.08a.541.541 0 00.36-.944z"/></symbol><symbol viewBox="0 0 24 24" id="btn-i-3" xmlns="http://www.w3.org/2000/svg"><path d="M11.714 13.286A4.286 4.286 0 017.43 9h1.714a2.572 2.572 0 005.143 0H16a4.286 4.286 0 01-4.286 4.286zm0-8.572a2.572 2.572 0 012.572 2.572H9.143a2.571 2.571 0 012.571-2.572zm6 2.572H16a4.287 4.287 0 00-7.316-3.03 4.286 4.286 0 00-1.255 3.03H5.714C4.763 7.286 4 8.049 4 9v10.286A1.714 1.714 0 005.714 21h12a1.714 1.714 0 001.715-1.714V9c0-.951-.772-1.714-1.715-1.714z"/></symbol><symbol viewBox="0 0 24 24" id="btn-i-4" xmlns="http://www.w3.org/2000/svg"><path d="M2.625 17.75h7.5c.345 0 .625-.21.625-.469v-.937c0-.26-.28-.469-.625-.469h-7.5c-.345 0-.625.21-.625.469v.937c0 .259.28.47.625.47zm0 2.5h7.5c.345 0 .625-.21.625-.469v-.937c0-.259-.28-.469-.625-.469h-7.5c-.345 0-.625.21-.625.469v.937c0 .26.28.47.625.47zm0-5h7.5c.345 0 .625-.21.625-.469v-.937c0-.259-.28-.47-.625-.47h-7.5c-.345 0-.625.211-.625.47v.937c0 .259.28.469.625.469zm9.348-.25c.01-.073.027-.144.027-.22v-.937c0-.965-.823-1.719-1.875-1.719h-2.5A3.125 3.125 0 1111.973 15zM2 6.5h17.5v11.25h-7.574a1.65 1.65 0 00.074-.469V16.5h3.75a2.5 2.5 0 012.5-2.5v-3.75a2.5 2.5 0 01-2.5-2.5h-10a2.5 2.5 0 01-2.5 2.5v1.875h-.625c-.222 0-.43.04-.625.101V6.5zM22 4v12.5h-1.25V5.25H3.25V4H22z"/></symbol><symbol viewBox="0 0 24 24" id="btn-i-5" xmlns="http://www.w3.org/2000/svg"><g clip-path="url(#ala)" stroke-width="2" stroke-linecap="round" stroke-linejoin="round"><path d="M12 21a9 9 0 100-18 9 9 0 000 18zM9 10h.01M15 10h.01M9.5 15.25a3.5 3.5 0 015 0"/></g><defs><clipPath id="ala"><path d="M0 0h24v24H0z"/></clipPath></defs></symbol><symbol viewBox="0 0 24 24" id="category" xmlns="http://www.w3.org/2000/svg"><path d="M10.457 2h-6.02A2.44 2.44 0 002 4.438v6.019c0 .384.312.696.696.696h7.76a.697.697 0 00.697-.696v-7.76A.697.697 0 0010.457 2zM9.76 9.76H3.393V4.438c0-.576.469-1.045 1.045-1.045H9.76V9.76zM19.063 2h-6.02a.696.696 0 00-.696.696v7.76c0 .385.311.697.696.697h7.76a.696.696 0 00.697-.696v-6.02A2.44 2.44 0 0019.063 2zm1.044 7.76H13.74V3.393h5.323c.576 0 1.044.469 1.044 1.045V9.76zm-9.65 2.588h-7.76a.696.696 0 00-.697.696v6.02A2.44 2.44 0 004.438 21.5h6.019a.696.696 0 00.696-.697v-7.76a.697.697 0 00-.696-.696zm-.697 7.76H4.438a1.046 1.046 0 01-1.045-1.045v-5.322H9.76v6.367zM21.07 12.4a.698.698 0 00-.759.152l-7.76 7.76a.696.696 0 00.492 1.188h6.02a2.44 2.44 0 002.437-2.438v-6.019a.695.695 0 00-.43-.643zm-.963 6.662c0 .576-.469 1.045-1.044 1.045h-4.339l5.383-5.383v4.338z"/></symbol><symbol viewBox="0 0 24 24" id="chat" xmlns="http://www.w3.org/2000/svg"><path fill-rule="evenodd" clip-rule="evenodd" d="M3.18 1.076a2.747 2.747 0 00-2.101 2.13c-.114.55-.1 14.323.014 14.575a.634.634 0 00.867.327c.104-.047 1.071-.822 2.15-1.723l1.96-1.636h5.139c5.696 0 5.502.008 6.1-.28a2.715 2.715 0 001.5-1.922c.102-.494.103-8.842 0-9.342a2.733 2.733 0 00-2.133-2.132c-.481-.1-13.027-.097-13.496.003zm13.51 1.438c.305.143.536.373.679.678l.112.24v8.89l-.112.24a1.382 1.382 0 01-.678.678l-.24.113-5.412.021c-4.952.02-5.422.028-5.54.093-.07.04-.79.625-1.6 1.3a67.471 67.471 0 01-1.492 1.227c-.062 0-.02-12.4.042-12.61a1.35 1.35 0 01.894-.925c.212-.073.554-.077 6.665-.068l6.443.01.24.113zM5.528 5.2c-.508.25-.503.989.007 1.231.227.108 8.59.108 8.818 0a.686.686 0 000-1.233c-.227-.108-8.606-.106-8.825.002zm14.43 1.374c-.675.333-.447 1.206.34 1.305.578.073.975.342 1.194.81l.112.24.012 5.958c.006 3.278.001 5.96-.011 5.96s-.55-.422-1.194-.938c-.644-.515-1.21-.954-1.256-.977-.05-.024-2.124-.049-5.152-.061l-5.068-.022-.24-.112c-.582-.273-.778-.646-.81-1.545-.031-.832-.237-1.118-.76-1.059-.455.052-.617.329-.617 1.06 0 1.359.548 2.308 1.613 2.797.566.26.456.255 5.719.255h4.801l1.659 1.326c1.915 1.532 2 1.578 2.405 1.29.316-.225.293.336.294-7.138.001-7.846.039-7.314-.571-8.135-.564-.76-1.885-1.302-2.47-1.014zM5.529 7.949c-.508.25-.503.99.007 1.232.226.107 5.843.107 6.07 0a.686.686 0 000-1.234c-.227-.107-5.86-.105-6.077.002z"/></symbol><symbol viewBox="0 0 12 12" id="check" xmlns="http://www.w3.org/2000/svg"><path d="M11.154 2.174l-.685-.552c-.337-.271-.534-.268-.823.09l-4.98 6.145L2.35 5.93c-.32-.268-.52-.254-.783.074l-.529.689c-.268.338-.234.53.084.794l3.302 2.732c.34.286.532.256.795-.063l6.022-7.16c.283-.34.266-.544-.086-.823z"/></symbol><symbol viewBox="0 0 24 24" id="check_star" xmlns="http://www.w3.org/2000/svg"><path d="M22.51 13.76a3 3 0 010-3.52l.76-1.05a1 1 0 00-.105-1.295 1.018 1.018 0 00-.395-.245l-1.23-.4a2.987 2.987 0 01-2.07-2.85V3.1a1 1 0 00-1.31-.95l-1.24.4a3 3 0 01-3.35-1.09L12.81.41a1.036 1.036 0 00-1.62 0l-.76 1.05a3 3 0 01-3.35 1.09l-1.24-.4a1 1 0 00-1.31.95v1.3a2.987 2.987 0 01-2.07 2.85l-1.23.4a1.018 1.018 0 00-.64.64 1 1 0 00.14.9l.76 1.05a3 3 0 010 3.52l-.76 1.05a1 1 0 00.5 1.54l1.23.4a2.988 2.988 0 012.07 2.85v1.3a1 1 0 001.31.95l1.23-.4a2.994 2.994 0 013.36 1.09l.76 1.05a1.005 1.005 0 001.62 0l.76-1.05a3 3 0 013.36-1.09l1.23.4a1 1 0 001.31-.95v-1.3a2.987 2.987 0 012.07-2.85l1.23-.4a1.018 1.018 0 00.64-.64 1 1 0 00-.14-.9l-.76-1.05zm-5.8-3.053l-5 5a1 1 0 01-1.414 0l-3-3a1 1 0 111.414-1.414L11 13.586l4.293-4.293a1 1 0 011.414 1.414h.003z"/></symbol><symbol viewBox="0 0 12 12" id="chevron-down" xmlns="http://www.w3.org/2000/svg"><path d="M11 3.758a.711.711 0 00-1.26-.468L6.01 7.642 2.284 3.29a.711.711 0 10-1.076.924L5.47 9.197a.711.711 0 001.082 0l4.268-4.983a.712.712 0 00.18-.456z"/></symbol><symbol viewBox="0 0 12 12" id="chevron-left" xmlns="http://www.w3.org/2000/svg"><path d="M8.242 1a.711.711 0 01.468 1.26L4.358 5.99 8.71 9.716a.711.711 0 11-.924 1.076L2.803 6.53a.711.711 0 010-1.082L7.786 1.18A.711.711 0 018.242 1z"/></symbol><symbol viewBox="0 0 12 12" id="chevron-right" xmlns="http://www.w3.org/2000/svg"><g clip-path="url(#asa)"><path d="M3.535 11.223a.711.711 0 01-.468-1.26l4.352-3.728-4.352-3.727A.711.711 0 113.99 1.43l4.983 4.263a.711.711 0 010 1.082L3.99 11.044a.711.711 0 01-.456.18v-.001z"/></g><defs><clipPath id="asa"><path transform="rotate(90 6 6)" d="M0 0h12v12H0z"/></clipPath></defs></symbol><symbol viewBox="0 0 12 12" id="chevron-up" xmlns="http://www.w3.org/2000/svg"><path d="M11 8.242a.711.711 0 01-1.26.468L6.01 4.358 2.284 8.71a.711.711 0 11-1.076-.924L5.47 2.803a.711.711 0 011.082 0l4.268 4.983a.712.712 0 01.179.456z"/></symbol><symbol viewBox="0 0 16 16" id="close" xmlns="http://www.w3.org/2000/svg"><path d="M16 1.6L14.4 0 8 6.4 1.6 0 0 1.6 6.4 8 0 14.4 1.6 16 8 9.6l6.4 6.4 1.6-1.6L9.6 8 16 1.6z"/></symbol><symbol viewBox="0 0 20 20" id="copy" xmlns="http://www.w3.org/2000/svg"><path d="M13.454 1H3.636C2.736 1 2 1.736 2 2.636v11.455h1.636V2.636h9.819V1zm2.455 3.273h-9c-.9 0-1.636.736-1.636 1.636v11.455c0 .9.736 1.636 1.636 1.636h9c.9 0 1.636-.736 1.636-1.636V5.909c0-.9-.736-1.636-1.636-1.636zm0 13.09h-9V5.91h9v11.455z"/></symbol><symbol viewBox="0 0 24 24" id="currency-rub" xmlns="http://www.w3.org/2000/svg"><path d="M13 15.4H8.6c-.33 0-.6-.27-.6-.6 0-.33.27-.6.6-.6H13c.33 0 .6.27.6.6 0 .33-.27.6-.6.6z"/><path d="M10.2 17c-.33 0-.6-.27-.6-.6v-3h-1c-.33 0-.6-.27-.6-.6 0-.33.27-.6.6-.6h1V7.6c0-.33.27-.6.6-.6h3c1.765 0 3.2 1.435 3.2 3.2 0 1.765-1.435 3.2-3.2 3.2h-2.4v3c0 .33-.27.6-.6.6zm.6-4.8h2.4a2 2 0 100-4h-2.4v4z"/><path d="M12 2a10 10 0 100 20 10 10 0 000-20zm0 18.333a8.333 8.333 0 110-16.666 8.333 8.333 0 010 16.666z"/></symbol><symbol viewBox="0 0 20 20" id="delete" xmlns="http://www.w3.org/2000/svg"><path d="M16.25 4.375h-3.125V2.5a.625.625 0 00-.625-.625h-5a.625.625 0 00-.625.625v1.875H3.75a.625.625 0 000 1.25h12.5a.625.625 0 100-1.25zm-8.125-1.25h3.75v1.25h-3.75v-1.25zM15 6.875a.625.625 0 00-.625.625v8.75a.625.625 0 01-.625.625h-7.5a.625.625 0 01-.625-.625V7.5a.625.625 0 00-1.25 0v8.75a1.877 1.877 0 001.875 1.875h7.5a1.877 1.877 0 001.875-1.875V7.5A.625.625 0 0015 6.875z"/><path d="M9.388 13.75v-5a.625.625 0 00-1.25 0v5a.625.625 0 101.25 0zm2.475 0v-5a.625.625 0 00-1.25 0v5a.624.624 0 101.25 0z"/></symbol><symbol viewBox="0 0 24 24" id="document" xmlns="http://www.w3.org/2000/svg"><path d="M15.716 16.223h-7.22m7.22-4.186h-7.22M11.25 7.86H8.497"/><path clip-rule="evenodd" d="M15.909 2.75l-7.69.004C5.46 2.77 3.75 4.587 3.75 7.357v9.196c0 2.784 1.722 4.607 4.506 4.607l7.69-.003c2.76-.017 4.47-1.834 4.47-4.604V7.357c0-2.784-1.724-4.607-4.508-4.607z"/></symbol><symbol viewBox="0 0 24 24" id="dots" xmlns="http://www.w3.org/2000/svg"><circle cx="12.5" cy="5.5" r="1.5"/><circle cx="12.5" cy="11.5" r="1.5"/><circle cx="12.5" cy="17.5" r="1.5"/></symbol><symbol viewBox="0 0 14 14" id="download" xmlns="http://www.w3.org/2000/svg"><path d="M12.53 4.941H9.234V0h-4.94v4.941H1l5.765 5.765 5.764-5.765zM1 12.353V14h11.53v-1.647H1z"/></symbol><symbol viewBox="0 0 16 16" id="edit" xmlns="http://www.w3.org/2000/svg"><path d="M13.823 5.597c.328-.327.51-.764.51-1.228 0-.465-.18-.902-.51-1.23l-1.295-1.294a1.72 1.72 0 00-1.231-.513c-.465 0-.901.18-1.229.51L1.992 9.92a2.244 2.244 0 00-.655 1.71l-.003 2.067a.636.636 0 00.635.635l2.067-.002a2.244 2.244 0 001.71-.655.634.634 0 10-.898-.9.982.982 0 01-.754.285l-.04-.002-1.45.005.002-1.45c0-.013 0-.028-.002-.04a.982.982 0 01.284-.755l6.73-6.73 1.96 1.96-5.057 5.057a.634.634 0 10.899.899l6.403-6.406zm-3.306-2.41l.45-.448a.469.469 0 01.665 0l1.295 1.294a.472.472 0 010 .666l-.45.449-1.96-1.96zm3.182 9.876H7.973a.635.635 0 000 1.269H13.7a.635.635 0 000-1.27z"/></symbol><symbol viewBox="0 0 20 20" id="emoji" xmlns="http://www.w3.org/2000/svg"><g clip-path="url(#bca)"><path fill-rule="evenodd" clip-rule="evenodd" d="M9.295.028C1.246.626-2.835 10.022 2.227 16.3c4.922 6.102 14.678 4.365 17.232-3.068C21.767 6.513 16.371-.498 9.295.028zm1.547 1.836c5.782.63 9.104 6.884 6.372 11.993-3.159 5.906-11.678 5.72-14.59-.318-2.763-5.724 1.91-12.362 8.217-11.675zM6.907 6.44a1.139 1.139 0 00-.474.484c-.098.235-.08 2.327.022 2.552a.89.89 0 001.413.292c.287-.26.303-.352.289-1.662L8.144 6.95l-.116-.167c-.245-.35-.76-.508-1.121-.344zm5.456 0a1.139 1.139 0 00-.473.484c-.098.235-.08 2.327.021 2.552.252.553.962.7 1.413.292.288-.26.304-.352.29-1.662L13.6 6.95l-.117-.167c-.244-.35-.759-.508-1.12-.344zm-6.328 5.45c-.775.31-.769 1.042.017 1.861 2.163 2.256 5.61 2.29 7.81.08.814-.819.904-1.398.284-1.834-.46-.322-.816-.214-1.462.443-.874.89-1.516 1.17-2.685 1.17-1.165 0-1.821-.284-2.67-1.153-.582-.598-.885-.73-1.294-.567z"/></g><defs><clipPath id="bca"><path d="M0 0h20v20H0z"/></clipPath></defs></symbol><symbol viewBox="0 0 24 24" id="export" xmlns="http://www.w3.org/2000/svg"><path fill-rule="evenodd" clip-rule="evenodd" d="M11.644 3.059c-.13.046-.592.485-2.076 1.971C8.5 6.1 7.628 7.007 7.588 7.09c-.038.08-.078.227-.09.327-.053.48.405.98.898.982.345 0 .528-.139 1.623-1.24l1.033-1.04.02 4.423c.022 4.42.022 4.422.112 4.591.171.32.419.459.816.459.397 0 .645-.14.816-.459.09-.169.09-.17.111-4.59l.021-4.423 1.033 1.039c1.095 1.101 1.278 1.24 1.623 1.24.46-.002.904-.447.905-.907.001-.372-.088-.478-2.091-2.478-1.294-1.292-1.94-1.908-2.048-1.953-.193-.08-.505-.08-.726-.001zm-7.97 10.739a.834.834 0 00-.595.469c-.074.139-.079.278-.079 2.3 0 1.932.008 2.181.075 2.425.267.97.963 1.665 1.936 1.935.247.068.73.073 6.989.073 6.258 0 6.742-.005 6.989-.073.973-.27 1.669-.965 1.936-1.935.067-.244.075-.493.075-2.425 0-2.022-.005-2.161-.079-2.3-.182-.341-.421-.48-.827-.48-.407 0-.646.139-.828.48-.073.137-.08.3-.1 2.262l-.02 2.113-.102.149a1.15 1.15 0 01-.25.25l-.149.102H5.354l-.148-.102a1.15 1.15 0 01-.25-.25l-.101-.149-.021-2.113c-.02-2.06-.024-2.119-.112-2.283a.754.754 0 00-.377-.373c-.16-.081-.5-.12-.67-.075z"/></symbol><symbol viewBox="0 0 24 24" id="eye" xmlns="http://www.w3.org/2000/svg"><path d="M12 18.75a7.94 7.94 0 01-5.648-2.34l-3.885-3.878a.75.75 0 010-1.065L6.352 7.59a7.988 7.988 0 0111.296 0l3.884 3.877a.751.751 0 010 1.065l-3.884 3.878A7.942 7.942 0 0112 18.75zM4.057 12l3.353 3.352a6.503 6.503 0 009.18 0L19.942 12 16.59 8.647a6.503 6.503 0 00-9.18 0L4.057 12z"/><path d="M12 15a3 3 0 110-5.999A3 3 0 0112 15zm0-4.5a1.5 1.5 0 100 3 1.5 1.5 0 000-3z"/></symbol><symbol viewBox="0 0 24 24" id="faqs" xmlns="http://www.w3.org/2000/svg"><path d="M13 3a10 10 0 100 20 10 10 0 000-20zm0 18.333a8.333 8.333 0 110-16.666 8.333 8.333 0 010 16.666z"/><path d="M13.717 7.25A3.333 3.333 0 009.85 9.433a.817.817 0 00.533 1.05.832.832 0 001.05-.55 1.666 1.666 0 011.9-1.066A1.667 1.667 0 0114.5 10.7a1.667 1.667 0 01-1.667 1.283.834.834 0 00-.933.833v2.6a.833.833 0 00.833.834.814.814 0 00.834-.817V13.6a3.332 3.332 0 002.583-2.617 3.333 3.333 0 00-2.433-3.733zm-1.034 9.733a.883.883 0 00-.833.834V18a.785.785 0 00.817.767.883.883 0 00.833-.867v-.133a.784.784 0 00-.817-.784z"/></symbol><symbol viewBox="0 0 24 24" id="fb" xmlns="http://www.w3.org/2000/svg"><path d="M13.397 20.997v-8.196h2.765l.411-3.209h-3.176V7.548c0-.926.258-1.56 1.587-1.56h1.684v-2.86A22.108 22.108 0 0014.201 3c-2.444 0-4.122 1.492-4.122 4.231v2.355H7.332v3.21h2.753v8.201h3.312z"/></symbol><symbol viewBox="0 0 20 20" id="file" xmlns="http://www.w3.org/2000/svg"><g clip-path="url(#bha)"><path fill-rule="evenodd" clip-rule="evenodd" d="M12.646.607a6.262 6.262 0 00-2.9 1.231c-.522.391-8.731 8.624-8.974 9-.93 1.435-1.024 3.138-.258 4.635.844 1.65 2.584 2.607 4.456 2.448.842-.07 1.589-.353 2.313-.873.13-.094 1.97-1.907 4.09-4.03l3.852-3.86.18-.37c.665-1.377.152-2.947-1.193-3.654-.888-.466-2.066-.37-2.88.234-.099.073-1.29 1.246-2.646 2.606-2.017 2.023-2.476 2.502-2.517 2.63-.251.772.49 1.474 1.214 1.15.134-.061.742-.646 2.597-2.498 2.614-2.61 2.575-2.577 2.989-2.577a.9.9 0 01.898.921c-.001.36.035.32-3.893 4.24-2.424 2.42-3.78 3.745-3.923 3.835-.482.304-.944.431-1.54.426a2.598 2.598 0 01-1.798-.72c-1.009-.943-1.165-2.427-.377-3.572.2-.29 8.167-8.249 8.548-8.539.525-.4 1.327-.737 2.02-.85.352-.057 1.099-.048 1.477.018a4.537 4.537 0 013.564 3.1c.423 1.34.227 2.728-.553 3.933-.135.207-1.166 1.263-4.29 4.394-3.191 3.197-4.132 4.16-4.193 4.297-.347.77.436 1.554 1.208 1.209.137-.062 1.067-.97 4.242-4.15 3.994-3.998 4.32-4.341 4.697-4.96a6.392 6.392 0 00.607-5.375c-.703-2.074-2.44-3.667-4.546-4.17-.734-.174-1.76-.22-2.471-.109z"/></g><defs><clipPath id="bha"><path d="M0 0h20v20H0z"/></clipPath></defs></symbol><symbol viewBox="0 0 20 20" id="filter" xmlns="http://www.w3.org/2000/svg"><g clip-path="url(#bia)"><path d="M9.167 15h1.666a.836.836 0 00.834-.833.836.836 0 00-.834-.834H9.167a.836.836 0 00-.834.834c0 .458.375.833.834.833zM2.5 5.833c0 .459.375.834.833.834h13.334a.836.836 0 00.833-.834.836.836 0 00-.833-.833H3.333a.836.836 0 00-.833.833zm3.333 5h8.334A.836.836 0 0015 10a.836.836 0 00-.833-.833H5.833A.836.836 0 005 10c0 .458.375.833.833.833z"/></g><defs><clipPath id="bia"><path d="M0 0h20v20H0z"/></clipPath></defs></symbol><symbol viewBox="0 0 24 24" id="gift" xmlns="http://www.w3.org/2000/svg"><path d="M20.25 12.75H3.75c-.825 0-1.5-.675-1.5-1.5v-3c0-.825.675-1.5 1.5-1.5h16.5c.825 0 1.5.675 1.5 1.5v3c0 .825-.675 1.5-1.5 1.5zm-16.5-4.5v3h16.5v-3H3.75z"/><path d="M18.75 20.25H5.25c-.825 0-1.5-.675-1.5-1.5V12c0-.412.338-.75.75-.75s.75.338.75.75v6.75h13.5V12c0-.412.337-.75.75-.75s.75.338.75.75v6.75c0 .825-.675 1.5-1.5 1.5z"/><path d="M12 20.25a.752.752 0 01-.75-.75v-12c0-.412.338-.75.75-.75s.75.338.75.75v12c0 .413-.338.75-.75.75z"/><path d="M12 8.25c-.356 0-3.525-.038-4.772-1.284a3.01 3.01 0 010-4.238 3.005 3.005 0 014.247 0c.206.206.384.469.534.769.15-.29.32-.563.535-.769a2.995 2.995 0 012.118-.881c.797 0 1.557.31 2.12.881a2.993 2.993 0 010 4.238C15.524 8.212 12.355 8.25 12 8.25zm2.653-4.903c-.384 0-.769.15-1.06.44-.459.46-.721 1.8-.806 2.935 1.125-.085 2.466-.347 2.935-.806a1.505 1.505 0 000-2.12c-.3-.3-.684-.45-1.069-.45zm-6.366 2.56c.46.459 1.8.721 2.935.805-.085-1.125-.347-2.465-.806-2.934a1.505 1.505 0 00-2.12 0c-.59.6-.59 1.547-.009 2.128z"/></symbol><symbol viewBox="0 0 24 24" id="growth" xmlns="http://www.w3.org/2000/svg"><path d="M2.25 18.75A.75.75 0 003 18V3a.75.75 0 00-1.5 0v15a.75.75 0 00.75.75zm19.5 1.5H2.25a.75.75 0 100 1.5h19.5a.75.75 0 100-1.5zm-16.5-1.5h.12c7.86-1.26 12.067-5.048 13.8-12.563l.247.3a.75.75 0 001.243-.13.75.75 0 00-.088-.83l-1.245-1.5a.61.61 0 00-.105-.09l-.082-.067a.818.818 0 00-.255-.12h-.038a.645.645 0 00-.24 0l-.097.037a.638.638 0 00-.128.045L16.567 4.86a.75.75 0 00-.285 1.027.75.75 0 001.02.285L17.685 6c-1.613 6.787-5.34 10.102-12.555 11.25a.753.753 0 00.12 1.5z"/></symbol><symbol viewBox="0 0 24 24" id="import" xmlns="http://www.w3.org/2000/svg"><path fill-rule="evenodd" clip-rule="evenodd" d="M11.736 3.047a.95.95 0 00-.612.65c-.027.098-.043 1.707-.043 4.469v4.316l-1.106-1.1c-1.21-1.203-1.239-1.224-1.663-1.18a.877.877 0 00-.798.797c-.045.443-.093.384 2.003 2.488 1.115 1.12 1.993 1.968 2.09 2.02.113.06.245.09.4.09.156 0 .288-.03.4-.09.098-.052.977-.9 2.091-2.02 2.097-2.104 2.049-2.045 2.003-2.488a.877.877 0 00-.797-.797c-.425-.044-.454-.023-1.663 1.18l-1.105 1.098-.011-4.4-.012-4.399-.09-.168c-.22-.409-.693-.611-1.087-.466zM3.65 13.829a.948.948 0 00-.617.666c-.03.112-.04.852-.03 2.216.016 2.002.018 2.055.113 2.344.148.451.368.812.696 1.14.337.337.7.555 1.162.699l.316.098h13.436l.316-.098a2.703 2.703 0 001.161-.699c.337-.337.555-.7.699-1.162.097-.313.098-.333.098-2.442 0-1.996-.005-2.137-.079-2.275-.184-.345-.464-.522-.827-.522-.362 0-.643.177-.827.522-.072.137-.08.301-.1 2.218l-.02 2.071-.127.18c-.07.098-.21.223-.311.277l-.186.098H5.493l-.186-.098a1.065 1.065 0 01-.312-.277l-.126-.18-.021-2.07c-.021-2.02-.024-2.076-.112-2.24-.22-.408-.693-.611-1.086-.466z"/></symbol><symbol viewBox="0 0 30 30" id="info_square" xmlns="http://www.w3.org/2000/svg"><path clip-rule="evenodd" d="M26.563 15c0 8.671-2.891 11.562-11.563 11.562-8.671 0-11.562-2.89-11.562-11.562C3.438 6.329 6.329 3.437 15 3.437c8.672 0 11.563 2.892 11.563 11.563z"/><path d="M15.006 19.244v-4.869M15.011 10H15"/></symbol><symbol viewBox="0 0 24 24" id="instagram" xmlns="http://www.w3.org/2000/svg"><path d="M11.999 7.377a4.624 4.624 0 100 9.248 4.624 4.624 0 000-9.248zm0 7.627a3.004 3.004 0 110-6.008 3.004 3.004 0 010 6.008zm4.807-6.719a1.078 1.078 0 100-2.156 1.078 1.078 0 000 2.156z"/><path d="M20.533 6.11A4.605 4.605 0 0017.9 3.48a6.607 6.607 0 00-2.186-.42c-.963-.042-1.268-.054-3.71-.054s-2.755 0-3.71.054a6.554 6.554 0 00-2.184.42 4.6 4.6 0 00-2.633 2.63 6.585 6.585 0 00-.419 2.186c-.043.962-.056 1.267-.056 3.71 0 2.442 0 2.753.056 3.71.015.748.156 1.486.419 2.187a4.61 4.61 0 002.634 2.632 6.583 6.583 0 002.185.45c.963.042 1.268.055 3.71.055s2.755 0 3.71-.055a6.616 6.616 0 002.186-.42 4.613 4.613 0 002.633-2.632c.263-.7.404-1.438.419-2.186.043-.962.056-1.267.056-3.71s0-2.753-.056-3.71a6.583 6.583 0 00-.421-2.217zm-1.218 9.533a5.046 5.046 0 01-.311 1.688 2.987 2.987 0 01-1.712 1.71c-.535.2-1.1.305-1.67.312-.95.044-1.218.055-3.654.055-2.438 0-2.687 0-3.655-.055a4.961 4.961 0 01-1.67-.311 2.984 2.984 0 01-1.718-1.711 5.08 5.08 0 01-.311-1.67c-.043-.95-.053-1.217-.053-3.653 0-2.437 0-2.686.053-3.655a5.038 5.038 0 01.311-1.687c.305-.79.93-1.41 1.719-1.712a5.01 5.01 0 011.669-.311c.95-.043 1.218-.055 3.655-.055s2.687 0 3.654.055a4.96 4.96 0 011.67.31 2.99 2.99 0 011.712 1.713 5.06 5.06 0 01.311 1.669c.043.95.054 1.218.054 3.655 0 2.436 0 2.698-.043 3.654h-.011v-.001z"/></symbol><symbol viewBox="0 0 24 24" id="list" xmlns="http://www.w3.org/2000/svg"><path d="M20.738 10.979H7.494a.762.762 0 100 1.523h13.244a.762.762 0 000-1.524zm0-5.713H7.494a.762.762 0 100 1.523h13.244a.762.762 0 100-1.523zm0 11.425H7.494a.762.762 0 100 1.524h13.244a.762.762 0 100-1.524zM3.028 7.057a1.028 1.028 0 100-2.057 1.028 1.028 0 000 2.057zm0 5.713a1.028 1.028 0 100-2.057 1.028 1.028 0 000 2.057zm0 5.712a1.028 1.028 0 100-2.056 1.028 1.028 0 000 2.056z"/></symbol><symbol viewBox="0 0 16 16" id="mail" xmlns="http://www.w3.org/2000/svg"><path fill-rule="evenodd" clip-rule="evenodd" d="M2.47 3.387a1.585 1.585 0 00-1.09 1.115c-.062.24-.062 7.216 0 7.456.14.541.58.982 1.123 1.123.24.062 10.754.062 10.994 0 .542-.14.983-.582 1.123-1.123.062-.24.062-7.217 0-7.456a1.587 1.587 0 00-1.123-1.123c-.255-.066-10.798-.058-11.026.008zm9.834 1.493c-.37.275-1.488 1.106-2.482 1.847-2.145 1.595-1.5 1.595-3.644 0L3.696 4.88l-.674-.501h9.956l-.674.5zm-7.03 2.513c3.116 2.317 2.393 2.5 8.25-2.084l.097-.077-.007 3.223-.007 3.222-.072.123a.555.555 0 01-.195.195l-.123.073H2.783l-.123-.073a.555.555 0 01-.195-.195l-.072-.123-.007-3.222-.008-3.223.099.077c.054.042 1.313.98 2.798 2.084z"/></symbol><symbol viewBox="0 0 24 24" id="more" xmlns="http://www.w3.org/2000/svg"><path d="M16.625 3.625a3.253 3.253 0 013.25 3.25v9.75a3.253 3.253 0 01-3.25 3.25h-9.75a3.253 3.253 0 01-3.25-3.25v-9.75a3.253 3.253 0 013.25-3.25h9.75zm0-1.625h-9.75A4.875 4.875 0 002 6.875v9.75A4.875 4.875 0 006.875 21.5h9.75a4.875 4.875 0 004.875-4.875v-9.75A4.875 4.875 0 0016.625 2z"/><path d="M11.75 16.625a.812.812 0 01-.813-.813V7.688a.813.813 0 011.626 0v8.125a.813.813 0 01-.813.812z"/><path d="M6.875 11.75c0-.448.363-.813.813-.813h8.125a.813.813 0 010 1.626H7.687a.812.812 0 01-.812-.813z"/></symbol><symbol viewBox="0 0 36 36" id="msg" xmlns="http://www.w3.org/2000/svg"><path fill-rule="evenodd" clip-rule="evenodd" d="M34.155 2.482C33.46 2.739 1.237 16.832.97 16.996c-.896.548-1.233 1.784-.748 2.741.215.425.696.872 1.101 1.024.811.305 8.486 2.576 8.704 2.576.366 0 .836-.256 1.043-.57.518-.781.111-1.783-.838-2.065-2.5-.742-6.498-1.964-6.534-1.997-.025-.024 5.68-2.538 12.68-5.587 6.998-3.05 12.738-5.53 12.756-5.513.017.018-3.373 3.413-7.534 7.545-4.522 4.49-7.62 7.62-7.701 7.777-.098.193-.135.41-.135.807 0 .643.33 7.079.39 7.576.124 1.06 1.118 1.874 2.178 1.786.756-.063.994-.25 2.677-2.101.847-.933 1.578-1.744 1.625-1.803.072-.091.528.2 3.163 2.025 1.693 1.172 3.237 2.192 3.431 2.266 1.025.392 2.336-.232 2.702-1.286.125-.36 6.053-28.317 6.051-28.537-.003-.435-.439-1.04-.864-1.2-.262-.1-.659-.09-.962.022zm-4.188 16.921c-1.297 6.126-2.37 11.148-2.383 11.162-.013.013-2.368-1.6-5.233-3.584l-5.209-3.608 7.572-7.574c4.164-4.165 7.58-7.564 7.592-7.553.01.011-1.042 5.032-2.339 11.157zm-12.403 7.495l.972.677-.884.977c-.487.537-.898.962-.915.945-.037-.037-.206-3.277-.17-3.277.013 0 .462.305.997.678z"/></symbol><symbol viewBox="0 0 24 24" id="newspaper" xmlns="http://www.w3.org/2000/svg"><path d="M16.5 11.25H9a.752.752 0 01-.75-.75c0-.412.338-.75.75-.75h7.5c.413 0 .75.338.75.75s-.337.75-.75.75zm0 3H9a.752.752 0 01-.75-.75c0-.412.338-.75.75-.75h7.5c.413 0 .75.338.75.75s-.337.75-.75.75z"/><path d="M19.5 19.5H3a2.257 2.257 0 01-2.25-2.25v-9c0-.412.337-.75.75-.75s.75.338.75.75v9c0 .413.337.75.75.75s.75-.337.75-.75V6c0-.825.675-1.5 1.5-1.5h15c.825 0 1.5.675 1.5 1.5v11.25a2.257 2.257 0 01-2.25 2.25zM5.119 18H19.5c.413 0 .75-.337.75-.75V6h-15v11.25c0 .262-.047.516-.131.75z"/></symbol><symbol viewBox="0 0 24 24" id="pizza" xmlns="http://www.w3.org/2000/svg"><path d="M16.565 11.901a.783.783 0 100-1.565.783.783 0 000 1.565zm-9.522 0a.783.783 0 100-1.565.783.783 0 000 1.565zm5.217-4.694a2.35 2.35 0 00-2.347 2.348 2.35 2.35 0 002.348 2.348 2.35 2.35 0 002.348-2.348 2.35 2.35 0 00-2.348-2.348zm0 3.13a.783.783 0 010-1.565.784.784 0 010 1.565z"/><path d="M12.988 3.031a1.935 1.935 0 00-1.796.639l-8.676 9.438c-.094.102-.516.641-.516.86v1.505c0 .943.768 1.711 1.712 1.711h2.201v1.957c0 1.079.873 1.956 1.959 1.956 1.127 0 1.954-.93 1.954-2.02v-.703a1.95 1.95 0 002.496-1.19h7.232A2.448 2.448 0 0022 14.74v-.815C22 8.6 18.21 4.019 12.988 3.03zm-.83 1.516a.637.637 0 01.588-.234c4.392.83 7.636 4.543 7.928 8.958h-1.308c-.323-4.236-3.775-7.611-8.043-7.816l.835-.908zM5.913 15.88H3.712a.408.408 0 01-.408-.408v-.853h1.957c.36 0 .652.298.652.663v.598zm5.217-.652v1.304c0 .372-.31.671-.688.651-.34-.017-.616-.343-.616-.724v-2.535a.652.652 0 00-1.304 0v5.154c0 .347-.226.65-.525.704a.653.653 0 01-.78-.641v-3.859a1.964 1.964 0 00-1.956-1.967H4.098l5.99-6.517a7.25 7.25 0 01.825-.048c3.736 0 6.813 2.87 7.144 6.521h-4.97a1.959 1.959 0 00-1.957 1.957zm9.566-.49c0 .63-.512 1.142-1.142 1.142h-7.12v-.652c0-.36.293-.652.653-.652h7.609v.163z"/></symbol><symbol viewBox="0 0 24 24" id="plus" xmlns="http://www.w3.org/2000/svg"><path d="M12 5.25v13.5M5.25 12h13.5"/></symbol><symbol viewBox="0 0 36 36" id="point" xmlns="http://www.w3.org/2000/svg"><path fill-rule="evenodd" clip-rule="evenodd" d="M6.168 4.117a4.268 4.268 0 00-3.076 3.185C3 7.72 2.99 9.006 3.007 18.472l.018 10.698.15.436c.448 1.31 1.509 2.359 2.801 2.769l.47.148H28.11l.47-.148a4.367 4.367 0 002.802-2.803c.148-.47.148-.47.148-6.142v-5.674l-.183-.262a2.005 2.005 0 00-.431-.43c-.21-.143-.324-.168-.761-.168-.451 0-.546.022-.777.183a2.02 2.02 0 00-.43.431l-.168.248-.033 5.438c-.026 4.275-.052 5.48-.122 5.638-.15.345-.551.7-.912.807-.495.148-20.376.149-20.864.002a1.455 1.455 0 01-.942-.937c-.148-.5-.148-20.37 0-20.87.107-.361.462-.762.807-.913.161-.07 1.864-.094 8.496-.121l8.294-.034.29-.204c.828-.58.828-1.76 0-2.341l-.29-.205-8.429-.013c-8.053-.013-8.45-.008-8.907.112zm24.926 1.36c-.182.055-1.748 1.582-7.025 6.85l-6.791 6.78-1.727-1.719c-.95-.946-1.833-1.773-1.962-1.838-.14-.07-.386-.118-.61-.118a1.37 1.37 0 00-1.388 1.262c-.058.695-.046.71 2.584 3.333 2.152 2.145 2.43 2.4 2.7 2.47.339.09.784.05 1.058-.096.1-.053 3.508-3.427 7.571-7.496l7.388-7.399.075-.359c.23-1.111-.767-2-1.873-1.67z"/></symbol><symbol viewBox="0 0 20 20" id="reload" xmlns="http://www.w3.org/2000/svg"><path d="M17.178 9.053a.739.739 0 00-.739.739 6.647 6.647 0 11-6.647-6.648 6.574 6.574 0 013.264.862l-.832.832a.739.739 0 00.522 1.26h2.955a.739.739 0 00.738-.738V2.406a.739.739 0 00-1.26-.523l-1.043 1.04a8.051 8.051 0 00-4.344-1.256 8.125 8.125 0 108.125 8.125.739.739 0 00-.739-.739z"/></symbol><symbol viewBox="0 0 24 24" id="rocket" xmlns="http://www.w3.org/2000/svg"><path d="M19.913 11.38l-4.32-2.88a11.085 11.085 0 00-3.06-6 .75.75 0 00-1.066 0 11.085 11.085 0 00-3.06 6l-4.32 2.88a.75.75 0 00-.337.622v3a.75.75 0 00.75.75H6a.75.75 0 100-1.5h-.75v-1.845l3-2.003v4.598a.75.75 0 00.75.75h6a.75.75 0 00.75-.75v-4.598l3 2.003v1.845H18a.75.75 0 100 1.5h1.5a.75.75 0 00.75-.75v-3a.75.75 0 00-.337-.623zm-5.663 2.872h-4.5v-4.005A9.54 9.54 0 0112 4.112a9.54 9.54 0 012.25 6.135v4.005zM15 17.25a.75.75 0 100 1.5 2.251 2.251 0 012.122 1.5H6.878A2.25 2.25 0 019 18.75a.75.75 0 100-1.5A3.75 3.75 0 005.25 21a.75.75 0 00.218.532.788.788 0 00.532.218h12a.75.75 0 00.75-.75A3.75 3.75 0 0015 17.25z"/></symbol><symbol viewBox="0 0 20 20" id="search" xmlns="http://www.w3.org/2000/svg"><path d="M9.116 1.61c-4.132 0-7.498 3.365-7.498 7.498 0 4.132 3.366 7.505 7.498 7.505a7.453 7.453 0 004.671-1.646l3.124 3.122a.835.835 0 001.181-1.18l-3.123-3.123a7.467 7.467 0 001.647-4.678c0-4.133-3.368-7.499-7.5-7.499zm0 1.666c3.232 0 5.832 2.6 5.832 5.832 0 3.231-2.6 5.838-5.832 5.838a5.824 5.824 0 01-5.832-5.838c0-3.232 2.6-5.832 5.832-5.832z"/></symbol><symbol viewBox="0 0 20 20" id="send" xmlns="http://www.w3.org/2000/svg"><g clip-path="url(#bza)"><path fill-rule="evenodd" clip-rule="evenodd" d="M1.614.856c-.54.15-.834.646-.736 1.24.128.77 1.599 6.455 1.695 6.551.098.098.141.104 3.529.481 3.978.443 3.639.394 3.784.545.237.247.098.7-.234.76-.066.013-1.664.194-3.55.404-3.388.377-3.431.383-3.529.48-.096.097-1.567 5.782-1.695 6.552-.127.764.481 1.414 1.178 1.258.315-.071 16.473-7.978 16.683-8.165a1.315 1.315 0 000-1.96c-.16-.14-8.811-4.398-15.848-7.798C2.092.818 1.92.771 1.614.856z"/></g><defs><clipPath id="bza"><path d="M0 0h20v20H0z"/></clipPath></defs></symbol><symbol viewBox="0 0 24 24" id="setting" xmlns="http://www.w3.org/2000/svg"><path d="M20.814 13.59l-.832-.685a1.172 1.172 0 010-1.81l.832-.685a1.558 1.558 0 00.36-1.987l-1.643-2.846a1.558 1.558 0 00-1.901-.682l-1.01.378a1.172 1.172 0 01-1.566-.904l-.177-1.063A1.558 1.558 0 0013.335 2H10.05a1.56 1.56 0 00-1.542 1.306l-.177 1.063a1.172 1.172 0 01-1.567.904l-1.009-.378a1.558 1.558 0 00-1.901.682L2.21 8.423c-.384.664-.232 1.5.36 1.987l.832.685c.57.47.569 1.341 0 1.81l-.832.685a1.558 1.558 0 00-.36 1.987l1.643 2.846a1.558 1.558 0 001.901.682l1.01-.378a1.172 1.172 0 011.566.904l.177 1.063A1.558 1.558 0 0010.05 22h3.285c.767 0 1.415-.55 1.541-1.306l.178-1.063a1.172 1.172 0 011.567-.904l1.009.378a1.558 1.558 0 001.901-.682l1.643-2.846c.384-.664.232-1.5-.36-1.987zm-2.636 4.052l-1.01-.379a2.734 2.734 0 00-3.655 2.111l-.178 1.064H10.05l-.178-1.063a2.734 2.734 0 00-3.656-2.112l-1.01.378-1.642-2.845.832-.685a2.734 2.734 0 000-4.222l-.832-.685 1.643-2.846 1.009.379a2.734 2.734 0 003.656-2.111l.178-1.064h3.285l.177 1.064a2.734 2.734 0 003.657 2.11l1.01-.378 1.642 2.846-.832.685a2.734 2.734 0 000 4.222l.832.685-1.643 2.846zm-6.486-9.496A3.859 3.859 0 007.839 12a3.859 3.859 0 003.855 3.854A3.858 3.858 0 0015.547 12a3.858 3.858 0 00-3.854-3.854zm0 6.146A2.294 2.294 0 019.402 12a2.294 2.294 0 012.292-2.292A2.294 2.294 0 0113.984 12a2.294 2.294 0 01-2.291 2.292z"/></symbol><symbol viewBox="0 0 24 24" id="shop" xmlns="http://www.w3.org/2000/svg"><path d="M21.75 9.75a.756.756 0 00-.097-.369l-3.387-6A.75.75 0 0017.613 3H6.387a.75.75 0 00-.653.381l-3.387 6a.757.757 0 00-.097.369 2.99 2.99 0 001.5 2.583V19.5a1.5 1.5 0 001.5 1.5h4.41a1.5 1.5 0 001.5-1.5v-2.03a.914.914 0 01.75-.928.842.842 0 01.93.835V19.5a1.5 1.5 0 001.5 1.5h4.41a1.5 1.5 0 001.5-1.5v-7.167a2.99 2.99 0 001.5-2.583zm-1.51.178a1.5 1.5 0 01-2.99-.178.676.676 0 00-.021-.104.65.65 0 00-.008-.1L15.796 4.5h1.379l3.064 5.428zM9.762 4.5h1.487v5.25a1.5 1.5 0 01-2.992.075L9.762 4.5zm2.987 0h1.487l1.505 5.325a1.5 1.5 0 01-2.992-.075V4.5zm-5.925 0h1.38L6.778 9.546a.648.648 0 00-.007.1.684.684 0 00-.022.104 1.5 1.5 0 01-2.99.178L6.825 4.5zm11.925 15h-4.41v-2.122a2.341 2.341 0 00-2.58-2.325 2.412 2.412 0 00-2.1 2.42V19.5H5.25v-6.75a2.992 2.992 0 002.25-1.018 2.977 2.977 0 004.5-.018 2.978 2.978 0 004.5.018 2.993 2.993 0 002.25 1.018v6.75z"/></symbol><symbol viewBox="0 0 24 24" id="shopping-bag" xmlns="http://www.w3.org/2000/svg"><path d="M19.691 6.57h-2.32A5.187 5.187 0 0012.226 2c-2.65 0-4.841 2-5.144 4.57h-2.32A.762.762 0 004 7.332v13.406c0 .421.341.762.762.762h14.93c.42 0 .761-.341.761-.762V7.332a.762.762 0 00-.762-.762zm-7.464-3.047a3.662 3.662 0 013.605 3.047h-7.21a3.662 3.662 0 013.605-3.047zm6.703 16.454H5.523V8.094h1.524v2.285a.762.762 0 101.523 0V8.094h7.313v2.285a.762.762 0 101.523 0V8.094h1.524v11.883z"/></symbol><symbol viewBox="0 0 50 50" id="square_checked" xmlns="http://www.w3.org/2000/svg"><path fill-rule="evenodd" clip-rule="evenodd" d="M34.03 4.167c7.06 0 11.803 4.954 11.803 12.325v17.016c0 7.371-4.743 12.325-11.806 12.325H15.97c-7.06 0-11.802-4.954-11.802-12.325V16.492c0-7.371 4.741-12.325 11.802-12.325h18.06zm0 3.125H15.968c-5.271 0-8.677 3.61-8.677 9.2v17.016c0 5.59 3.406 9.2 8.677 9.2h18.058c5.273 0 8.681-3.61 8.681-9.2V16.492c0-5.59-3.408-9.2-8.679-9.2zm-.51 11.66c.61.61.61 1.598 0 2.208l-9.888 9.888a1.55 1.55 0 01-1.104.458c-.398 0-.8-.152-1.104-.458l-4.946-4.944a1.56 1.56 0 112.208-2.208l3.842 3.837 8.784-8.78a1.56 1.56 0 012.208 0z"/></symbol><symbol viewBox="0 0 24 24" id="star" xmlns="http://www.w3.org/2000/svg"><path d="M22.225 9.635a.756.756 0 00-.605-.51l-6.18-.9-2.765-5.6a.753.753 0 00-1.35 0l-2.765 5.6-6.18.9a.748.748 0 00-.415 1.28l4.475 4.36-1.055 6.155a.75.75 0 001.09.79L12 18.8l5.53 2.905a.748.748 0 00.79-.06.76.76 0 00.3-.735l-1.055-6.155 4.475-4.36c.2-.19.27-.49.185-.76zm-5.995 4.33a.744.744 0 00-.215.665l.865 5.045-4.535-2.385a.785.785 0 00-.35-.085c-.12 0-.24.03-.35.085L7.11 19.675l.865-5.045a.762.762 0 00-.215-.665L4.1 10.39l5.07-.735a.752.752 0 00.565-.41L12 4.65l2.265 4.595c.11.22.32.375.565.41l5.07.735-3.67 3.575z"/></symbol><symbol viewBox="0 0 12 12" id="stars" xmlns="http://www.w3.org/2000/svg"><g clip-path="url(#cfa)"><path d="M11.969 4.345a.637.637 0 00-.549-.438l-3.464-.314L6.587.387a.638.638 0 00-1.173 0l-1.37 3.206-3.464.314a.639.639 0 00-.363 1.116l2.619 2.296-.772 3.4a.638.638 0 00.949.69L6 9.623l2.987 1.786a.638.638 0 00.95-.69l-.773-3.4 2.619-2.296a.639.639 0 00.186-.678z"/></g><defs><clipPath id="cfa"><path d="M0 0h12v12H0z"/></clipPath></defs></symbol><symbol viewBox="0 0 16 16" id="telegram" xmlns="http://www.w3.org/2000/svg"><path d="M14.629 3.698l-2.012 9.618c-.152.679-.548.848-1.11.528l-3.066-2.29-1.48 1.442c-.163.166-.3.305-.616.305l.22-3.165 5.683-5.204c.247-.223-.054-.347-.384-.123L4.839 9.29l-3.024-.959c-.658-.208-.67-.667.137-.986L13.78 2.727c.548-.208 1.027.124.849.971z"/></symbol><symbol viewBox="0 0 24 24" id="tg" xmlns="http://www.w3.org/2000/svg"><path d="M21.442 3.216a1.672 1.672 0 00-1.702-.27L2.557 9.824a1.372 1.372 0 000 2.535l1.11.457a.75.75 0 001.041-.685.75.75 0 00-.463-.695L3.42 11.1l16.882-6.75a.165.165 0 01.173 0 .18.18 0 01.06.172l-3.083 14.385a.3.3 0 01-.195.225.292.292 0 01-.292-.045l-6-4.68 5.872-5.932a.75.75 0 00-.915-1.17l-8.61 5.1a.75.75 0 10.75 1.29l3.623-2.138-1.763 1.793a1.5 1.5 0 00.15 2.31l6 4.612a1.8 1.8 0 001.725.263 1.778 1.778 0 001.14-1.313l3.06-14.37a1.672 1.672 0 00-.555-1.635z"/></symbol><symbol viewBox="0 0 24 24" id="training" xmlns="http://www.w3.org/2000/svg"><path d="M8.25 16.501a3 3 0 10-4.965 2.25l-.158.128A3.045 3.045 0 002.25 21a.75.75 0 001.5 0 1.5 1.5 0 013 0 .75.75 0 001.5 0 3 3 0 00-1.035-2.25A3 3 0 008.25 16.5zm-3-1.5a1.5 1.5 0 110 3 1.5 1.5 0 010-3zm9.75 1.5a3 3 0 10-4.965 2.25A3 3 0 009 21.001a.75.75 0 001.5 0 1.5 1.5 0 113 0 .75.75 0 101.5 0 3 3 0 00-1.035-2.25A3 3 0 0015 16.501zm-4.5 0a1.5 1.5 0 113 0 1.5 1.5 0 01-3 0zm10.215 2.25a3 3 0 10-3.93 0l-.157.128A3.045 3.045 0 0015.75 21a.75.75 0 001.5 0 1.5 1.5 0 113 0 .75.75 0 001.5 0 3 3 0 00-1.035-2.25zm-1.965-3.75a1.5 1.5 0 110 3 1.5 1.5 0 010-3zM4.5 12a.75.75 0 00.75-.75v-7.5h13.5v7.5a.75.75 0 101.5 0V3a.75.75 0 00-.75-.75h-15a.75.75 0 00-.75.75v8.25a.75.75 0 00.75.75z"/><path d="M15.967 5.467L13.35 8.084l-2.512-1.252a.75.75 0 00-.87.135l-3 3a.75.75 0 00.244 1.229.75.75 0 00.82-.164l2.618-2.618 2.512 1.253a.75.75 0 00.87-.135l3-3a.753.753 0 00-1.065-1.065z"/></symbol><symbol viewBox="0 0 24 24" id="trash-can" xmlns="http://www.w3.org/2000/svg"><path d="M19.5 5.25h-3.75V3a.75.75 0 00-.75-.75H9a.75.75 0 00-.75.75v2.25H4.5a.75.75 0 000 1.5h15a.75.75 0 100-1.5zm-9.75-1.5h4.5v1.5h-4.5v-1.5zM18 8.25a.75.75 0 00-.75.75v10.5a.75.75 0 01-.75.75h-9a.75.75 0 01-.75-.75V9a.75.75 0 00-1.5 0v10.5a2.253 2.253 0 002.25 2.25h9a2.253 2.253 0 002.25-2.25V9a.75.75 0 00-.75-.75z"/><path d="M11.265 16.5v-6a.75.75 0 10-1.5 0v6a.75.75 0 101.5 0zm2.97 0v-6a.75.75 0 00-1.5 0v6a.75.75 0 101.5 0z"/></symbol><symbol viewBox="0 0 16 16" id="viber" xmlns="http://www.w3.org/2000/svg"><path d="M8 1.335c-1.071.013-3.374.19-4.662 1.37-.958.948-1.292 2.35-1.331 4.084-.033 1.728-.072 4.973 3.058 5.856v1.346s-.02.538.337.648c.438.14.688-.275 1.105-.72l.778-.879c2.142.178 3.782-.232 3.97-.293.435-.139 2.883-.451 3.283-3.696.41-3.351-.2-5.463-1.301-6.418h-.007c-.332-.306-1.668-1.279-4.652-1.29 0 0-.222-.014-.578-.008zm.037.942a7.02 7.02 0 01.488.011c2.527.007 3.732.767 4.017 1.023.927.794 1.405 2.697 1.055 5.495-.332 2.713-2.317 2.885-2.685 3.002-.156.05-1.6.406-3.42.289 0 0-1.356 1.634-1.78 2.055-.067.074-.146.095-.196.085-.071-.018-.093-.107-.089-.229l.013-2.233c-2.655-.733-2.498-3.5-2.47-4.946.033-1.446.304-2.628 1.113-3.43 1.088-.982 3.043-1.115 3.953-1.122zm.2 1.446a.166.166 0 100 .332 3.136 3.136 0 012.242.883c.606.588.9 1.378.912 2.411 0 .092.074.167.167.167V7.51a.167.167 0 00.168-.165 3.588 3.588 0 00-1.009-2.646c-.66-.645-1.496-.977-2.48-.977zm-2.198.382a.523.523 0 00-.342.067H5.69a2.61 2.61 0 00-.637.523 1.003 1.003 0 00-.256.525.71.71 0 00.026.302l.01.006c.172.504.396.988.67 1.444a8.48 8.48 0 001.29 1.762l.015.022.024.017.015.018.017.015c.532.505 1.127.94 1.769 1.295.734.4 1.18.588 1.447.667v.004c.078.024.15.034.221.034.228-.016.444-.109.613-.262a2.53 2.53 0 00.517-.638v-.004c.128-.241.085-.469-.1-.623-.37-.323-.77-.61-1.195-.857-.285-.155-.574-.061-.69.095l-.25.315c-.129.156-.361.134-.361.134l-.007.004C7.093 8.527 6.63 6.772 6.63 6.772s-.022-.239.139-.36l.312-.252c.15-.122.254-.41.094-.695a7.498 7.498 0 00-.856-1.194.475.475 0 00-.28-.167zm2.486.495c-.221 0-.221.334.003.334A2.098 2.098 0 0110 5.572 1.94 1.94 0 0110.5 7a.168.168 0 00.167.165l.007.009a.169.169 0 00.167-.167c.015-.662-.191-1.218-.595-1.663C9.84 4.9 9.273 4.65 8.549 4.6h-.024zm.274.898c-.228-.006-.236.335-.01.341.55.029.816.306.851.877a.166.166 0 00.165.163h.007a.168.168 0 00.16-.178c-.039-.744-.445-1.164-1.166-1.202H8.8z"/></symbol><symbol viewBox="0 0 24 24" id="vk" xmlns="http://www.w3.org/2000/svg"><path d="M21.579 6.855c.14-.465 0-.806-.662-.806h-2.193c-.558 0-.813.295-.953.619 0 0-1.115 2.719-2.695 4.482-.51.513-.743.675-1.021.675-.139 0-.341-.162-.341-.627V6.855c0-.558-.161-.806-.626-.806H9.642c-.348 0-.558.258-.558.504 0 .528.79.65.871 2.138v3.228c0 .707-.127.836-.407.836-.743 0-2.551-2.73-3.624-5.853-.209-.607-.42-.852-.98-.852H2.752c-.627 0-.752.295-.752.619 0 .582.743 3.462 3.461 7.27 1.812 2.602 4.363 4.012 6.687 4.012 1.393 0 1.565-.313 1.565-.853v-1.966c0-.626.133-.752.574-.752.324 0 .882.164 2.183 1.417 1.486 1.486 1.732 2.153 2.567 2.153h2.192c.626 0 .939-.313.759-.931-.197-.615-.907-1.51-1.849-2.57-.512-.603-1.277-1.253-1.51-1.578-.325-.42-.231-.604 0-.976.001 0 2.672-3.761 2.95-5.04z"/></symbol><symbol viewBox="0 0 20 20" id="wallet" xmlns="http://www.w3.org/2000/svg"><path d="M17.5 9.375h-4.375a2.512 2.512 0 00-2.5 2.5c0 1.371 1.129 2.5 2.5 2.5h2.5v1.875a.628.628 0 01-.625.625H5A1.884 1.884 0 013.125 15V5.625c0-1.029.846-1.875 1.875-1.875h1.25a.628.628 0 00.625-.625.628.628 0 00-.625-.625H5a3.14 3.14 0 00-3.125 3.125V15A3.14 3.14 0 005 18.125h10a1.884 1.884 0 001.875-1.875v-1.875h.625a.628.628 0 00.625-.625V10a.628.628 0 00-.625-.625zm-.625 3.75h-3.75c-.686 0-1.25-.564-1.25-1.25s.564-1.25 1.25-1.25h3.75v2.5z"/><path d="M4.775 5.044C4.078 5.348 4.308 6.25 5 6.25h10c.343 0 .625.282.625.625V7.5c0 .343.282.625.625.625a.628.628 0 00.625-.625v-.625A1.876 1.876 0 0015 5h-.2l-1.094-2.731a.628.628 0 00-.806-.35L4.775 5.044zM13.45 5H8.37l4.406-1.694L13.45 5z"/></symbol><symbol viewBox="0 0 16 16" id="whatsapp" xmlns="http://www.w3.org/2000/svg"><path fill-rule="evenodd" clip-rule="evenodd" d="M12.269 3.755A5.947 5.947 0 008.035 2 5.994 5.994 0 002.05 7.985a5.98 5.98 0 00.799 2.992L2 14.077l3.173-.832c.877.477 1.86.728 2.86.728h.002a5.993 5.993 0 005.533-8.276 5.953 5.953 0 00-1.3-1.942zm-4.234 9.208h-.002c-.89 0-1.765-.24-2.532-.694l-.181-.108-1.883.494.502-1.835-.118-.188a4.965 4.965 0 01-.76-2.647 4.982 4.982 0 016.88-4.597c.604.25 1.152.618 1.613 1.081a4.946 4.946 0 011.455 3.52 4.982 4.982 0 01-4.974 4.974zm2.729-3.726c-.15-.075-.885-.436-1.022-.486-.137-.05-.236-.075-.336.074-.1.15-.387.486-.474.586-.087.1-.175.112-.324.038-.15-.075-.631-.233-1.203-.742a4.505 4.505 0 01-.832-1.036c-.087-.15-.009-.231.066-.306.068-.066.15-.174.224-.262.075-.087.1-.149.15-.249.05-.1.025-.187-.013-.262-.037-.075-.337-.811-.461-1.11-.121-.29-.244-.252-.336-.256a6.418 6.418 0 00-.286-.005.55.55 0 00-.4.186c-.137.15-.523.512-.523 1.248s.536 1.447.61 1.547c.075.1 1.055 1.61 2.555 2.258.358.154.636.246.853.315.358.114.684.098.942.06.287-.043.885-.362 1.01-.711.124-.35.124-.649.087-.711-.038-.063-.138-.101-.287-.176z"/></symbol></svg>