<svg width="20" height="20" viewBox="0 0 20 20" fill="none" xmlns="http://www.w3.org/2000/svg">
<path d="M13.8545 3.02018C15.3481 3.02018 16.5628 4.23487 16.5628 5.72852V13.8535C16.5628 15.3472 15.3481 16.5618 13.8545 16.5618H5.72949C4.23585 16.5618 3.02116 15.3472 3.02116 13.8535V5.72852C3.02116 4.23487 4.23585 3.02018 5.72949 3.02018H13.8545ZM13.8545 1.66602H5.72949C3.48564 1.66602 1.66699 3.48466 1.66699 5.72852V13.8535C1.66699 16.0974 3.48564 17.916 5.72949 17.916H13.8545C16.0983 17.916 17.917 16.0974 17.917 13.8535V5.72852C17.917 3.48466 16.0983 1.66602 13.8545 1.66602Z" fill="#FF7A00"/>
<path d="M9.79232 13.8535C9.41857 13.8535 9.11523 13.5509 9.11523 13.1764V6.4056C9.11523 6.03185 9.41857 5.72852 9.79232 5.72852C10.1661 5.72852 10.4694 6.03185 10.4694 6.4056V13.1764C10.4694 13.5509 10.1661 13.8535 9.79232 13.8535Z" fill="#FF7A00"/>
<path d="M5.72949 9.79036C5.72949 9.41661 6.03215 9.11328 6.40658 9.11328H13.1774C13.5512 9.11328 13.8545 9.41661 13.8545 9.79036C13.8545 10.1641 13.5512 10.4674 13.1774 10.4674H6.40658C6.03215 10.4674 5.72949 10.1641 5.72949 9.79036Z" fill="#FF7A00"/>
</svg>
