<svg width="36" height="36" viewBox="0 0 36 36" fill="none" xmlns="http://www.w3.org/2000/svg">
<g id="add">
<g id="add_2">
<path id="add-photo 1 (Traced)" fill-rule="evenodd" clip-rule="evenodd" d="M29.3228 2.16851C28.9507 2.3433 28.8369 2.45961 28.6632 2.84246C28.5459 3.10122 28.5345 3.25505 28.5332 4.59737L28.5318 6.06866L27.0605 6.0693C25.6492 6.06986 25.5763 6.07594 25.2728 6.21851C24.9007 6.3933 24.7869 6.50961 24.6133 6.89246C24.3918 7.38067 24.4616 7.88724 24.8083 8.30749C25.1775 8.75514 25.3238 8.78678 27.0289 8.78836L28.5318 8.78976L28.5322 10.2294C28.5324 11.0212 28.5602 11.7687 28.5941 11.8905C28.6281 12.0124 28.7469 12.2225 28.8583 12.3575C29.3542 12.9587 30.2489 13.0091 30.8316 12.4687C31.2308 12.0983 31.2529 11.9852 31.2529 10.311V8.78976H32.7748C34.4242 8.78976 34.4949 8.77729 34.8816 8.41867C35.4614 7.88085 35.4418 6.9322 34.8399 6.4038C34.7136 6.29287 34.5027 6.17225 34.3712 6.13574C34.2369 6.0984 33.5018 6.06923 32.6926 6.06904L31.2529 6.06866L31.2515 4.56573C31.2499 2.87397 31.2203 2.73159 30.7899 2.3538C30.3805 1.9943 29.8393 1.92596 29.3228 2.16851ZM14.6099 6.16707C14.3837 6.21566 13.9596 6.37343 13.6675 6.51764C13.2112 6.74292 13.0105 6.90233 12.2436 7.64848C11.7526 8.12619 11.2512 8.57068 11.1294 8.63617C10.9338 8.74135 10.7049 8.75976 9.16775 8.79393C7.38183 8.83361 7.27343 8.8481 6.60841 9.13647C5.84454 9.46769 5.06656 10.2297 4.66896 11.0362C4.21663 11.9537 4.23416 11.6095 4.23289 19.6165C4.23188 26.5784 4.23574 26.8201 4.3573 27.2952C4.56303 28.0998 4.82685 28.5602 5.43321 29.173C5.84638 29.5906 6.08273 29.7718 6.44666 29.9499C7.43689 30.4345 6.49121 30.3942 17.426 30.4175C24.5079 30.4326 27.3744 30.4185 27.7376 30.3666C29.2832 30.1459 30.4635 29.184 31.0553 27.6629L31.2213 27.2362L31.2388 21.8863L31.2563 16.5364L31.1086 16.2543C30.9288 15.9109 30.4833 15.5926 30.1026 15.5357C29.7031 15.4759 29.2451 15.6312 28.9609 15.9228C28.5087 16.3869 28.5318 16.081 28.5318 21.6042C28.5318 27.0385 28.5458 26.8246 28.1646 27.2262C28.0707 27.3251 27.8882 27.4604 27.7592 27.5268C27.5311 27.6441 27.2454 27.6475 17.7607 27.6462C8.39977 27.6448 7.98642 27.64 7.73943 27.5278C7.38955 27.3689 7.09871 26.9997 7.0141 26.607C6.96601 26.3838 6.95108 24.1994 6.96487 19.3894L6.98455 12.4917L7.12636 12.2264C7.28413 11.9313 7.57047 11.6918 7.89574 11.5829C8.03084 11.5376 8.64303 11.5105 9.54105 11.5098C11.2145 11.5084 11.6069 11.4467 12.3883 11.0615C12.845 10.8363 13.0446 10.6779 13.8122 9.93103C14.3032 9.45332 14.8046 9.0082 14.9264 8.94195C15.1323 8.82988 15.3501 8.81918 18.0271 8.78976C21.2383 8.75445 21.1145 8.77191 21.5032 8.30066C21.8546 7.87458 21.9144 7.37112 21.6742 6.85968C21.4994 6.48758 21.3831 6.37374 21.0002 6.2001C20.7281 6.07664 20.601 6.07157 17.8689 6.07505C15.6819 6.0779 14.9258 6.09923 14.6099 6.16707ZM16.3818 12.9614C15.3658 13.1893 14.4121 13.6218 13.677 14.1881C13.2019 14.554 12.4237 15.3741 12.1341 15.814C11.3072 17.0696 10.9599 18.3336 11.0177 19.8776C11.083 21.6214 11.7394 23.1346 12.9623 24.3604C15.5594 26.9636 19.7236 27.0251 22.4006 24.4997C23.0142 23.9209 23.4185 23.3656 23.8177 22.5534C24.5748 21.0133 24.7251 19.3541 24.2546 17.7303C23.5854 15.4211 21.7831 13.6629 19.4313 13.0252C18.7085 12.8293 17.1192 12.796 16.3818 12.9614ZM18.9447 15.7509C19.5896 15.9497 20.1551 16.3088 20.6568 16.8382C21.4052 17.6279 21.7607 18.5198 21.7607 19.6077C21.7607 21.4447 20.5012 23.0442 18.6941 23.502C17.8446 23.7172 16.6599 23.5662 15.8561 23.1404C15.3662 22.8807 14.6132 22.1732 14.3291 21.7056C13.3573 20.1058 13.6001 18.0818 14.9225 16.7593C15.4696 16.2123 16.1763 15.8152 16.8881 15.655C17.4437 15.53 18.368 15.5731 18.9447 15.7509Z" fill="#C2C2C2"/>
</g>
</g>
</svg>
