<svg width="24" height="24" viewBox="0 0 24 24" fill="none" xmlns="http://www.w3.org/2000/svg">
<path d="M20.5066 16.8793C20.4272 16.4552 20.019 16.1758 19.5948 16.2553C19.1708 16.3348 18.8914 16.743 18.9708 17.1671C19.0298 17.4817 18.8915 17.7059 18.8038 17.8116C18.7164 17.917 18.522 18.0938 18.203 18.0938H6.34397C6.02502 18.0938 5.83065 17.917 5.74319 17.8116C5.65553 17.7059 5.51721 17.4817 5.5762 17.1671C5.7978 15.9846 6.24245 15.2068 6.67245 14.4546C7.19467 13.5412 7.73467 12.5966 7.73467 11.1406V9.96871C7.73467 7.50516 9.73713 5.47371 12.1996 5.43797H12.3473C14.8014 5.47363 16.7972 7.50508 16.7972 9.96875V11.1406C16.7972 12.3798 17.2026 13.2325 17.5825 13.9345C17.7239 14.1957 17.9927 14.344 18.2703 14.344C18.3958 14.344 18.5233 14.3137 18.6414 14.2497C19.0209 14.0443 19.162 13.5702 18.9566 13.1908C18.5786 12.4923 18.3597 11.9329 18.3597 11.1406V9.96875C18.3597 8.3609 17.7369 6.8423 16.606 5.69273C15.6369 4.70754 14.3925 4.09273 13.0472 3.92305V2.78125C13.0472 2.34977 12.6974 2 12.266 2C11.8345 2 11.4847 2.34977 11.4847 2.78125V3.92535C8.49807 4.31285 6.17221 6.88988 6.17221 9.96875V11.1406C6.17221 12.1815 5.79436 12.8424 5.316 13.6791C4.84475 14.5035 4.31057 15.4379 4.04041 16.8793C3.91147 17.5674 4.09389 18.2709 4.54092 18.8095C4.98752 19.3477 5.64475 19.6562 6.34397 19.6562H9.93729C9.93729 20.9486 10.9887 22 12.281 22C13.5734 22 14.6248 20.9486 14.6248 19.6562H18.203C18.9023 19.6562 19.5595 19.3477 20.0061 18.8095C20.4531 18.271 20.6355 17.5674 20.5066 16.8793ZM12.281 20.4375C11.8503 20.4375 11.4998 20.087 11.4998 19.6562H13.0623C13.0623 20.087 12.7119 20.4375 12.281 20.4375Z" fill="#8C8D8F"/>
</svg>
