<svg width="16" height="16" viewBox="0 0 16 16" fill="none" xmlns="http://www.w3.org/2000/svg">
<g id="avocado 1" clip-path="url(#clip0_3533_1549)">
<path id="Vector" d="M13.358 6.07333C12.6284 5.12305 12.0756 4.04929 11.726 2.90333C11.5171 2.07352 11.037 1.33723 10.362 0.811271C9.68705 0.285309 8.85576 -0.000211495 8.00004 1.17542e-07C5.73737 1.17542e-07 1.33337 3.48667 1.33337 9.87867C1.33337 13.254 4.32404 16 8.00004 16C11.676 16 14.6667 13.254 14.6667 9.87867C14.7255 8.49065 14.2581 7.13159 13.358 6.07333ZM8.00004 13.3333C7.64768 13.3413 7.29737 13.2777 6.97025 13.1465C6.64313 13.0153 6.34599 12.8192 6.09678 12.5699C5.84756 12.3207 5.65142 12.0236 5.52022 11.6965C5.38901 11.3693 5.32545 11.019 5.33337 10.6667C5.33337 8.68533 6.67937 6.66667 8.00004 6.66667C9.32071 6.66667 10.6667 8.68533 10.6667 10.6667C10.6746 11.019 10.6111 11.3693 10.4799 11.6965C10.3487 12.0236 10.1525 12.3207 9.90331 12.5699C9.65409 12.8192 9.35695 13.0153 9.02983 13.1465C8.70271 13.2777 8.3524 13.3413 8.00004 13.3333ZM9.33337 10.6667C9.34164 10.844 9.31281 11.021 9.24872 11.1865C9.18464 11.352 9.08672 11.5023 8.96122 11.6278C8.83572 11.7533 8.68541 11.8513 8.5199 11.9154C8.35439 11.9794 8.17733 12.0083 8.00004 12C7.82275 12.0083 7.64569 11.9794 7.48018 11.9154C7.31467 11.8513 7.16436 11.7533 7.03886 11.6278C6.91336 11.5023 6.81544 11.352 6.75136 11.1865C6.68727 11.021 6.65844 10.844 6.66671 10.6667C6.66671 9.13667 7.68737 8 8.00004 8C8.31271 8 9.33337 9.13667 9.33337 10.6667Z" fill="white"/>
</g>
<defs>
<clipPath id="clip0_3533_1549">
<rect width="16" height="16" fill="white"/>
</clipPath>
</defs>
</svg>
