<svg width="24" height="24" viewBox="0 0 24 24" fill="none" xmlns="http://www.w3.org/2000/svg">
<path fill-rule="evenodd" clip-rule="evenodd" d="M4.92263 1.04911C4.04981 1.29093 3.41107 1.9154 3.0951 2.83568C2.96871 3.2038 2.96811 20.7783 3.09445 21.1493C3.38051 21.9891 3.94101 22.58 4.73645 22.8801L4.99146 22.9764L12.1922 22.9882L19.393 23L19.7389 22.8928C20.719 22.589 21.4438 21.7076 21.5477 20.6933C21.5812 20.3664 21.5913 20.3689 21.2044 20.6081C20.6302 20.9632 20.0176 21.1652 19.3046 21.2345C18.6777 21.2954 5.72689 21.2921 5.44156 21.231C4.55202 21.0402 4.55202 19.7968 5.44156 19.606C5.59667 19.5727 7.69994 19.5587 12.5361 19.5587H19.4101L19.7488 19.4517C20.5647 19.1939 21.1642 18.5845 21.462 17.7101C21.5876 17.3413 21.5876 3.20453 21.462 2.83568C21.1759 1.99583 20.6154 1.40498 19.82 1.10483L19.565 1.00862L12.3427 1.00148C6.60465 0.995764 5.0798 1.00557 4.92263 1.04911ZM19.1149 2.754C19.378 2.81044 19.6092 2.99715 19.7212 3.2437C19.7959 3.40809 19.7995 3.73236 19.7995 10.2729C19.7995 17.961 19.8269 17.3128 19.4891 17.6095C19.2204 17.8454 19.4247 17.8391 12.025 17.8391C6.25583 17.8391 5.12352 17.8488 4.95531 17.8994L4.75502 17.9596L4.75596 10.6878C4.75687 3.70149 4.76005 3.40929 4.83653 3.24408C4.94778 3.00377 5.14528 2.83297 5.38714 2.76797C5.66352 2.69364 18.7712 2.68031 19.1149 2.754ZM11.4399 5.20029C10.1278 5.55349 9.09698 6.83179 9.09698 8.1057V8.25238H9.97242H10.8479L10.8741 8.06073C11.0549 6.74181 12.9199 6.43254 13.5032 7.62473C13.8444 8.32207 13.6872 8.68696 12.5382 9.8645C11.628 10.7973 11.3792 11.2506 11.3762 11.9817L11.3754 12.1644H12.2567H13.138V12.0556C13.138 11.8216 13.2788 11.631 13.9234 10.9917C15.0865 9.83823 15.4585 9.09472 15.4037 8.03344C15.3032 6.09181 13.3403 4.68879 11.4399 5.20029ZM11.3754 14.3139V15.1737H12.2567H13.138V14.3139V13.4541H12.2567H11.3754V14.3139Z" fill="#191C1F"/>
</svg>
