<svg width="24" height="24" viewBox="0 0 24 24" fill="none" xmlns="http://www.w3.org/2000/svg">
<path d="M11.7143 13.2857C10.5776 13.2857 9.48756 12.8342 8.68383 12.0305C7.8801 11.2267 7.42857 10.1366 7.42857 9H9.14286C9.14286 9.68199 9.41377 10.336 9.89601 10.8183C10.3782 11.3005 11.0323 11.5714 11.7143 11.5714C12.3963 11.5714 13.0503 11.3005 13.5326 10.8183C14.0148 10.336 14.2857 9.68199 14.2857 9H16C16 10.1366 15.5485 11.2267 14.7447 12.0305C13.941 12.8342 12.8509 13.2857 11.7143 13.2857ZM11.7143 4.71429C12.3963 4.71429 13.0503 4.9852 13.5326 5.46744C14.0148 5.94968 14.2857 6.60373 14.2857 7.28571H9.14286C9.14286 6.60373 9.41377 5.94968 9.89601 5.46744C10.3782 4.9852 11.0323 4.71429 11.7143 4.71429ZM17.7143 7.28571H16C16 6.72291 15.8891 6.16561 15.6738 5.64564C15.4584 5.12568 15.1427 4.65322 14.7447 4.25526C14.3468 3.85729 13.8743 3.54161 13.3544 3.32623C12.8344 3.11085 12.2771 3 11.7143 3C10.5776 3 9.48756 3.45153 8.68383 4.25526C7.8801 5.05898 7.42857 6.14907 7.42857 7.28571H5.71429C4.76286 7.28571 4 8.04857 4 9V19.2857C4 19.7404 4.18061 20.1764 4.5021 20.4979C4.82359 20.8194 5.25963 21 5.71429 21H17.7143C18.1689 21 18.605 20.8194 18.9265 20.4979C19.248 20.1764 19.4286 19.7404 19.4286 19.2857V9C19.4286 8.04857 18.6571 7.28571 17.7143 7.28571Z" fill="white"/>
</svg>
