<svg width="24" height="24" viewBox="0 0 24 24" fill="none" xmlns="http://www.w3.org/2000/svg">
<path d="M2.62492 17.7501H10.125C10.4705 17.7501 10.7501 17.54 10.7501 17.2813V16.3436C10.7501 16.0849 10.4705 15.875 10.125 15.875H2.62492C2.27951 15.875 2 16.0849 2 16.3436V17.2813C2 17.54 2.27951 17.7501 2.62492 17.7501ZM2.62492 20.2501H10.125C10.4705 20.2501 10.7501 20.0401 10.7501 19.7813V18.8437C10.7501 18.585 10.4705 18.3751 10.125 18.3751H2.62492C2.27951 18.3751 2 18.585 2 18.8437V19.7813C2 20.0401 2.27951 20.2501 2.62492 20.2501ZM2.62492 15.2498H10.125C10.4705 15.2498 10.7501 15.0399 10.7501 14.7812V13.844C10.7501 13.585 10.4705 13.3749 10.125 13.3749H2.62492C2.27951 13.3749 2 13.585 2 13.8439V14.7812C2 15.0399 2.27951 15.2498 2.62492 15.2498ZM11.9726 15.001C11.9823 14.9277 12 14.8569 12 14.7812V13.8439C12 12.8794 11.1765 12.125 10.125 12.125H7.62498C7.62498 10.3989 9.024 9.00005 10.7501 9.00005C12.4761 9.00005 13.8751 10.3989 13.8751 12.125C13.8751 13.4165 13.0908 14.5247 11.9726 15.001ZM2 6.49998H19.5001V17.7501H11.9256C11.9701 17.6012 12 17.4448 12 17.2813V16.5H15.7501C15.7501 15.1194 16.8695 14 18.25 14V10.25C16.8695 10.25 15.7501 9.13059 15.7501 7.75004H5.75004C5.75004 9.13063 4.63073 10.25 3.25005 10.25V12.125H2.62492C2.40337 12.125 2.19591 12.1653 2 12.2263V6.49998ZM22 4V16.5H20.7502V5.25001H3.25005V4H22Z" fill="white"/>
</svg>
