<svg width="24" height="24" viewBox="0 0 24 24" fill="none" xmlns="http://www.w3.org/2000/svg">
<path d="M10.4567 2H4.4375C3.09339 2 2 3.09339 2 4.4375V10.4567C2 10.8412 2.312 11.1532 2.69643 11.1532H10.4567C10.8412 11.1532 11.1532 10.8412 11.1532 10.4567V2.69643C11.1532 2.312 10.8412 2 10.4567 2ZM9.7603 9.7603H3.39286V4.4375C3.39286 3.86155 3.86155 3.39286 4.4375 3.39286H9.7603V9.7603Z" fill="#191C1F"/>
<path d="M19.0626 2H13.0434C12.6582 2 12.3469 2.312 12.3469 2.69643V10.4567C12.3469 10.8412 12.6582 11.1532 13.0434 11.1532H20.8037C21.1888 11.1532 21.5001 10.8412 21.5001 10.4567V4.4375C21.5001 3.09339 20.4067 2 19.0626 2ZM20.1072 9.7603H13.7398V3.39286H19.0626C19.6385 3.39286 20.1072 3.86155 20.1072 4.4375V9.7603Z" fill="#191C1F"/>
<path d="M10.4567 12.3477H2.69643C2.312 12.3477 2 12.659 2 13.0441V19.0633C2 20.4074 3.09339 21.5008 4.4375 21.5008H10.4567C10.8412 21.5008 11.1532 21.1895 11.1532 20.8044V13.0441C11.1532 12.6597 10.8412 12.3477 10.4567 12.3477ZM9.7603 20.108H4.4375C3.86155 20.108 3.39286 19.6393 3.39286 19.0633V13.7405H9.7603V20.108Z" fill="#191C1F"/>
<path d="M21.0703 12.4004C20.8098 12.2932 20.5103 12.3524 20.3112 12.5515L12.5509 20.3111C12.3517 20.5103 12.2918 20.8098 12.3997 21.0702C12.5077 21.3307 12.7619 21.4999 13.0432 21.4999H19.0625C20.4066 21.4999 21.5 20.4065 21.5 19.0624V13.0432C21.5 12.7619 21.3307 12.5077 21.0703 12.4004ZM20.1071 19.0624C20.1071 19.6384 19.6384 20.1071 19.0625 20.1071H14.7244L20.1071 14.7244V19.0624Z" fill="#191C1F"/>
</svg>
