<svg width="24" height="24" viewBox="0 0 24 24" fill="none" xmlns="http://www.w3.org/2000/svg">
<g id="chat">
<path id="chat (2) 1 (Traced)" fill-rule="evenodd" clip-rule="evenodd" d="M3.17976 1.0761C2.13051 1.29874 1.29869 2.14223 1.07889 3.20652C0.965247 3.75655 0.978346 17.5288 1.09272 17.7806C1.25016 18.1273 1.61496 18.265 1.96017 18.1082C2.06402 18.061 3.03129 17.2858 4.10967 16.3855L6.07028 14.7486H11.2086C16.9053 14.7486 16.7107 14.7575 17.3096 14.4682C18.0936 14.0896 18.6335 13.3981 18.8092 12.5473C18.9114 12.0528 18.9117 3.70489 18.8096 3.20454C18.5905 2.13081 17.7549 1.29612 16.6759 1.07326C16.1946 0.973795 3.64922 0.976457 3.17976 1.0761ZM16.6905 2.5136C16.9955 2.65662 17.2258 2.88695 17.3688 3.19192L17.4814 3.43182V7.87692V12.322L17.3688 12.5619C17.2258 12.8669 16.9955 13.0972 16.6905 13.2402L16.4506 13.3528L11.0392 13.3742C6.08694 13.3939 5.61683 13.4018 5.49894 13.4675C5.42808 13.507 4.7084 14.0916 3.8997 14.7667C3.09099 15.4417 2.41942 15.994 2.40726 15.994C2.34542 15.994 2.38617 3.59455 2.44871 3.38398C2.58275 2.93264 2.88789 2.61711 3.34296 2.45927C3.55483 2.38583 3.89721 2.38231 10.0085 2.39146L16.4506 2.40108L16.6905 2.5136ZM5.52815 5.2005C5.02029 5.45076 5.02454 6.1898 5.53523 6.43211C5.76247 6.53996 14.1256 6.53996 14.3528 6.43211C14.867 6.18817 14.867 5.44268 14.3528 5.19874C14.126 5.09107 5.74675 5.09274 5.52815 5.2005ZM19.9586 6.57483C19.2831 6.90767 19.5107 7.78136 20.2987 7.88031C20.876 7.95281 21.2725 8.22162 21.4918 8.68923L21.6044 8.92914L21.6157 14.8881C21.6219 18.1656 21.617 20.8471 21.6049 20.8471C21.5927 20.8471 21.0555 20.4257 20.4111 19.9105C19.7667 19.3953 19.2015 18.9556 19.155 18.9334C19.1045 18.9093 17.0314 18.8844 14.0026 18.8715L8.93476 18.8501L8.69486 18.7376C8.11296 18.4647 7.9172 18.0917 7.88413 17.1932C7.85351 16.3615 7.64831 16.0752 7.12516 16.1341C6.6697 16.1855 6.50821 16.463 6.50821 17.1941C6.50821 18.5527 7.05567 19.5023 8.12073 19.9908C8.68739 20.2508 8.57735 20.2459 13.8397 20.246L18.641 20.2462L20.2997 21.5723C22.215 23.1035 22.3009 23.1495 22.7049 22.8618C23.0213 22.6366 22.9982 23.1982 22.9992 15.7238C23.0003 7.87795 23.0377 8.40969 22.4278 7.58865C21.8638 6.82934 20.5428 6.28691 19.9586 6.57483ZM5.52815 7.94916C5.02029 8.19941 5.02454 8.93846 5.53523 9.18077C5.7614 9.2881 11.378 9.2881 11.6042 9.18077C12.1183 8.93683 12.1183 8.19134 11.6042 7.9474C11.3784 7.84028 5.74576 7.84192 5.52815 7.94916Z" fill="#FF7A00"/>
</g>
</svg>
