<svg width="24" height="24" viewBox="0 0 24 24" fill="none" xmlns="http://www.w3.org/2000/svg">
<path d="M22.5101 13.7601C22.1392 13.2482 21.9396 12.6322 21.9396 12.0001C21.9396 11.368 22.1392 10.752 22.5101 10.2401L23.2701 9.19011C23.363 9.0619 23.4242 8.91345 23.4485 8.75698C23.4728 8.60051 23.4597 8.4405 23.4101 8.29011C23.36 8.1413 23.2762 8.0061 23.1651 7.89507C23.0541 7.78405 22.9189 7.70021 22.7701 7.65011L21.5401 7.25011C20.9376 7.05575 20.4123 6.67496 20.0403 6.16271C19.6682 5.65045 19.4686 5.03323 19.4701 4.40011V3.10011C19.47 2.94228 19.4325 2.78671 19.3607 2.64614C19.289 2.50556 19.1849 2.38397 19.0572 2.29131C18.9294 2.19865 18.7815 2.13755 18.6256 2.11301C18.4697 2.08847 18.3102 2.10118 18.1601 2.15011L16.9201 2.55011C16.3181 2.74491 15.6699 2.74439 15.0682 2.54862C14.4666 2.35285 13.9422 1.97186 13.5701 1.46011L12.8101 0.410112C12.7131 0.288421 12.5898 0.190158 12.4496 0.122624C12.3094 0.0550893 12.1557 0.0200195 12.0001 0.0200195C11.8444 0.0200195 11.6908 0.0550893 11.5506 0.122624C11.4103 0.190158 11.2871 0.288421 11.1901 0.410112L10.4301 1.46011C10.058 1.97186 9.53361 2.35285 8.93194 2.54862C8.33026 2.74439 7.68209 2.74491 7.08009 2.55011L5.84009 2.15011C5.69003 2.10118 5.53052 2.08847 5.37461 2.11301C5.21869 2.13755 5.0708 2.19865 4.94302 2.29131C4.81525 2.38397 4.71123 2.50556 4.63946 2.64614C4.56769 2.78671 4.53021 2.94228 4.53009 3.10011V4.40011C4.53163 5.03323 4.33196 5.65045 3.9599 6.16271C3.58784 6.67496 3.06264 7.05575 2.46009 7.25011L1.23009 7.65011C1.08129 7.70021 0.946081 7.78405 0.835055 7.89507C0.724029 8.0061 0.64019 8.1413 0.590094 8.29011C0.540505 8.4405 0.527339 8.60051 0.551679 8.75698C0.576018 8.91345 0.637167 9.0619 0.730094 9.19011L1.49009 10.2401C1.86094 10.752 2.06061 11.368 2.06061 12.0001C2.06061 12.6322 1.86094 13.2482 1.49009 13.7601L0.730094 14.8101C0.637167 14.9383 0.576018 15.0868 0.551679 15.2432C0.527339 15.3997 0.540505 15.5597 0.590094 15.7101C0.64019 15.8589 0.724029 15.9941 0.835055 16.1052C0.946081 16.2162 1.08129 16.3 1.23009 16.3501L2.46009 16.7501C3.06264 16.9445 3.58784 17.3253 3.9599 17.8375C4.33196 18.3498 4.53163 18.967 4.53009 19.6001V20.9001C4.53021 21.0579 4.56769 21.2135 4.63946 21.3541C4.71123 21.4947 4.81525 21.6163 4.94302 21.7089C5.0708 21.8016 5.21869 21.8627 5.37461 21.8872C5.53052 21.9118 5.69003 21.899 5.84009 21.8501L7.07009 21.4501C7.67337 21.252 8.32399 21.2509 8.92797 21.4468C9.53194 21.6427 10.058 22.0256 10.4301 22.5401L11.1901 23.5901C11.2835 23.7172 11.4054 23.8206 11.5461 23.8918C11.6869 23.9631 11.8424 24.0002 12.0001 24.0002C12.1578 24.0002 12.3133 23.9631 12.454 23.8918C12.5948 23.8206 12.7167 23.7172 12.8101 23.5901L13.5701 22.5401C13.9428 22.0263 14.4689 21.644 15.0727 21.4482C15.6764 21.2523 16.3267 21.253 16.9301 21.4501L18.1601 21.8501C18.3102 21.899 18.4697 21.9118 18.6256 21.8872C18.7815 21.8627 18.9294 21.8016 19.0572 21.7089C19.1849 21.6163 19.289 21.4947 19.3607 21.3541C19.4325 21.2135 19.47 21.0579 19.4701 20.9001V19.6001C19.4686 18.967 19.6682 18.3498 20.0403 17.8375C20.4123 17.3253 20.9376 16.9445 21.5401 16.7501L22.7701 16.3501C22.9189 16.3 23.0541 16.2162 23.1651 16.1052C23.2762 15.9941 23.36 15.8589 23.4101 15.7101C23.4597 15.5597 23.4728 15.3997 23.4485 15.2432C23.4242 15.0868 23.363 14.9383 23.2701 14.8101L22.5101 13.7601ZM16.7101 10.7071L11.7101 15.7071C11.5226 15.8946 11.2683 15.9999 11.0031 15.9999C10.7379 15.9999 10.4836 15.8946 10.2961 15.7071L7.29609 12.7071C7.20058 12.6149 7.1244 12.5045 7.07199 12.3825C7.01958 12.2605 6.992 12.1293 6.99084 11.9965C6.98969 11.8637 7.01499 11.7321 7.06527 11.6092C7.11555 11.4863 7.18981 11.3746 7.2837 11.2807C7.37759 11.1868 7.48924 11.1126 7.61214 11.0623C7.73504 11.012 7.86672 10.9867 7.99949 10.9879C8.13227 10.989 8.26349 11.0166 8.3855 11.069C8.5075 11.1214 8.61785 11.1976 8.71009 11.2931L11.0001 13.5861L15.2931 9.29311C15.4817 9.11095 15.7343 9.01016 15.9965 9.01244C16.2587 9.01472 16.5095 9.11989 16.6949 9.30529C16.8803 9.4907 16.9855 9.74151 16.9878 10.0037C16.99 10.2659 16.8893 10.5185 16.7071 10.7071H16.7101Z" fill="#009FE3"/>
</svg>
