<svg width="12" height="12" viewBox="0 0 12 12" fill="none" xmlns="http://www.w3.org/2000/svg">
<path d="M10.9998 8.24181C11.0031 8.3896 10.9602 8.53474 10.8772 8.65704C10.7941 8.77934 10.675 8.87273 10.5364 8.92422C10.3978 8.97571 10.2467 8.98274 10.1039 8.94434C9.96116 8.90593 9.83397 8.82401 9.73993 8.70994L6.0115 4.35779L2.28438 8.70994C2.22639 8.78885 2.15277 8.85493 2.06806 8.90404C1.98334 8.95316 1.88938 8.98426 1.79209 8.99539C1.6948 9.00652 1.59628 8.99744 1.50267 8.96873C1.40905 8.94001 1.32234 8.89228 1.24803 8.82851C1.17372 8.76474 1.11344 8.68632 1.07083 8.59815C1.02823 8.50998 1.0043 8.41397 1.00053 8.31612C0.996755 8.21827 1.01317 8.12069 1.04885 8.0295C1.08453 7.93831 1.13865 7.85547 1.20783 7.78617L5.47113 2.80335C5.53791 2.7251 5.62079 2.66227 5.7142 2.61918C5.80761 2.57609 5.90929 2.55378 6.01216 2.55378C6.11503 2.55378 6.2167 2.57609 6.31011 2.61918C6.40352 2.66227 6.48648 2.7251 6.55326 2.80335L10.8207 7.78617C10.9325 7.91204 10.996 8.07349 11 8.24181L10.9998 8.24181Z" fill="#8C8D8F"/>
</svg>
