<svg width="12" height="12" viewBox="0 0 12 12" fill="none" xmlns="http://www.w3.org/2000/svg">
<g id="next (4) 3" clip-path="url(#clip0_2970_24409)">
<g id="layer1">
<path id="path9429" d="M3.53505 11.223C3.38725 11.2262 3.24211 11.1834 3.11981 11.1003C2.99751 11.0173 2.90413 10.8981 2.85264 10.7596C2.80115 10.621 2.79412 10.4698 2.83252 10.3271C2.87092 10.1843 2.95285 10.0571 3.06691 9.96307L7.41907 6.23464L3.06691 2.50753C2.98801 2.44954 2.92193 2.37591 2.87281 2.2912C2.82369 2.20649 2.79259 2.11252 2.78146 2.01523C2.77033 1.91795 2.77941 1.81943 2.80813 1.72581C2.83684 1.6322 2.88458 1.54549 2.94834 1.47118C3.01211 1.39686 3.09053 1.33658 3.1787 1.29398C3.26687 1.25138 3.36289 1.22745 3.46074 1.22367C3.55859 1.2199 3.65616 1.23631 3.74735 1.27199C3.83854 1.30767 3.92138 1.3618 3.99068 1.43098L8.97351 5.69428C9.05175 5.76105 9.11459 5.84394 9.15768 5.93735C9.20076 6.03076 9.22307 6.13243 9.22307 6.2353C9.22307 6.33817 9.20076 6.43984 9.15768 6.53325C9.11459 6.62666 9.05176 6.70963 8.97351 6.77641L3.99069 11.0438C3.86481 11.1556 3.70336 11.2192 3.53505 11.2231L3.53505 11.223Z" fill="#FF7A00"/>
</g>
</g>
<defs>
<clipPath id="clip0_2970_24409">
<rect width="12" height="12" fill="white" transform="translate(12) rotate(90)"/>
</clipPath>
</defs>
</svg>
