<svg width="12" height="12" viewBox="0 0 12 12" fill="none" xmlns="http://www.w3.org/2000/svg">
<path d="M10.9998 3.75819C11.0031 3.6104 10.9602 3.46526 10.8772 3.34296C10.7941 3.22066 10.675 3.12727 10.5364 3.07578C10.3978 3.02429 10.2467 3.01726 10.1039 3.05566C9.96116 3.09407 9.83397 3.17599 9.73993 3.29006L6.0115 7.64221L2.28438 3.29006C2.22639 3.21115 2.15277 3.14507 2.06806 3.09596C1.98334 3.04684 1.88938 3.01574 1.79209 3.00461C1.6948 2.99348 1.59628 3.00256 1.50267 3.03127C1.40905 3.05999 1.32234 3.10772 1.24803 3.17149C1.17372 3.23526 1.11344 3.31368 1.07083 3.40185C1.02823 3.49002 1.0043 3.58603 1.00053 3.68388C0.996755 3.78173 1.01317 3.87931 1.04885 3.9705C1.08453 4.06169 1.13865 4.14453 1.20783 4.21383L5.47113 9.19665C5.53791 9.2749 5.62079 9.33773 5.7142 9.38082C5.80761 9.42391 5.90929 9.44622 6.01216 9.44622C6.11503 9.44622 6.2167 9.42391 6.31011 9.38082C6.40352 9.33773 6.48648 9.2749 6.55326 9.19665L10.8207 4.21383C10.9325 4.08796 10.996 3.92651 11 3.75819L10.9998 3.75819Z" fill="#8C8D8F"/>
</svg>
