<svg width="12" height="12" viewBox="0 0 12 12" fill="none" xmlns="http://www.w3.org/2000/svg">
<path d="M8.24181 1.00017C8.3896 0.996921 8.53474 1.03977 8.65704 1.12282C8.77934 1.20586 8.87273 1.32501 8.92422 1.46359C8.97571 1.60217 8.98274 1.75332 8.94434 1.89608C8.90593 2.03884 8.82401 2.16603 8.70994 2.26007L4.35779 5.9885L8.70994 9.71562C8.78885 9.77361 8.85493 9.84723 8.90404 9.93194C8.95316 10.0167 8.98426 10.1106 8.99539 10.2079C9.00652 10.3052 8.99744 10.4037 8.96873 10.4973C8.94001 10.5909 8.89228 10.6777 8.82851 10.752C8.76474 10.8263 8.68632 10.8866 8.59815 10.9292C8.50998 10.9718 8.41397 10.9957 8.31612 10.9995C8.21827 11.0032 8.12069 10.9868 8.0295 10.9512C7.93831 10.9155 7.85547 10.8613 7.78617 10.7922L2.80335 6.52887C2.7251 6.46209 2.66227 6.37921 2.61918 6.2858C2.57609 6.19239 2.55378 6.09071 2.55378 5.98784C2.55378 5.88497 2.57609 5.7833 2.61918 5.68989C2.66227 5.59648 2.7251 5.51351 2.80335 5.44674L7.78617 1.17934C7.91204 1.06753 8.07349 1.00397 8.24181 1.00001V1.00017Z" fill="#FF7A00"/>
</svg>
