<svg width="16" height="16" viewBox="0 0 16 16" fill="none" xmlns="http://www.w3.org/2000/svg">
<g id="cup-straw-swoosh 1" clip-path="url(#clip0_3533_1555)">
<path id="Vector" d="M13.652 9.808L13.268 13.0573C13.0706 14.7347 11.6473 16 9.95796 16H6.04129C4.35196 16 2.92929 14.7353 2.73063 13.0573L2.43063 10.516C3.01796 10.1493 4.55996 9.33333 5.69929 9.33333C6.39196 9.33333 7.13196 9.63333 7.91596 9.95133C8.78329 10.3033 9.68062 10.6667 10.6333 10.6667C11.682 10.6667 12.8406 10.208 13.652 9.808ZM14.6666 3.33333H9.67062L9.84796 1.91733C9.88929 1.584 10.174 1.33333 10.51 1.33333H12.6666C13.0346 1.33333 13.3333 1.03467 13.3333 0.666667C13.3333 0.298667 13.0346 0 12.6666 0H10.51C9.50396 0 8.64996 0.752667 8.52529 1.75133L8.32729 3.33333H1.33329C0.965293 3.33333 0.666626 3.632 0.666626 4C0.666626 4.368 0.965293 4.66667 1.33329 4.66667H1.74063L2.26129 9.076C3.04996 8.64867 4.45263 8 5.69996 8C6.65196 8 7.54929 8.36333 8.41729 8.71533C9.20129 9.03333 9.94129 9.33333 10.634 9.33333C11.7373 9.33333 13.2186 8.56867 13.844 8.18733L14.26 4.66667H14.6673C15.0353 4.66667 15.334 4.368 15.334 4C15.334 3.632 15.0346 3.33333 14.6666 3.33333Z" fill="white"/>
</g>
<defs>
<clipPath id="clip0_3533_1555">
<rect width="16" height="16" fill="white"/>
</clipPath>
</defs>
</svg>
