<svg width="24" height="24" viewBox="0 0 24 24" fill="none" xmlns="http://www.w3.org/2000/svg">
<path d="M13 15.4001H8.6C8.27 15.4001 8 15.1301 8 14.8001C8 14.4701 8.27 14.2001 8.6 14.2001H13C13.33 14.2001 13.6 14.4701 13.6 14.8001C13.6 15.1301 13.33 15.4001 13 15.4001Z" fill="#191C1F"/>
<path d="M10.2 17C9.87 17 9.6 16.73 9.6 16.4V13.4H8.6C8.27 13.4 8 13.13 8 12.8C8 12.47 8.27 12.2 8.6 12.2H9.6V7.6C9.6 7.27 9.87 7 10.2 7H13.2C14.965 7 16.4 8.435 16.4 10.2C16.4 11.965 14.965 13.4 13.2 13.4H10.8V16.4C10.8 16.73 10.53 17 10.2 17ZM10.8 12.2H13.2C14.305 12.2 15.2 11.305 15.2 10.2C15.2 9.095 14.305 8.2 13.2 8.2H10.8V12.2Z" fill="#191C1F"/>
<path d="M12 2C10.0222 2 8.08879 2.58649 6.4443 3.6853C4.79981 4.78412 3.51809 6.3459 2.76121 8.17316C2.00433 10.0004 1.8063 12.0111 2.19215 13.9509C2.578 15.8907 3.53041 17.6725 4.92894 19.0711C6.32746 20.4696 8.10929 21.422 10.0491 21.8078C11.9889 22.1937 13.9996 21.9957 15.8268 21.2388C17.6541 20.4819 19.2159 19.2002 20.3147 17.5557C21.4135 15.9112 22 13.9778 22 12C22 9.34783 20.9464 6.8043 19.0711 4.92893C17.1957 3.05357 14.6522 2 12 2ZM12 20.3333C10.3518 20.3333 8.74066 19.8446 7.37025 18.9289C5.99984 18.0132 4.93174 16.7117 4.30101 15.189C3.67028 13.6663 3.50525 11.9908 3.82679 10.3742C4.14834 8.75774 4.94201 7.27288 6.10745 6.10744C7.27288 4.94201 8.75774 4.14833 10.3743 3.82679C11.9908 3.50525 13.6663 3.67027 15.189 4.301C16.7117 4.93173 18.0132 5.99984 18.9289 7.37025C19.8446 8.74066 20.3333 10.3518 20.3333 12C20.3333 14.2101 19.4554 16.3298 17.8926 17.8926C16.3298 19.4554 14.2101 20.3333 12 20.3333Z" fill="#191C1F"/>
</svg>
