<svg width="20" height="20" viewBox="0 0 20 20" fill="none" xmlns="http://www.w3.org/2000/svg">
<path d="M16.25 4.375H13.125V2.5C13.125 2.33424 13.0592 2.17527 12.9419 2.05806C12.8247 1.94085 12.6658 1.875 12.5 1.875H7.5C7.33424 1.875 7.17527 1.94085 7.05806 2.05806C6.94085 2.17527 6.875 2.33424 6.875 2.5V4.375H3.75C3.58424 4.375 3.42527 4.44085 3.30806 4.55806C3.19085 4.67527 3.125 4.83424 3.125 5C3.125 5.16576 3.19085 5.32473 3.30806 5.44194C3.42527 5.55915 3.58424 5.625 3.75 5.625H16.25C16.4158 5.625 16.5747 5.55915 16.6919 5.44194C16.8092 5.32473 16.875 5.16576 16.875 5C16.875 4.83424 16.8092 4.67527 16.6919 4.55806C16.5747 4.44085 16.4158 4.375 16.25 4.375ZM8.125 3.125H11.875V4.375H8.125V3.125Z" fill="#FF2C2C"/>
<path d="M15 6.875C14.8342 6.875 14.6753 6.94085 14.5581 7.05806C14.4408 7.17527 14.375 7.33424 14.375 7.5V16.25C14.3749 16.4157 14.309 16.5746 14.1918 16.6918C14.0746 16.809 13.9157 16.8749 13.75 16.875H6.25C6.08427 16.8749 5.92536 16.809 5.80817 16.6918C5.69098 16.5746 5.6251 16.4157 5.625 16.25V7.5C5.625 7.33424 5.55915 7.17527 5.44194 7.05806C5.32473 6.94085 5.16576 6.875 5 6.875C4.83424 6.875 4.67527 6.94085 4.55806 7.05806C4.44085 7.17527 4.375 7.33424 4.375 7.5V16.25C4.37555 16.7471 4.57327 17.2237 4.92478 17.5752C5.27629 17.9267 5.75289 18.1245 6.25 18.125H13.75C14.2471 18.1245 14.7237 17.9267 15.0752 17.5752C15.4267 17.2237 15.6245 16.7471 15.625 16.25V7.5C15.625 7.33424 15.5592 7.17527 15.4419 7.05806C15.3247 6.94085 15.1658 6.875 15 6.875Z" fill="#FF2C2C"/>
<path d="M9.38751 13.75V8.75C9.38751 8.58424 9.32166 8.42527 9.20445 8.30806C9.08724 8.19085 8.92827 8.125 8.76251 8.125C8.59675 8.125 8.43778 8.19085 8.32057 8.30806C8.20336 8.42527 8.13751 8.58424 8.13751 8.75V13.75C8.13751 13.9158 8.20336 14.0747 8.32057 14.1919C8.43778 14.3092 8.59675 14.375 8.76251 14.375C8.92827 14.375 9.08724 14.3092 9.20445 14.1919C9.32166 14.0747 9.38751 13.9158 9.38751 13.75Z" fill="#FF2C2C"/>
<path d="M11.8628 13.75V8.75C11.8628 8.58424 11.7969 8.42527 11.6797 8.30806C11.5625 8.19085 11.4036 8.125 11.2378 8.125C11.072 8.125 10.9131 8.19085 10.7959 8.30806C10.6786 8.42527 10.6128 8.58424 10.6128 8.75V13.75C10.6128 13.9158 10.6786 14.0747 10.7959 14.1919C10.9131 14.3092 11.072 14.375 11.2378 14.375C11.4036 14.375 11.5625 14.3092 11.6797 14.1919C11.7969 14.0747 11.8628 13.9158 11.8628 13.75Z" fill="#FF2C2C"/>
</svg>
