<svg width="24" height="24" viewBox="0 0 24 24" fill="none" xmlns="http://www.w3.org/2000/svg">
<g id="icon">
<path id="add-item 1 (Traced)" fill-rule="evenodd" clip-rule="evenodd" d="M4.38791 1.22634C3.54045 1.40484 2.9757 1.69293 2.45863 2.21053C1.79994 2.86992 1.44509 3.74568 1.37544 4.88395C1.32566 5.69704 1.23936 12.6062 1.27334 13.0553C1.3198 13.6691 1.45508 14.1719 1.71669 14.7032C2.09342 15.4685 2.76969 16.0464 3.6432 16.3497C4.20195 16.5437 4.50598 16.5815 5.90511 16.6309C7.71908 16.6949 8.15352 16.6806 8.32761 16.5515C8.78769 16.2103 8.78764 15.6355 8.32747 15.2945C8.20213 15.2016 8.10322 15.1937 6.45247 15.144C4.61633 15.0887 4.38913 15.062 3.90542 14.844C3.35103 14.5943 3.03139 14.1859 2.8572 13.505C2.74527 13.0672 2.73767 12.0795 2.81272 7.71989C2.86508 4.67976 2.89288 4.34221 3.13494 3.8084C3.39186 3.24168 3.79419 2.9256 4.48363 2.74875C4.81784 2.66301 4.99405 2.655 6.46761 2.65846C8.95363 2.66428 10.7949 2.72789 11.1317 2.81962C11.7964 3.00056 12.2031 3.29325 12.4601 3.7754C12.6454 4.12303 12.7333 4.50656 12.7852 5.19342C12.8314 5.80364 12.9014 5.96067 13.1886 6.09693C13.5782 6.28176 13.9954 6.13837 14.1903 5.75254C14.3086 5.51821 14.3188 5.32903 14.2472 4.69645C14.0219 2.70829 12.932 1.57035 10.9676 1.27228C10.29 1.16948 4.83856 1.13137 4.38791 1.22634ZM13.2943 7.30392C12.2538 7.40971 11.4559 7.77824 10.849 8.43328C10.4971 8.81296 10.2903 9.15932 10.1205 9.65296C9.85466 10.4257 9.84603 10.556 9.77338 14.8804C9.692 19.7267 9.69641 19.7911 10.1795 20.7944C10.3808 21.2125 10.4699 21.338 10.7967 21.6632C11.2363 22.1008 11.6917 22.3636 12.3315 22.549C13.0263 22.7504 13.4631 22.7743 16.5883 22.7825C19.4922 22.7901 19.5261 22.7891 19.8973 22.6856C21.5686 22.2194 22.5119 20.966 22.6232 19.0636C22.6726 18.2185 22.7566 11.5437 22.7246 11.0036C22.611 9.08629 21.6035 7.87321 19.7801 7.45832C19.2778 7.34404 14.1096 7.221 13.2943 7.30392ZM17.0614 8.8244C19.1981 8.8545 19.5755 8.89176 20.086 9.12328C20.4272 9.27801 20.7967 9.61856 20.9506 9.92029C21.1898 10.3891 21.2332 10.73 21.2332 12.1368C21.2332 14.8867 21.1395 19.0225 21.0674 19.452C20.8993 20.454 20.4414 20.9772 19.5141 21.227C19.1838 21.316 19.0283 21.3254 17.952 21.3217C15.471 21.3133 13.528 21.2617 13.1105 21.1932C11.9622 21.0046 11.3852 20.3817 11.2513 19.1861C11.1999 18.7266 11.3245 11.0811 11.3895 10.709C11.5019 10.0652 11.6845 9.67687 12.0201 9.3675C12.5345 8.89345 13.1332 8.74617 14.4129 8.77898C14.7996 8.78892 15.9914 8.80935 17.0614 8.8244ZM16.1308 12.7681C16.0445 12.8107 15.9215 12.9245 15.8577 13.021C15.7565 13.1739 15.7381 13.266 15.715 13.7358L15.6884 14.275L15.121 14.2904C14.6159 14.3041 14.5367 14.3178 14.4005 14.415C13.9435 14.7409 14.0012 15.4656 14.5022 15.6931C14.6508 15.7606 14.8085 15.7806 15.2002 15.7814L15.7063 15.7824L15.6935 16.3332C15.683 16.7814 15.6956 16.9117 15.7609 17.0326C16.0208 17.5139 16.7418 17.5508 17.0413 17.0982C17.1372 16.9533 17.158 16.8489 17.1849 16.379L17.2163 15.8293L17.7365 15.8285C18.1876 15.8278 18.2812 15.8138 18.4415 15.723C18.9575 15.4308 18.9339 14.6602 18.4018 14.4185C18.2533 14.3511 18.0954 14.3311 17.7043 14.3303L17.1987 14.3293L17.2085 13.7696C17.2178 13.2382 17.2122 13.2008 17.0971 13.027C16.8878 12.7107 16.4729 12.5996 16.1308 12.7681Z" fill="#191C1F"/>
</g>
</svg>
