<svg width="16" height="16" viewBox="0 0 16 16" fill="none" xmlns="http://www.w3.org/2000/svg">
<g opacity="0.5">
<path d="M13.8231 5.59735C14.1506 5.26983 14.3334 4.83315 14.3334 4.36853C14.3334 3.90392 14.1531 3.46723 13.8231 3.13971L12.5282 1.84488C12.1982 1.51229 11.7615 1.33203 11.2969 1.33203C10.8323 1.33203 10.3956 1.51229 10.0681 1.84235L1.99188 9.91852C1.53996 10.3704 1.3013 10.9925 1.33685 11.6297L1.33431 13.6964C1.33431 13.8639 1.40032 14.0264 1.51965 14.1458C1.63897 14.2651 1.79892 14.3311 1.96903 14.3311L4.03568 14.3286C4.67294 14.3641 5.29496 14.1254 5.74688 13.6735C5.99569 13.4247 5.99569 13.0236 5.74688 12.7748C5.49807 12.526 5.09693 12.526 4.84812 12.7748C4.65009 12.9728 4.37335 13.0769 4.09407 13.0591C4.08138 13.0591 4.06614 13.0566 4.05345 13.0566L2.60375 13.0617L2.60629 11.612C2.60629 11.5993 2.60629 11.584 2.60375 11.5713C2.58598 11.2921 2.69007 11.0153 2.8881 10.8173L9.61867 4.08672L11.5787 6.04673L6.52124 11.1042C6.27243 11.353 6.27243 11.7541 6.52124 12.0029C6.77005 12.2518 7.17119 12.2518 7.42 12.0029L13.8231 5.59735ZM10.5174 3.18795L10.9668 2.73857C11.0557 2.64971 11.1725 2.60147 11.2994 2.60147C11.4238 2.60147 11.5431 2.64971 11.632 2.73857L12.9268 4.0334C13.1096 4.2162 13.1096 4.51579 12.9268 4.69859L12.4775 5.14797L10.5174 3.18795Z" fill="#8C8D8F"/>
<path d="M13.6986 13.0625H7.97347C7.6231 13.0625 7.33875 13.3469 7.33875 13.6972C7.33875 14.0476 7.6231 14.3319 7.97347 14.3319H13.6986C14.049 14.3319 14.3334 14.0476 14.3334 13.6972C14.3334 13.3469 14.049 13.0625 13.6986 13.0625Z" fill="#8C8D8F"/>
</g>
</svg>
