<svg width="20" height="20" viewBox="0 0 20 20" fill="none" xmlns="http://www.w3.org/2000/svg">
<g id="emoji" clip-path="url(#clip0_2968_32929)">
<path id="emoji 1 (Traced)" fill-rule="evenodd" clip-rule="evenodd" d="M9.29531 0.0278124C1.24633 0.625506 -2.83528 10.0223 2.22741 16.2996C7.14891 22.4019 16.9051 20.6651 19.459 13.2321C21.7675 6.51326 16.3711 -0.497585 9.29531 0.0278124ZM10.8423 1.86414C16.6241 2.4943 19.9463 8.74788 17.2136 13.8573C14.0551 19.7628 5.53572 19.5772 2.62344 13.5394C-0.137807 7.81472 4.53499 1.17671 10.8423 1.86414ZM6.9066 6.44032C6.73395 6.51859 6.50444 6.75301 6.43303 6.92404C6.33511 7.15855 6.35285 9.25127 6.45469 9.47558C6.70595 10.029 7.41645 10.1761 7.86773 9.76822C8.15531 9.50825 8.17134 9.41608 8.15697 8.10578L8.14431 6.95117L8.02776 6.78431C7.78307 6.43392 7.2687 6.27611 6.9066 6.44032ZM12.3632 6.44032C12.1905 6.51859 11.961 6.75301 11.8896 6.92404C11.7917 7.15855 11.8094 9.25127 11.9113 9.47558C12.1625 10.029 12.873 10.1761 13.3243 9.76822C13.6119 9.50825 13.6279 9.41608 13.6136 8.10578L13.6009 6.95117L13.4843 6.78431C13.2397 6.43392 12.7253 6.27611 12.3632 6.44032ZM6.03543 11.8899C5.25982 12.1996 5.26626 12.9325 6.05175 13.7514C8.21537 16.0068 11.6614 16.0419 13.8615 13.8309C14.676 13.0123 14.7659 12.4327 14.1459 11.9973C13.6867 11.6747 13.3305 11.7825 12.6844 12.44C11.8099 13.3298 11.1676 13.6094 9.9987 13.6094C8.83363 13.6094 8.17803 13.3262 7.32957 12.4565C6.74679 11.8591 6.4442 11.7267 6.03543 11.8899Z" fill="#8C8D8F"/>
</g>
<defs>
<clipPath id="clip0_2968_32929">
<rect width="20" height="20" fill="white"/>
</clipPath>
</defs>
</svg>
