<svg width="24" height="24" viewBox="0 0 24 24" fill="none" xmlns="http://www.w3.org/2000/svg">
<g id="export">
<g id="Group 278">
<path id="export (1) 1 (Traced)" fill-rule="evenodd" clip-rule="evenodd" d="M11.644 3.05862C11.5147 3.10472 11.0522 3.54392 9.56768 5.03029C8.50045 6.09881 7.62718 7.0071 7.58848 7.0887C7.55042 7.16903 7.51007 7.31649 7.49882 7.41636C7.44495 7.89507 7.90296 8.3962 8.39578 8.39768C8.74124 8.39873 8.92369 8.25934 10.0187 7.15776L11.0515 6.11878L11.0726 10.5411C11.0937 14.9618 11.0937 14.9634 11.1841 15.1322C11.355 15.4518 11.6026 15.591 12 15.591C12.3974 15.591 12.645 15.4518 12.8159 15.1322C12.9063 14.9634 12.9063 14.9618 12.9274 10.5411L12.9485 6.11878L13.9813 7.15776C15.0763 8.25934 15.2588 8.39873 15.6042 8.39768C16.0634 8.39629 16.5078 7.9513 16.5092 7.49142C16.5103 7.11871 16.4211 7.01292 14.4176 5.01281C13.1239 3.72122 12.4774 3.10476 12.3702 3.0604C12.1771 2.98057 11.865 2.97977 11.644 3.05862ZM3.67447 13.7977C3.38163 13.8738 3.22118 14.0001 3.07887 14.2668C3.00476 14.4056 3 14.545 3 16.5675C3 18.4993 3.00767 18.7483 3.07482 18.9918C3.34242 19.9624 4.03755 20.6569 5.01119 20.9266C5.25801 20.9949 5.74173 21 12 21C18.2583 21 18.742 20.9949 18.9888 20.9266C19.9625 20.6569 20.6576 19.9624 20.9252 18.9918C20.9923 18.7483 21 18.4993 21 16.5675C21 14.545 20.9952 14.4056 20.9211 14.2668C20.7393 13.926 20.4998 13.7873 20.0937 13.7873C19.6875 13.7873 19.4481 13.926 19.2662 14.2668C19.193 14.4039 19.1858 14.5677 19.1663 16.5285L19.1452 18.6424L19.0436 18.7907C18.9878 18.8724 18.8753 18.9849 18.7938 19.0408L18.6455 19.1426H12H5.35446L5.20624 19.0408C5.12467 18.9849 5.01225 18.8724 4.95639 18.7907L4.8548 18.6424L4.83372 16.5285C4.81319 14.4687 4.81033 14.4103 4.72227 14.2457C4.61992 14.0544 4.5327 13.9683 4.34498 13.8732C4.18459 13.7919 3.84436 13.7536 3.67447 13.7977Z" fill="#FF7A00"/>
</g>
</g>
</svg>
