<svg width="24" height="24" viewBox="0 0 24 24" fill="none" xmlns="http://www.w3.org/2000/svg">
<path d="M12 18.7499C10.9507 18.7523 9.9114 18.5467 8.94206 18.145C7.97272 17.7434 7.09257 17.1537 6.35245 16.4099L2.46745 12.5324C2.39716 12.4627 2.34136 12.3798 2.30329 12.2884C2.26521 12.197 2.24561 12.099 2.24561 11.9999C2.24561 11.9009 2.26521 11.8029 2.30329 11.7115C2.34136 11.6201 2.39716 11.5372 2.46745 11.4674L6.35245 7.58995C7.85036 6.09231 9.88179 5.25098 12 5.25098C14.1181 5.25098 16.1495 6.09231 17.6475 7.58995L21.5325 11.4674C21.6028 11.5372 21.6585 11.6201 21.6966 11.7115C21.7347 11.8029 21.7543 11.9009 21.7543 11.9999C21.7543 12.099 21.7347 12.197 21.6966 12.2884C21.6585 12.3798 21.6028 12.4627 21.5325 12.5324L17.6475 16.4099C16.9073 17.1537 16.0272 17.7434 15.0578 18.145C14.0885 18.5467 13.0492 18.7523 12 18.7499ZM4.05745 11.9999L7.40995 15.3524C8.62876 16.567 10.2793 17.249 12 17.249C13.7206 17.249 15.3712 16.567 16.59 15.3524L19.9425 11.9999L16.59 8.64745C15.3712 7.43285 13.7206 6.75086 12 6.75086C10.2793 6.75086 8.62876 7.43285 7.40995 8.64745L4.05745 11.9999Z" fill="#C2C2C2"/>
<path d="M12 15C11.4067 15 10.8266 14.8241 10.3333 14.4944C9.83994 14.1648 9.45543 13.6962 9.22836 13.1481C9.0013 12.5999 8.94189 11.9967 9.05765 11.4147C9.1734 10.8328 9.45912 10.2982 9.87868 9.87868C10.2982 9.45912 10.8328 9.1734 11.4147 9.05765C11.9967 8.94189 12.5999 9.0013 13.1481 9.22836C13.6962 9.45543 14.1648 9.83994 14.4944 10.3333C14.8241 10.8266 15 11.4067 15 12C15 12.7957 14.6839 13.5587 14.1213 14.1213C13.5587 14.6839 12.7957 15 12 15ZM12 10.5C11.7033 10.5 11.4133 10.588 11.1666 10.7528C10.92 10.9176 10.7277 11.1519 10.6142 11.426C10.5007 11.7001 10.4709 12.0017 10.5288 12.2926C10.5867 12.5836 10.7296 12.8509 10.9393 13.0607C11.1491 13.2704 11.4164 13.4133 11.7074 13.4712C11.9983 13.5291 12.2999 13.4994 12.574 13.3858C12.8481 13.2723 13.0824 13.08 13.2472 12.8334C13.412 12.5867 13.5 12.2967 13.5 12C13.5 11.6022 13.342 11.2206 13.0607 10.9393C12.7794 10.658 12.3978 10.5 12 10.5Z" fill="#C2C2C2"/>
</svg>
