<svg width="24" height="24" viewBox="0 0 24 24" fill="none" xmlns="http://www.w3.org/2000/svg">
<path d="M13 3C11.0222 3 9.08879 3.58649 7.4443 4.6853C5.79981 5.78412 4.51809 7.3459 3.76121 9.17316C3.00433 11.0004 2.8063 13.0111 3.19215 14.9509C3.578 16.8907 4.53041 18.6725 5.92894 20.0711C7.32746 21.4696 9.10929 22.422 11.0491 22.8078C12.9889 23.1937 14.9996 22.9957 16.8268 22.2388C18.6541 21.4819 20.2159 20.2002 21.3147 18.5557C22.4135 16.9112 23 14.9778 23 13C23 10.3478 21.9464 7.8043 20.0711 5.92893C18.1957 4.05357 15.6522 3 13 3ZM13 21.3333C11.3518 21.3333 9.74066 20.8446 8.37025 19.9289C6.99984 19.0132 5.93174 17.7117 5.30101 16.189C4.67028 14.6663 4.50525 12.9908 4.82679 11.3742C5.14834 9.75774 5.94201 8.27288 7.10745 7.10744C8.27288 5.94201 9.75774 5.14833 11.3743 4.82679C12.9908 4.50525 14.6663 4.67027 16.189 5.301C17.7117 5.93173 19.0132 6.99984 19.9289 8.37025C20.8446 9.74066 21.3333 11.3518 21.3333 13C21.3333 15.2101 20.4554 17.3298 18.8926 18.8926C17.3298 20.4554 15.2101 21.3333 13 21.3333Z" fill="#191C1F"/>
<path d="M13.7166 7.24984C12.9164 7.07518 12.0799 7.20122 11.3668 7.60392C10.6536 8.00662 10.1136 8.65778 9.84993 9.43318C9.81374 9.53703 9.79889 9.64713 9.80629 9.75686C9.81369 9.86659 9.84318 9.9737 9.89299 10.0718C9.94279 10.1698 10.0119 10.2568 10.0961 10.3275C10.1804 10.3982 10.278 10.4511 10.3833 10.4832C10.4883 10.5167 10.5989 10.529 10.7088 10.5194C10.8186 10.5099 10.9254 10.4786 11.0231 10.4274C11.1208 10.3763 11.2073 10.3062 11.2777 10.2214C11.3481 10.1366 11.401 10.0386 11.4333 9.93318C11.5692 9.55695 11.836 9.24219 12.1848 9.04636C12.5336 8.85052 12.9413 8.78669 13.3333 8.86651C13.7149 8.98203 14.0424 9.23052 14.2565 9.56689C14.4705 9.90327 14.5569 10.3052 14.4999 10.6998C14.4119 11.0727 14.1982 11.4039 13.8946 11.6377C13.5911 11.8714 13.2162 11.9934 12.8333 11.9832C12.7157 11.969 12.5965 11.98 12.4836 12.0154C12.3706 12.0509 12.2665 12.11 12.1782 12.1889C12.0899 12.2677 12.0194 12.3645 11.9714 12.4727C11.9234 12.5809 11.8991 12.6981 11.8999 12.8165V15.4165C11.8999 15.6375 11.9877 15.8495 12.144 16.0058C12.3003 16.162 12.5122 16.2498 12.7333 16.2498C12.8419 16.2521 12.9499 16.2326 13.0509 16.1925C13.1519 16.1525 13.2439 16.0927 13.3215 16.0166C13.3991 15.9406 13.4608 15.8498 13.5029 15.7496C13.545 15.6494 13.5666 15.5418 13.5666 15.4332V13.5998C14.2064 13.4651 14.7924 13.1452 15.2517 12.6799C15.711 12.2147 16.0234 11.6246 16.1499 10.9832C16.2765 10.1703 16.098 9.33932 15.6488 8.65012C15.1996 7.96091 14.5114 7.46217 13.7166 7.24984ZM12.6833 16.9832C12.4661 16.9952 12.2611 17.0868 12.1073 17.2406C11.9535 17.3943 11.8619 17.5994 11.8499 17.8165V17.9998C11.8521 18.1042 11.875 18.207 11.9174 18.3023C11.9598 18.3977 12.0209 18.4836 12.097 18.555C12.173 18.6264 12.2626 18.6819 12.3604 18.7182C12.4583 18.7546 12.5623 18.771 12.6666 18.7665C12.8892 18.7539 13.0989 18.6576 13.2535 18.4968C13.408 18.3361 13.4961 18.1228 13.4999 17.8998V17.7665C13.5 17.6608 13.4787 17.5561 13.4373 17.4588C13.3958 17.3616 13.3351 17.2737 13.2588 17.2005C13.1825 17.1273 13.0922 17.0703 12.9933 17.033C12.8944 16.9956 12.7889 16.9787 12.6833 16.9832Z" fill="#191C1F"/>
</svg>
