<svg width="20" height="20" viewBox="0 0 20 20" fill="none" xmlns="http://www.w3.org/2000/svg">
<g id="Frame 42" clip-path="url(#clip0_2968_32934)">
<g id="Group 370">
<path id="attach (1) 1 (Traced)" fill-rule="evenodd" clip-rule="evenodd" d="M12.6459 0.607177C11.5588 0.776903 10.6403 1.16675 9.74582 1.83804C9.22445 2.22933 1.01499 10.4624 0.771791 10.8379C-0.157623 12.2728 -0.252467 13.9758 0.513588 15.4733C1.35788 17.1237 3.09824 18.0796 4.97042 17.9214C5.81214 17.8502 6.55871 17.5681 7.28285 17.0476C7.41289 16.9541 9.25308 15.1408 11.3722 13.0179L15.2251 9.15819L15.4045 8.7871C16.0697 7.41132 15.5569 5.84077 14.2116 5.13386C13.3244 4.66769 12.146 4.76331 11.332 5.36757C11.233 5.44104 10.0422 6.61401 8.68566 7.97421C6.66851 9.99675 6.20999 10.4757 6.16851 10.6035C5.91796 11.3755 6.65968 12.078 7.38253 11.7533C7.51718 11.6928 8.12507 11.1084 9.98019 9.25597C12.5936 6.64632 12.5552 6.67944 12.9685 6.67944C13.4734 6.67944 13.8678 7.0839 13.8665 7.60022C13.8656 7.96034 13.9021 7.92054 9.97445 11.8401C7.54956 14.2601 6.1939 15.5852 6.05113 15.6751C5.56882 15.9788 5.10742 16.1064 4.51144 16.1007C3.82292 16.0942 3.21515 15.8511 2.71308 15.3815C1.70413 14.4376 1.54753 12.9543 2.33601 11.8091C2.5355 11.5193 10.5033 3.56015 10.8843 3.27003C11.409 2.87046 12.2115 2.53284 12.9033 2.42054C13.2558 2.36335 14.0029 2.37229 14.3812 2.43827C16.0657 2.73202 17.4347 3.92292 17.9446 5.53823C18.3676 6.87843 18.1725 8.26561 17.3915 9.47069C17.2569 9.67847 16.2264 10.734 13.1012 13.8652C9.91058 17.062 8.97027 18.0257 8.90878 18.1621C8.56152 18.9325 9.34499 19.7163 10.1169 19.3708C10.2542 19.3093 11.1836 18.4001 14.359 15.2212C18.3528 11.223 18.6781 10.8795 19.0564 10.2616C20.0441 8.6478 20.2669 6.67136 19.6625 4.88616C18.9601 2.81171 17.2233 1.21854 15.1169 0.716513C14.3832 0.54163 13.3567 0.496239 12.6459 0.607177Z" fill="#8C8D8F"/>
</g>
</g>
<defs>
<clipPath id="clip0_2968_32934">
<rect width="20" height="20" fill="white"/>
</clipPath>
</defs>
</svg>
