<svg width="24" height="24" viewBox="0 0 24 24" fill="none" xmlns="http://www.w3.org/2000/svg">
<path d="M20.25 12.75H3.75C2.925 12.75 2.25 12.075 2.25 11.25V8.25C2.25 7.425 2.925 6.75 3.75 6.75H20.25C21.075 6.75 21.75 7.425 21.75 8.25V11.25C21.75 12.075 21.075 12.75 20.25 12.75ZM3.75 8.25V11.25H20.25V8.25H3.75Z" fill="#191C1F"/>
<path d="M18.75 20.25H5.25C4.425 20.25 3.75 19.575 3.75 18.75V12C3.75 11.5875 4.0875 11.25 4.5 11.25C4.9125 11.25 5.25 11.5875 5.25 12V18.75H18.75V12C18.75 11.5875 19.0875 11.25 19.5 11.25C19.9125 11.25 20.25 11.5875 20.25 12V18.75C20.25 19.575 19.575 20.25 18.75 20.25Z" fill="#191C1F"/>
<path d="M12 20.25C11.5875 20.25 11.25 19.9125 11.25 19.5V7.5C11.25 7.0875 11.5875 6.75 12 6.75C12.4125 6.75 12.75 7.0875 12.75 7.5V19.5C12.75 19.9125 12.4125 20.25 12 20.25Z" fill="#191C1F"/>
<path d="M12 8.24999C11.6437 8.24999 8.47495 8.21249 7.22808 6.96561C6.06558 5.79374 6.06558 3.89061 7.22808 2.72811C8.39995 1.55624 10.3031 1.55624 11.475 2.72811C11.6812 2.93436 11.8593 3.19686 12.0093 3.49686C12.1593 3.20624 12.3281 2.93436 12.5437 2.72811C13.1062 2.16561 13.8656 1.84686 14.6625 1.84686C15.4593 1.84686 16.2187 2.15624 16.7812 2.72811C17.9531 3.89999 17.9531 5.80311 16.7812 6.96561C15.525 8.21249 12.3562 8.24999 12 8.24999ZM14.6531 3.34686C14.2687 3.34686 13.8843 3.49686 13.5937 3.78749C13.1343 4.24686 12.8718 5.58749 12.7875 6.72186C13.9125 6.63749 15.2531 6.37499 15.7218 5.91561C16.3031 5.33436 16.3031 4.37811 15.7218 3.79686C15.4218 3.49686 15.0375 3.34686 14.6531 3.34686ZM8.28745 5.90624C8.74683 6.36561 10.0875 6.62811 11.2218 6.71249C11.1375 5.58749 10.875 4.24686 10.4156 3.77811C9.83433 3.19686 8.87808 3.19686 8.29683 3.77811C7.7062 4.37811 7.7062 5.32499 8.28745 5.90624Z" fill="#191C1F"/>
</svg>
