<svg width="24" height="24" viewBox="0 0 24 24" fill="none" xmlns="http://www.w3.org/2000/svg">
<path d="M2.25 18.75C2.44891 18.75 2.63968 18.671 2.78033 18.5303C2.92098 18.3897 3 18.1989 3 18V3C3 2.80109 2.92098 2.61032 2.78033 2.46967C2.63968 2.32902 2.44891 2.25 2.25 2.25C2.05109 2.25 1.86032 2.32902 1.71967 2.46967C1.57902 2.61032 1.5 2.80109 1.5 3V18C1.5 18.1989 1.57902 18.3897 1.71967 18.5303C1.86032 18.671 2.05109 18.75 2.25 18.75Z" fill="#191C1F"/>
<path d="M21.75 20.25H2.25C2.05109 20.25 1.86032 20.329 1.71967 20.4697C1.57902 20.6103 1.5 20.8011 1.5 21C1.5 21.1989 1.57902 21.3897 1.71967 21.5303C1.86032 21.671 2.05109 21.75 2.25 21.75H21.75C21.9489 21.75 22.1397 21.671 22.2803 21.5303C22.421 21.3897 22.5 21.1989 22.5 21C22.5 20.8011 22.421 20.6103 22.2803 20.4697C22.1397 20.329 21.9489 20.25 21.75 20.25Z" fill="#191C1F"/>
<path d="M5.2499 18.7495H5.3699C13.2299 17.4895 17.4374 13.702 19.1699 6.18704L19.4174 6.48704C19.4879 6.5717 19.5762 6.63979 19.676 6.68646C19.7758 6.73312 19.8847 6.75722 19.9949 6.75704C20.1701 6.75738 20.34 6.69635 20.4749 6.58454C20.5508 6.52158 20.6136 6.44426 20.6596 6.357C20.7056 6.26973 20.734 6.17425 20.743 6.07602C20.7521 5.97779 20.7417 5.87873 20.7124 5.78453C20.6831 5.69033 20.6355 5.60283 20.5724 5.52704L19.3274 4.02704C19.2959 3.99314 19.2607 3.96295 19.2224 3.93704L19.1399 3.86954C19.0625 3.81508 18.9762 3.77448 18.8849 3.74954H18.8474C18.7681 3.73453 18.6867 3.73453 18.6074 3.74954L18.5099 3.78704C18.4659 3.79748 18.4232 3.81257 18.3824 3.83204L16.5674 4.85954C16.4808 4.90791 16.4047 4.97296 16.3434 5.05094C16.2822 5.12891 16.237 5.21827 16.2105 5.31382C16.184 5.40938 16.1767 5.50924 16.189 5.60763C16.2014 5.70603 16.2331 5.80099 16.2824 5.88704C16.3801 6.05987 16.5423 6.18692 16.7335 6.24034C16.9247 6.29377 17.1293 6.2692 17.3024 6.17204L17.6849 5.99954C16.0724 12.787 12.3449 16.102 5.1299 17.2495C4.93099 17.2655 4.74654 17.3597 4.61714 17.5116C4.48774 17.6635 4.42398 17.8606 4.4399 18.0595C4.45581 18.2585 4.55009 18.4429 4.70199 18.5723C4.8539 18.7017 5.05099 18.7655 5.2499 18.7495Z" fill="#191C1F"/>
</svg>
