<svg width="16" height="16" viewBox="0 0 16 16" fill="none" xmlns="http://www.w3.org/2000/svg">
<g clip-path="url(#clip0_3533_1559)">
<path d="M0.109359 3.13587C0.618692 1.06054 3.47403 -0.0374646 5.22669 1.07987C5.98389 0.386523 6.97334 0.00195312 8.00003 0.00195312C9.02671 0.00195313 10.0162 0.386523 10.7734 1.07987C15.064 -1.10613 18.3894 5.1552 13.7827 7.1412C13.658 7.17716 13.5477 7.25117 13.4671 7.35289C13.3866 7.4546 13.3398 7.57894 13.3334 7.70854V11.3325H2.66669V7.70854C2.66024 7.57894 2.61347 7.4546 2.53291 7.35289C2.45235 7.25117 2.34203 7.17716 2.21736 7.1412C1.42801 6.85917 0.77333 6.29103 0.382941 5.54927C-0.00744776 4.80751 -0.105086 3.9462 0.109359 3.13587ZM2.66669 12.6659C2.62587 13.0857 2.6729 13.5094 2.80476 13.9101C2.93663 14.3108 3.15046 14.6796 3.43264 14.9932C3.71483 15.3067 4.05918 15.5581 4.4438 15.7313C4.82842 15.9045 5.24489 15.9957 5.66669 15.9992H10.3334C10.7552 15.9957 11.1716 15.9045 11.5562 15.7313C11.9409 15.5581 12.2852 15.3067 12.5674 14.9932C12.8496 14.6796 13.0634 14.3108 13.1953 13.9101C13.3272 13.5094 13.3742 13.0857 13.3334 12.6659H2.66669Z" fill="white"/>
</g>
<defs>
<clipPath id="clip0_3533_1559">
<rect width="16" height="16" fill="white"/>
</clipPath>
</defs>
</svg>
