<svg width="24" height="24" viewBox="0 0 24 24" fill="none" xmlns="http://www.w3.org/2000/svg">
<g id="import">
<g id="Group 277">
<path id="import 1 (Traced)" fill-rule="evenodd" clip-rule="evenodd" d="M11.7364 3.04689C11.4232 3.16263 11.2093 3.38982 11.1239 3.69732C11.0968 3.79483 11.0815 5.40435 11.0813 8.16581L11.0811 12.4819L9.97546 11.3823C8.7654 10.1789 8.73596 10.158 8.3117 10.2018C7.87986 10.2463 7.55879 10.5674 7.51422 10.9993C7.46853 11.4421 7.42068 11.3827 9.51688 13.4873C10.6316 14.6065 11.5098 15.4548 11.6076 15.5067C11.7204 15.5667 11.8525 15.5962 12.0077 15.5962C12.1629 15.5962 12.2949 15.5667 12.4078 15.5067C12.5055 15.4548 13.3837 14.6065 14.4985 13.4873C16.5947 11.3827 16.5468 11.4421 16.5011 10.9993C16.4566 10.5674 16.1355 10.2463 15.7037 10.2018C15.2795 10.158 15.2499 10.1789 14.0407 11.3816L12.9358 12.4804L12.9245 8.08081L12.9132 3.68123L12.8226 3.51276C12.6028 3.10446 12.1297 2.90153 11.7364 3.04689ZM3.64959 13.8292C3.33054 13.9472 3.11978 14.1751 3.03348 14.4955C3.00362 14.6065 2.99372 15.3466 3.00383 16.7109C3.01866 18.7129 3.02123 18.7664 3.1157 19.0545C3.26383 19.5063 3.48415 19.8671 3.81217 20.1952C4.1492 20.5322 4.51142 20.75 4.97389 20.8937L5.28977 20.992H12.0077H18.7256L19.0415 20.8937C19.5039 20.75 19.8662 20.5322 20.2032 20.1952C20.5402 19.8581 20.758 19.4959 20.9018 19.0335C20.9992 18.7202 21 18.7 21 16.5906C21 14.5948 20.9952 14.4545 20.9214 14.3162C20.7374 13.9713 20.4569 13.7943 20.0944 13.7943C19.732 13.7943 19.4515 13.9713 19.2675 14.3162C19.1947 14.4527 19.1873 14.6171 19.1678 16.5344L19.1468 18.6051L19.0204 18.7845C18.9509 18.8831 18.8105 19.0079 18.7085 19.0618L18.5228 19.1598H12.0077H5.49258L5.30692 19.0618C5.20482 19.0079 5.06444 18.8831 4.99494 18.7845L4.86859 18.6051L4.84753 16.5344C4.82702 14.5154 4.8242 14.4594 4.73579 14.2951C4.51606 13.8868 4.0429 13.6839 3.64959 13.8292Z" fill="#FF7A00"/>
</g>
</g>
</svg>
