<svg width="24" height="24" viewBox="0 0 24 24" fill="none" xmlns="http://www.w3.org/2000/svg">
<path d="M20.7383 10.9785H7.49438C7.07369 10.9785 6.73267 11.3195 6.73267 11.7402C6.73267 12.1609 7.07369 12.502 7.49438 12.502H20.7383C21.159 12.502 21.5 12.1609 21.5 11.7402C21.5 11.3195 21.159 10.9785 20.7383 10.9785Z" fill="#FF7A00"/>
<path d="M20.7383 5.26562H7.49438C7.07369 5.26562 6.73267 5.60665 6.73267 6.02734C6.73267 6.44804 7.07369 6.78906 7.49438 6.78906H20.7383C21.159 6.78906 21.5 6.44804 21.5 6.02734C21.5 5.60665 21.159 5.26562 20.7383 5.26562Z" fill="#FF7A00"/>
<path d="M20.7383 16.6914H7.49438C7.07369 16.6914 6.73267 17.0324 6.73267 17.4531C6.73267 17.8738 7.07369 18.2148 7.49438 18.2148H20.7383C21.159 18.2148 21.5 17.8738 21.5 17.4531C21.5 17.0324 21.159 16.6914 20.7383 16.6914Z" fill="#FF7A00"/>
<path d="M3.02832 7.05664C3.59625 7.05664 4.05664 6.59625 4.05664 6.02832C4.05664 5.46039 3.59625 5 3.02832 5C2.46039 5 2 5.46039 2 6.02832C2 6.59625 2.46039 7.05664 3.02832 7.05664Z" fill="#FF7A00"/>
<path d="M3.02832 12.7695C3.59625 12.7695 4.05664 12.3091 4.05664 11.7412C4.05664 11.1733 3.59625 10.7129 3.02832 10.7129C2.46039 10.7129 2 11.1733 2 11.7412C2 12.3091 2.46039 12.7695 3.02832 12.7695Z" fill="#FF7A00"/>
<path d="M3.02832 18.4824C3.59625 18.4824 4.05664 18.022 4.05664 17.4541C4.05664 16.8862 3.59625 16.4258 3.02832 16.4258C2.46039 16.4258 2 16.8862 2 17.4541C2 18.022 2.46039 18.4824 3.02832 18.4824Z" fill="#FF7A00"/>
</svg>
