<svg width="16" height="16" viewBox="0 0 16 16" fill="none" xmlns="http://www.w3.org/2000/svg">
<path fill-rule="evenodd" clip-rule="evenodd" d="M2.47076 3.38738C1.93488 3.54376 1.51758 3.97009 1.37976 4.50201C1.31775 4.74123 1.31775 11.7184 1.37976 11.9576C1.52016 12.4995 1.9609 12.9402 2.50279 13.0806C2.74295 13.1429 13.2569 13.1429 13.4971 13.0806C14.0389 12.9402 14.4797 12.4995 14.6201 11.9576C14.6821 11.7184 14.6821 4.74123 14.6201 4.50201C14.4797 3.96012 14.0389 3.51938 13.4971 3.37898C13.2416 3.31278 2.69884 3.32082 2.47076 3.38738ZM12.3039 4.87979C11.9333 5.15528 10.8162 5.98635 9.8215 6.7266C7.67715 8.32244 8.32269 8.32244 6.17834 6.7266C5.18361 5.98635 4.06651 5.15528 3.69589 4.87979L3.02206 4.37891H7.99992H12.9778L12.3039 4.87979ZM5.27463 7.3933C8.3898 9.70952 7.66734 9.89207 13.5232 5.30908L13.6213 5.23225L13.6142 8.45483L13.6071 11.6774L13.5349 11.8003C13.488 11.88 13.4194 11.9486 13.3397 11.9954L13.2168 12.0677H7.99992H2.78299L2.6601 11.9954C2.5804 11.9486 2.51179 11.88 2.46495 11.8003L2.3927 11.6774L2.38559 8.45483L2.37849 5.23225L2.47666 5.30908C2.53065 5.35134 3.78974 6.28924 5.27463 7.3933Z" fill="white"/>
</svg>
