<svg width="24" height="24" viewBox="0 0 24 24" fill="none" xmlns="http://www.w3.org/2000/svg">
<path d="M16.625 3.625C18.4174 3.625 19.875 5.08262 19.875 6.875V16.625C19.875 18.4174 18.4174 19.875 16.625 19.875H6.875C5.08262 19.875 3.625 18.4174 3.625 16.625V6.875C3.625 5.08262 5.08262 3.625 6.875 3.625H16.625ZM16.625 2H6.875C4.18238 2 2 4.18238 2 6.875V16.625C2 19.3176 4.18238 21.5 6.875 21.5H16.625C19.3176 21.5 21.5 19.3176 21.5 16.625V6.875C21.5 4.18238 19.3176 2 16.625 2Z" fill="white"/>
<path d="M11.75 16.625C11.3015 16.625 10.9375 16.2618 10.9375 15.8125V7.6875C10.9375 7.239 11.3015 6.875 11.75 6.875C12.1985 6.875 12.5625 7.239 12.5625 7.6875V15.8125C12.5625 16.2618 12.1985 16.625 11.75 16.625Z" fill="white"/>
<path d="M6.875 11.75C6.875 11.3015 7.23819 10.9375 7.6875 10.9375H15.8125C16.261 10.9375 16.625 11.3015 16.625 11.75C16.625 12.1985 16.261 12.5625 15.8125 12.5625H7.6875C7.23819 12.5625 6.875 12.1985 6.875 11.75Z" fill="white"/>
</svg>
