<svg width="24" height="24" viewBox="0 0 24 24" fill="none" xmlns="http://www.w3.org/2000/svg">
<path d="M16.5 11.25H9C8.5875 11.25 8.25 10.9125 8.25 10.5C8.25 10.0875 8.5875 9.75 9 9.75H16.5C16.9125 9.75 17.25 10.0875 17.25 10.5C17.25 10.9125 16.9125 11.25 16.5 11.25Z" fill="#191C1F"/>
<path d="M16.5 14.25H9C8.5875 14.25 8.25 13.9125 8.25 13.5C8.25 13.0875 8.5875 12.75 9 12.75H16.5C16.9125 12.75 17.25 13.0875 17.25 13.5C17.25 13.9125 16.9125 14.25 16.5 14.25Z" fill="#191C1F"/>
<path d="M19.5 19.5H3C1.7625 19.5 0.75 18.4875 0.75 17.25V8.25C0.75 7.8375 1.0875 7.5 1.5 7.5C1.9125 7.5 2.25 7.8375 2.25 8.25V17.25C2.25 17.6625 2.5875 18 3 18C3.4125 18 3.75 17.6625 3.75 17.25V6C3.75 5.175 4.425 4.5 5.25 4.5H20.25C21.075 4.5 21.75 5.175 21.75 6V17.25C21.75 18.4875 20.7375 19.5 19.5 19.5ZM5.11875 18H19.5C19.9125 18 20.25 17.6625 20.25 17.25V6H5.25V17.25C5.25 17.5125 5.20312 17.7656 5.11875 18Z" fill="#191C1F"/>
</svg>
