<svg width="24" height="24" viewBox="0 0 24 24" fill="none" xmlns="http://www.w3.org/2000/svg">
<path d="M16.5651 11.9012C16.9973 11.9012 17.3477 11.5508 17.3477 11.1186C17.3477 10.6863 16.9973 10.3359 16.5651 10.3359C16.1329 10.3359 15.7825 10.6863 15.7825 11.1186C15.7825 11.5508 16.1329 11.9012 16.5651 11.9012Z" fill="#FF7A00"/>
<path d="M7.04337 11.9012C7.4756 11.9012 7.82599 11.5508 7.82599 11.1186C7.82599 10.6863 7.4756 10.3359 7.04337 10.3359C6.61114 10.3359 6.26074 10.6863 6.26074 11.1186C6.26074 11.5508 6.61114 11.9012 7.04337 11.9012Z" fill="#FF7A00"/>
<path d="M12.2609 7.20703C10.9663 7.20703 9.91309 8.26027 9.91309 9.55486C9.91309 10.8495 10.9663 11.9027 12.2609 11.9027C13.5555 11.9027 14.6087 10.8495 14.6087 9.55486C14.6087 8.26027 13.5555 7.20703 12.2609 7.20703ZM12.2609 10.3374C11.8294 10.3374 11.4783 9.98634 11.4783 9.55481C11.4783 9.12328 11.8294 8.77219 12.2609 8.77219C12.6924 8.77219 13.0435 9.12328 13.0435 9.55481C13.0435 9.98639 12.6924 10.3374 12.2609 10.3374Z" fill="#FF7A00"/>
<path d="M12.9881 3.03146C12.3359 2.90814 11.6489 3.15275 11.1923 3.66994L2.51613 13.1079C2.42227 13.21 2 13.7491 2 13.9671C2 14.0255 2 14.3349 2 15.4725C2 16.4165 2.76801 17.1844 3.71195 17.1844H5.91305V19.141C5.91305 20.22 6.78606 21.0971 7.87203 21.0971C8.99914 21.0971 9.82605 20.1672 9.82605 19.0771V18.3745C10.036 18.451 10.2534 18.4888 10.4801 18.4888C11.3355 18.4888 12.0522 17.9442 12.3216 17.1844H19.5543C20.9029 17.1844 22 16.0873 22 14.7388V13.9236C22 8.59986 18.21 4.01908 12.9881 3.03146ZM12.1575 4.5474C12.1611 4.5435 12.1646 4.53955 12.1681 4.53553C12.3194 4.36271 12.5462 4.27553 12.7457 4.31318C17.1377 5.14381 20.3815 8.85619 20.6741 13.2714H19.3665C19.0427 9.03482 15.5913 5.65951 11.3227 5.45537L12.1575 4.5474ZM5.91305 15.8801H3.71195C3.48723 15.8801 3.30434 15.6972 3.30434 15.4725V14.6192H5.26086C5.62047 14.6192 5.91305 14.9167 5.91305 15.2823V15.8801ZM11.1304 15.2279V16.5322C11.1304 16.9037 10.8209 17.2033 10.4422 17.1835C10.1025 17.1657 9.82609 16.8404 9.82609 16.4585V13.978V13.9236C9.82609 13.5635 9.5341 13.2714 9.17391 13.2714C8.81375 13.2714 8.52172 13.5634 8.52172 13.9236V13.978V16.4585V19.0771C8.52172 19.4247 8.29605 19.7275 7.99684 19.7816C7.5698 19.8586 7.21734 19.5351 7.21734 19.141V15.2823C7.21734 14.1974 6.33965 13.3149 5.26082 13.3149H4.09762L10.0888 6.79772C10.3612 6.76647 10.6378 6.74967 10.913 6.74967C14.6489 6.74967 17.7264 9.62022 18.057 13.2714H13.087C12.0081 13.2714 11.1304 14.1491 11.1304 15.2279ZM20.6957 14.7388C20.6957 15.3681 20.1837 15.8801 19.5544 15.8801H12.4348V15.2279C12.4348 14.8683 12.7273 14.5757 13.087 14.5757H20.6957V14.7388Z" fill="#FF7A00"/>
</svg>
