<svg width="20" height="20" viewBox="0 0 20 20" fill="none" xmlns="http://www.w3.org/2000/svg">
<path d="M17.178 9.0534C16.9821 9.0534 16.7942 9.13122 16.6557 9.26974C16.5172 9.40826 16.4394 9.59614 16.4394 9.79203C16.4394 11.1068 16.0495 12.3921 15.319 13.4853C14.5885 14.5785 13.5503 15.4306 12.3356 15.9337C11.1209 16.4369 9.78425 16.5685 8.49472 16.312C7.20519 16.0555 6.02068 15.4224 5.09098 14.4927C4.16127 13.563 3.52814 12.3785 3.27164 11.0889C3.01513 9.79941 3.14678 8.46277 3.64993 7.24806C4.15308 6.03335 5.00514 4.99511 6.09835 4.26465C7.19156 3.53419 8.47683 3.14431 9.79163 3.14431C10.9363 3.14226 12.0617 3.43913 13.0564 4.00556L12.224 4.838C12.1207 4.9413 12.0504 5.0729 12.0219 5.21616C11.9934 5.35942 12.008 5.50791 12.0639 5.64286C12.1198 5.77781 12.2144 5.89316 12.3359 5.97432C12.4573 6.05549 12.6001 6.09882 12.7462 6.09885H15.7007C15.8966 6.09885 16.0845 6.02103 16.223 5.88251C16.3615 5.74399 16.4394 5.55612 16.4394 5.36022V2.40567C16.4393 2.25961 16.396 2.11683 16.3148 1.99539C16.2337 1.87395 16.1183 1.7793 15.9834 1.72341C15.8484 1.66752 15.6999 1.65289 15.5567 1.68138C15.4134 1.70987 15.2818 1.78019 15.1785 1.88346L14.1363 2.92272C12.8378 2.09765 11.3301 1.6619 9.79163 1.66704C8.18465 1.66704 6.61377 2.14356 5.27762 3.03635C3.94147 3.92913 2.90007 5.19808 2.28511 6.68273C1.67015 8.16738 1.50924 9.80105 1.82275 11.3771C2.13625 12.9532 2.91009 14.401 4.04639 15.5373C5.18269 16.6736 6.63042 17.4474 8.20652 17.7609C9.78261 18.0744 11.4163 17.9135 12.9009 17.2986C14.3856 16.6836 15.6545 15.6422 16.5473 14.306C17.4401 12.9699 17.9166 11.399 17.9166 9.79203C17.9166 9.59614 17.8388 9.40826 17.7003 9.26974C17.5618 9.13122 17.3739 9.0534 17.178 9.0534Z" fill="#FF7A00"/>
</svg>
