<svg width="24" height="24" viewBox="0 0 24 24" fill="none" xmlns="http://www.w3.org/2000/svg">
<path d="M19.9125 11.3792L15.5925 8.49919C15.2195 6.23022 14.1501 4.13341 12.5325 2.49919C12.4628 2.4289 12.3798 2.3731 12.2884 2.33502C12.197 2.29695 12.099 2.27734 12 2.27734C11.901 2.27734 11.803 2.29695 11.7116 2.33502C11.6202 2.3731 11.5372 2.4289 11.4675 2.49919C9.84988 4.13341 8.78051 6.23022 8.4075 8.49919L4.0875 11.3792C3.98433 11.4471 3.89954 11.5395 3.84066 11.6481C3.78178 11.7567 3.75064 11.8782 3.75 12.0017V15.0017C3.75 15.2006 3.82902 15.3914 3.96967 15.532C4.11032 15.6727 4.30109 15.7517 4.5 15.7517H6C6.19891 15.7517 6.38968 15.6727 6.53033 15.532C6.67098 15.3914 6.75 15.2006 6.75 15.0017C6.75 14.8028 6.67098 14.612 6.53033 14.4713C6.38968 14.3307 6.19891 14.2517 6 14.2517H5.25V12.4067L8.25 10.4042V15.0017C8.25 15.2006 8.32902 15.3914 8.46967 15.532C8.61032 15.6727 8.80109 15.7517 9 15.7517H15C15.1989 15.7517 15.3897 15.6727 15.5303 15.532C15.671 15.3914 15.75 15.2006 15.75 15.0017V10.4042L18.75 12.4067V14.2517H18C17.8011 14.2517 17.6103 14.3307 17.4697 14.4713C17.329 14.612 17.25 14.8028 17.25 15.0017C17.25 15.2006 17.329 15.3914 17.4697 15.532C17.6103 15.6727 17.8011 15.7517 18 15.7517H19.5C19.6989 15.7517 19.8897 15.6727 20.0303 15.532C20.171 15.3914 20.25 15.2006 20.25 15.0017V12.0017C20.2494 11.8782 20.2182 11.7567 20.1593 11.6481C20.1005 11.5395 20.0157 11.4471 19.9125 11.3792ZM14.25 14.2517H9.75V10.2467C9.7544 8.00058 10.5512 5.82805 12 4.11169C13.4488 5.82805 14.2456 8.00058 14.25 10.2467V14.2517Z" fill="#191C1F"/>
<path d="M15 17.25C14.8011 17.25 14.6103 17.329 14.4697 17.4697C14.329 17.6103 14.25 17.8011 14.25 18C14.25 18.1989 14.329 18.3897 14.4697 18.5303C14.6103 18.671 14.8011 18.75 15 18.75C15.4655 18.7498 15.9196 18.8939 16.2998 19.1625C16.6799 19.4312 16.9674 19.8111 17.1225 20.25H6.87751C7.03268 19.8111 7.32014 19.4312 7.70028 19.1625C8.08042 18.8939 8.53453 18.7498 9.00001 18.75C9.19893 18.75 9.38969 18.671 9.53034 18.5303C9.671 18.3897 9.75002 18.1989 9.75002 18C9.75002 17.8011 9.671 17.6103 9.53034 17.4697C9.38969 17.329 9.19893 17.25 9.00001 17.25C8.00545 17.25 7.05162 17.6451 6.34836 18.3483C5.6451 19.0516 5.25001 20.0054 5.25001 21C5.24944 21.0987 5.26836 21.1966 5.30568 21.2879C5.34301 21.3793 5.398 21.4624 5.46751 21.5325C5.61124 21.6695 5.80144 21.7472 6.00001 21.75H18C18.1989 21.75 18.3897 21.671 18.5304 21.5303C18.671 21.3897 18.75 21.1989 18.75 21C18.75 20.0054 18.3549 19.0516 17.6517 18.3483C16.9484 17.6451 15.9946 17.25 15 17.25Z" fill="#191C1F"/>
</svg>
