<svg width="16" height="16" viewBox="0 0 16 16" fill="none" xmlns="http://www.w3.org/2000/svg">
<g id="room-service 1" clip-path="url(#clip0_3533_1525)">
<path id="Vector" d="M0.666667 12.6662V11.3329C0.669088 9.50441 1.35386 7.7427 2.58694 6.3926C3.82001 5.04251 5.51259 4.20125 7.33333 4.03352V3.14819C7.07914 3.00143 6.88048 2.7749 6.76816 2.50373C6.65584 2.23256 6.63613 1.93191 6.7121 1.6484C6.78807 1.36489 6.95546 1.11436 7.18832 0.935685C7.42118 0.757006 7.70649 0.660156 8 0.660156C8.29351 0.660156 8.57882 0.757006 8.81168 0.935685C9.04454 1.11436 9.21194 1.36489 9.2879 1.6484C9.36387 1.93191 9.34416 2.23256 9.23184 2.50373C9.11952 2.7749 8.92086 3.00143 8.66667 3.14819V4.03352C10.4874 4.20125 12.18 5.04251 13.4131 6.3926C14.6461 7.7427 15.3309 9.50441 15.3333 11.3329V12.6662H0.666667ZM0 13.9995V15.3329H16V13.9995H0Z" fill="white"/>
</g>
<defs>
<clipPath id="clip0_3533_1525">
<rect width="16" height="16" fill="white"/>
</clipPath>
</defs>
</svg>
