<svg width="20" height="20" viewBox="0 0 20 20" fill="none" xmlns="http://www.w3.org/2000/svg">
<path d="M9.11617 1.60938C4.98391 1.60938 1.6178 4.97548 1.6178 9.10776C1.6178 13.24 4.98391 16.6127 9.11617 16.6127C10.8812 16.6127 12.5045 15.9941 13.7874 14.9671L16.9108 18.0889C17.0684 18.24 17.2789 18.3233 17.4972 18.3211C17.7156 18.3189 17.9243 18.2312 18.0788 18.0769C18.2333 17.9227 18.3213 17.714 18.3238 17.4957C18.3263 17.2774 18.2433 17.0667 18.0924 16.9089L14.969 13.7856C15.9969 12.5006 16.6162 10.8748 16.6162 9.10776C16.6162 4.97548 13.2484 1.60938 9.11617 1.60938ZM9.11617 3.27607C12.3477 3.27607 14.9479 5.87623 14.9479 9.10776C14.9479 12.3393 12.3477 14.946 9.11617 14.946C5.88464 14.946 3.28446 12.3393 3.28446 9.10776C3.28446 5.87623 5.88464 3.27607 9.11617 3.27607Z" fill="#FF7A00"/>
</svg>
