<svg width="20" height="20" viewBox="0 0 20 20" fill="none" xmlns="http://www.w3.org/2000/svg">
<g id="send" clip-path="url(#clip0_2968_34538)">
<path id="send 1 (Traced)" fill-rule="evenodd" clip-rule="evenodd" d="M1.61393 0.85607C1.07377 1.00587 0.779592 1.50177 0.878264 2.09627C1.00596 2.86576 2.47674 8.55111 2.57299 8.64736C2.67092 8.74529 2.71405 8.75115 6.10182 9.12802C10.0803 9.57056 9.74084 9.52166 9.886 9.67318C10.1228 9.92041 9.98358 10.3722 9.65162 10.4335C9.58557 10.4458 7.98815 10.6274 6.10182 10.8372C2.71405 11.2141 2.67092 11.22 2.57299 11.3179C2.47674 11.4142 1.00596 17.0995 0.878264 17.869C0.751428 18.6333 1.35928 19.2827 2.05557 19.1266C2.37061 19.056 18.5286 11.149 18.7389 10.9624C19.3231 10.4445 19.3231 9.52068 18.7389 9.00287C18.5799 8.86189 9.92791 4.60435 2.89088 1.20423C2.09233 0.818413 1.91955 0.771304 1.61393 0.85607Z" fill="#009FE3"/>
</g>
<defs>
<clipPath id="clip0_2968_34538">
<rect width="20" height="20" fill="white"/>
</clipPath>
</defs>
</svg>
