<svg width="24" height="24" viewBox="0 0 24 24" fill="none" xmlns="http://www.w3.org/2000/svg">
<path d="M20.8141 13.5896L19.9821 12.9047C19.4121 12.4355 19.4132 11.5635 19.9821 11.0953L20.8141 10.4104C21.4062 9.92289 21.5576 9.08703 21.1742 8.42277L19.5313 5.57723C19.1478 4.91301 18.348 4.62629 17.63 4.89527L16.6208 5.27336C15.9295 5.53227 15.1748 5.09559 15.0537 4.36863L14.8766 3.30559C14.7505 2.5491 14.1023 2 13.3354 2H10.0496C9.28262 2 8.63441 2.5491 8.50836 3.30562L8.33117 4.36863C8.20981 5.09687 7.4541 5.53184 6.76414 5.2734L5.75496 4.89527C5.03687 4.62629 4.23719 4.91305 3.85363 5.57723L2.21078 8.42273C1.8273 9.08691 1.97871 9.92281 2.57086 10.4103L3.40285 11.0952C3.97285 11.5645 3.97172 12.4364 3.40285 12.9047L2.57082 13.5896C1.97871 14.0771 1.82726 14.913 2.21074 15.5772L3.85363 18.4227C4.23715 19.0869 5.03668 19.3737 5.75496 19.1047L6.7641 18.7266C7.45547 18.4676 8.21 18.9046 8.33113 19.6313L8.50832 20.6943C8.63441 21.4509 9.28262 22 10.0496 22H13.3353C14.1023 22 14.7505 21.4509 14.8765 20.6944L15.0537 19.6314C15.175 18.9034 15.9307 18.4681 16.6207 18.7267L17.63 19.1047C18.3482 19.3738 19.1478 19.087 19.5313 18.4228L21.1742 15.5772C21.5576 14.913 21.4062 14.0771 20.8141 13.5896ZM18.1781 17.6415L17.1689 17.2634C15.5557 16.6591 13.7951 17.6787 13.5125 19.3745L13.3354 20.4375H10.0496L9.87242 19.3745C9.58926 17.6754 7.82609 16.6603 6.21598 17.2634L5.2068 17.6415L3.56394 14.796L4.39594 14.1111C5.72598 13.0161 5.7232 10.9816 4.39594 9.88895L3.56394 9.20402L5.20684 6.35848L6.21598 6.73656C7.82926 7.34086 9.5898 6.32133 9.87242 4.62551L10.0496 3.5625H13.3353L13.5125 4.62551C13.7957 6.3248 15.5589 7.33961 17.1689 6.73656L18.1781 6.35848L19.8213 9.20363C19.8213 9.20363 19.8212 9.20375 19.8209 9.20398L18.9889 9.88891C17.6589 10.9837 17.6616 13.0183 18.9889 14.111L19.8209 14.7959L18.1781 17.6415ZM11.6925 8.14582C9.56727 8.14582 7.83828 9.8748 7.83828 12C7.83828 14.1252 9.56727 15.8542 11.6925 15.8542C13.8177 15.8542 15.5466 14.1252 15.5466 12C15.5466 9.8748 13.8177 8.14582 11.6925 8.14582ZM11.6925 14.2917C10.4288 14.2917 9.40078 13.2636 9.40078 12C9.40078 10.7364 10.4288 9.70832 11.6925 9.70832C12.9561 9.70832 13.9841 10.7364 13.9841 12C13.9841 13.2636 12.9561 14.2917 11.6925 14.2917Z" fill="#8C8D8F"/>
</svg>
