<svg width="24" height="24" viewBox="0 0 24 24" fill="none" xmlns="http://www.w3.org/2000/svg">
<path d="M19.6914 6.57031H17.3702C17.0676 4.00035 14.8765 2 12.2266 2C9.57666 2 7.3855 4.00035 7.0829 6.57031H4.76172C4.34102 6.57031 4 6.91133 4 7.33203V20.7383C4 21.159 4.34102 21.5 4.76172 21.5H19.6914C20.1121 21.5 20.4531 21.159 20.4531 20.7383V7.33203C20.4531 6.91133 20.1121 6.57031 19.6914 6.57031ZM12.2266 3.52344C14.035 3.52344 15.5408 4.84331 15.8317 6.57031H8.62139C8.91236 4.84331 10.4181 3.52344 12.2266 3.52344ZM18.9297 19.9766H5.52344V8.09375H7.04688V10.3789C7.04688 10.7996 7.3879 11.1406 7.80859 11.1406C8.22929 11.1406 8.57031 10.7996 8.57031 10.3789V8.09375H15.8828V10.3789C15.8828 10.7996 16.2238 11.1406 16.6445 11.1406C17.0652 11.1406 17.4062 10.7996 17.4062 10.3789V8.09375H18.9297V19.9766Z" fill="#FF7A00"/>
</svg>
