<svg width="24" height="24" viewBox="0 0 24 24" fill="none" xmlns="http://www.w3.org/2000/svg">
<path d="M21.75 9.75C21.7498 9.62076 21.7165 9.49372 21.6532 9.381L18.2663 3.381C18.2009 3.26532 18.1059 3.16908 17.9912 3.10214C17.8764 3.03519 17.7459 2.99995 17.613 3H6.387C6.25412 2.99995 6.12362 3.03519 6.00884 3.10214C5.89406 3.16908 5.79912 3.26532 5.73375 3.381L2.34675 9.381C2.28352 9.49372 2.25021 9.62076 2.25 9.75C2.25166 10.2743 2.39111 10.7889 2.65438 11.2422C2.91766 11.6956 3.29549 12.0717 3.75 12.333V19.5C3.75 19.8978 3.90804 20.2794 4.18934 20.5607C4.47064 20.842 4.85218 21 5.25 21H9.66C10.0578 21 10.4394 20.842 10.7207 20.5607C11.002 20.2794 11.16 19.8978 11.16 19.5V17.4697C11.1531 17.2509 11.225 17.0368 11.3626 16.8665C11.5003 16.6963 11.6945 16.5811 11.91 16.542C12.0272 16.5296 12.1457 16.542 12.2578 16.5783C12.37 16.6146 12.4732 16.6741 12.5609 16.7528C12.6486 16.8316 12.7187 16.9279 12.7668 17.0355C12.8149 17.1431 12.8398 17.2596 12.84 17.3775V19.5C12.84 19.8978 12.998 20.2794 13.2793 20.5607C13.5606 20.842 13.9422 21 14.34 21H18.75C19.1478 21 19.5294 20.842 19.8107 20.5607C20.092 20.2794 20.25 19.8978 20.25 19.5V12.333C20.7045 12.0717 21.0823 11.6956 21.3456 11.2422C21.6089 10.7889 21.7483 10.2743 21.75 9.75ZM20.2395 9.9285C20.1943 10.3084 20.0057 10.6567 19.7122 10.9021C19.4187 11.1475 19.0425 11.2715 18.6606 11.2487C18.2787 11.2259 17.9199 11.058 17.6577 10.7794C17.3955 10.5008 17.2497 10.1326 17.25 9.75C17.2457 9.71501 17.2387 9.68041 17.229 9.6465C17.2291 9.61286 17.2266 9.57925 17.2215 9.546L15.7958 4.5H17.175L20.2395 9.9285ZM9.76275 4.5H11.25V9.75C11.2344 10.1303 11.0747 10.4905 10.8034 10.7575C10.5321 11.0245 10.1694 11.1784 9.78885 11.1879C9.40831 11.1975 9.03837 11.062 8.75402 10.8089C8.46967 10.5558 8.29217 10.2041 8.2575 9.825L9.76275 4.5ZM12.75 4.5H14.2372L15.7425 9.825C15.7078 10.2041 15.5303 10.5558 15.246 10.8089C14.9616 11.062 14.5917 11.1975 14.2112 11.1879C13.8306 11.1784 13.4679 11.0245 13.1966 10.7575C12.9253 10.4905 12.7656 10.1303 12.75 9.75V4.5ZM6.825 4.5H8.20425L6.77925 9.546C6.77414 9.57925 6.77164 9.61286 6.77175 9.6465C6.76184 9.68039 6.75457 9.71499 6.75 9.75C6.75034 10.1326 6.60448 10.5008 6.34227 10.7794C6.08006 11.058 5.7213 11.2259 5.3394 11.2487C4.95751 11.2715 4.58133 11.1475 4.28783 10.9021C3.99433 10.6567 3.80569 10.3084 3.7605 9.9285L6.825 4.5ZM18.75 19.5H14.34V17.3775C14.3396 17.0502 14.2706 16.7266 14.1374 16.4276C14.0041 16.1287 13.8096 15.861 13.5665 15.6419C13.3233 15.4227 13.0369 15.2571 12.7258 15.1556C12.4146 15.054 12.0856 15.0189 11.76 15.0525C11.1744 15.1289 10.6371 15.4174 10.25 15.8635C9.86296 16.3096 9.65302 16.8822 9.66 17.4728V19.5H5.25V12.75C5.67586 12.7502 6.09687 12.6596 6.48488 12.484C6.87289 12.3085 7.21897 12.0522 7.5 11.7323C7.78092 12.0535 8.12758 12.3106 8.51651 12.4861C8.90544 12.6617 9.32756 12.7516 9.75428 12.7499C10.181 12.7481 10.6024 12.6546 10.9898 12.4758C11.3773 12.297 11.7218 12.037 12 11.7135C12.2782 12.037 12.6227 12.297 13.0102 12.4758C13.3976 12.6546 13.819 12.7481 14.2457 12.7499C14.6724 12.7516 15.0946 12.6617 15.4835 12.4861C15.8724 12.3106 16.2191 12.0535 16.5 11.7323C16.781 12.0522 17.1271 12.3085 17.5151 12.484C17.9031 12.6596 18.3241 12.7502 18.75 12.75V19.5Z" fill="#FF7A00"/>
</svg>
