<svg width="50" height="50" viewBox="0 0 50 50" fill="none" xmlns="http://www.w3.org/2000/svg">
<path fill-rule="evenodd" clip-rule="evenodd" d="M34.0292 4.16675C41.0896 4.16675 45.8334 9.12091 45.8334 16.4917V33.5084C45.8334 40.8792 41.0896 45.8334 34.0271 45.8334H15.9688C8.90835 45.8334 4.16669 40.8792 4.16669 33.5084V16.4917C4.16669 9.12091 8.90835 4.16675 15.9688 4.16675H34.0292ZM34.0292 7.29175H15.9688C10.6979 7.29175 7.29169 10.9022 7.29169 16.4917V33.5084C7.29169 39.098 10.6979 42.7084 15.9688 42.7084H34.0271C39.3 42.7084 42.7084 39.098 42.7084 33.5084V16.4917C42.7084 10.9022 39.3 7.29175 34.0292 7.29175ZM33.5198 18.9522C34.1302 19.5626 34.1302 20.5501 33.5198 21.1605L23.6323 31.048C23.3281 31.3542 22.9281 31.5063 22.5281 31.5063C22.1302 31.5063 21.7281 31.3542 21.424 31.048L16.4781 26.1042C15.8677 25.4938 15.8677 24.5063 16.4781 23.8959C17.0886 23.2855 18.0761 23.2855 18.6865 23.8959L22.5281 27.7334L31.3115 18.9522C31.9219 18.3417 32.9094 18.3417 33.5198 18.9522Z" fill="#4BB14B"/>
</svg>
