<svg width="12" height="12" viewBox="0 0 12 12" fill="none" xmlns="http://www.w3.org/2000/svg">
<g clip-path="url(#clip0_479_14593)">
<path d="M11.9686 4.34507C11.8896 4.10208 11.6741 3.93005 11.4201 3.90707L7.95607 3.59258L6.58706 0.387457C6.48599 0.15198 6.256 0 6.00002 0C5.74403 0 5.51395 0.15198 5.41352 0.387457L4.04451 3.59258L0.579912 3.90707C0.32594 3.93051 0.110879 4.10254 0.0314104 4.34507C-0.047601 4.58805 0.0253678 4.85457 0.217449 5.02303L2.83599 7.31911L2.06392 10.7196C2.00743 10.9697 2.10447 11.2282 2.31194 11.3782C2.42345 11.4592 2.55446 11.4997 2.68594 11.4997C2.79891 11.4997 2.91198 11.4696 3.01297 11.4092L6.00002 9.62317L8.98652 11.4092C9.20561 11.5401 9.48109 11.5281 9.6881 11.3782C9.89556 11.2282 9.99261 10.9697 9.93612 10.7196L9.16404 7.31911L11.7826 5.02303C11.9746 4.85457 12.0476 4.5886 11.9686 4.34507Z" fill="#FF7A00"/>
</g>
<defs>
<clipPath id="clip0_479_14593">
<rect width="12" height="12" fill="white"/>
</clipPath>
</defs>
</svg>
