<svg width="24" height="24" viewBox="0 0 24 24" fill="none" xmlns="http://www.w3.org/2000/svg">
<path d="M22.2251 9.63502C22.1351 9.36502 21.9001 9.16502 21.6201 9.12502L15.4401 8.22502L12.6751 2.62502C12.5451 2.36502 12.2851 2.20502 12.0001 2.20502C11.7151 2.20502 11.4551 2.36502 11.3251 2.62502L8.56011 8.22502L2.38011 9.12502C2.10011 9.16502 1.86511 9.36502 1.77511 9.63502C1.68511 9.90502 1.76011 10.205 1.96511 10.405L6.44011 14.765L5.38511 20.92C5.33511 21.2 5.45011 21.485 5.68511 21.655C5.91511 21.82 6.22011 21.845 6.47511 21.71L12.0001 18.8L17.5301 21.705C17.6401 21.765 17.7601 21.79 17.8801 21.79C18.0351 21.79 18.1901 21.74 18.3201 21.645C18.5501 21.475 18.6651 21.195 18.6201 20.91L17.5651 14.755L22.0401 10.395C22.2401 10.205 22.3101 9.90502 22.2251 9.63502ZM16.2301 13.965C16.0551 14.135 15.9701 14.385 16.0151 14.63L16.8801 19.675L12.3451 17.29C12.2351 17.235 12.1151 17.205 11.9951 17.205C11.8751 17.205 11.7551 17.235 11.6451 17.29L7.11011 19.675L7.97511 14.63C8.01511 14.385 7.93511 14.14 7.76011 13.965L4.10011 10.39L9.17011 9.65502C9.41511 9.62002 9.62511 9.46502 9.73511 9.24502L12.0001 4.65002L14.2651 9.24502C14.3751 9.46502 14.5851 9.62002 14.8301 9.65502L19.9001 10.39L16.2301 13.965Z" fill="#191C1F"/>
</svg>
