<svg width="24" height="24" viewBox="0 0 24 24" fill="none" xmlns="http://www.w3.org/2000/svg">
<g id="star 1">
<path id="Vector" d="M22.225 9.63508C22.135 9.36508 21.9 9.16508 21.62 9.12508L15.44 8.22508L12.675 2.62508C12.545 2.36508 12.285 2.20508 12 2.20508C11.715 2.20508 11.455 2.36508 11.325 2.62508L8.55999 8.22508L2.37999 9.12508C2.09999 9.16508 1.86499 9.36508 1.77499 9.63508C1.68499 9.90508 1.75999 10.2051 1.96499 10.4051L6.43999 14.7651L5.38499 20.9201C5.33499 21.2001 5.44999 21.4851 5.68499 21.6551C5.91499 21.8201 6.21999 21.8451 6.47499 21.7101L12 18.8001L17.53 21.7051C17.64 21.7651 17.76 21.7901 17.88 21.7901C18.035 21.7901 18.19 21.7401 18.32 21.6451C18.55 21.4751 18.665 21.1951 18.62 20.9101L17.565 14.7551L22.04 10.3951C22.24 10.2051 22.31 9.90508 22.225 9.63508ZM16.23 13.9651C16.055 14.1351 15.97 14.3851 16.015 14.6301L16.88 19.6751L12.345 17.2901C12.235 17.2351 12.115 17.2051 11.995 17.2051C11.875 17.2051 11.755 17.2351 11.645 17.2901L7.10999 19.6751L7.97499 14.6301C8.01499 14.3851 7.93499 14.1401 7.75999 13.9651L4.09999 10.3901L9.16999 9.65508C9.41499 9.62008 9.62499 9.46508 9.73499 9.24508L12 4.65008L14.265 9.24508C14.375 9.46508 14.585 9.62008 14.83 9.65508L19.9 10.3901L16.23 13.9651Z" fill="#191C1F"/>
</g>
</svg>
