<svg width="24" height="24" viewBox="0 0 24 24" fill="none" xmlns="http://www.w3.org/2000/svg">
<path d="M21.4424 3.21609C21.2099 3.02076 20.9286 2.89243 20.6286 2.84486C20.3287 2.7973 20.0215 2.83229 19.7399 2.94609L2.55743 9.82359C2.30696 9.92763 2.09292 10.1035 1.94235 10.3291C1.79178 10.5547 1.71143 10.8199 1.71143 11.0911C1.71143 11.3623 1.79178 11.6274 1.94235 11.853C2.09292 12.0786 2.30696 12.2545 2.55743 12.3586L3.66743 12.8161C3.85044 12.8935 4.0567 12.8951 4.24091 12.8206C4.42513 12.7461 4.57223 12.6015 4.64993 12.4186C4.68804 12.3275 4.7078 12.2298 4.70806 12.1311C4.70833 12.0323 4.68909 11.9345 4.65146 11.8432C4.61384 11.7519 4.55855 11.669 4.48879 11.5991C4.41903 11.5293 4.33615 11.4739 4.24493 11.4361L3.41993 11.0986L20.3024 4.34859C20.3284 4.33268 20.3582 4.32425 20.3887 4.32425C20.4191 4.32425 20.449 4.33268 20.4749 4.34859C20.4994 4.36938 20.5179 4.39633 20.5284 4.42667C20.539 4.457 20.5412 4.4896 20.5349 4.52109L17.4524 18.9061C17.4423 18.9573 17.419 19.005 17.3848 19.0445C17.3506 19.0839 17.3067 19.1138 17.2574 19.1311C17.2091 19.1503 17.1565 19.1562 17.1051 19.1483C17.0536 19.1404 17.0053 19.1189 16.9649 19.0861L10.9649 14.4061L16.8374 8.47359C16.9629 8.34344 17.0371 8.17235 17.0464 7.99183C17.0558 7.8113 16.9996 7.63348 16.8882 7.49108C16.7769 7.34869 16.6178 7.2513 16.4404 7.21685C16.2629 7.1824 16.079 7.2132 15.9224 7.30359L7.31243 12.4036C7.2168 12.4468 7.1313 12.5096 7.06147 12.5879C6.99163 12.6663 6.93902 12.7584 6.90702 12.8583C6.87502 12.9583 6.86435 13.0638 6.87571 13.1682C6.88706 13.2725 6.92018 13.3733 6.97292 13.464C7.02567 13.5547 7.09687 13.6334 7.18192 13.6948C7.26696 13.7563 7.36397 13.7993 7.46665 13.8209C7.56934 13.8426 7.67543 13.8424 7.77805 13.8205C7.88067 13.7985 7.97755 13.7553 8.06243 13.6936L11.6849 11.5561L9.92242 13.3486C9.76119 13.5001 9.63546 13.6854 9.55425 13.8912C9.47304 14.097 9.43836 14.3182 9.45269 14.539C9.46703 14.7597 9.53003 14.9746 9.63717 15.1682C9.74431 15.3617 9.89295 15.5292 10.0724 15.6586L16.0724 20.2711C16.3882 20.5148 16.776 20.6467 17.1749 20.6461C17.3873 20.6445 17.5979 20.6065 17.7974 20.5336C18.0839 20.4307 18.3392 20.256 18.5388 20.0262C18.7384 19.7964 18.8757 19.5192 18.9374 19.2211L21.9974 4.85109C22.0624 4.55386 22.045 4.24454 21.9472 3.95643C21.8494 3.66833 21.6749 3.41236 21.4424 3.21609Z" fill="#191C1F"/>
</svg>
