<svg width="24" height="24" viewBox="0 0 24 24" fill="none" xmlns="http://www.w3.org/2000/svg">
<path d="M8.25 16.5012C8.25283 15.9981 8.12908 15.5024 7.89015 15.0597C7.65123 14.6169 7.30479 14.2414 6.88271 13.9676C6.46064 13.6938 5.97649 13.5305 5.4748 13.4928C4.97311 13.4551 4.46999 13.5442 4.01175 13.7519C3.5535 13.9595 3.15484 14.2791 2.85245 14.6812C2.55005 15.0833 2.35363 15.5549 2.28125 16.0528C2.20888 16.5507 2.26287 17.0588 2.43828 17.5303C2.61368 18.0018 2.90485 18.4217 3.285 18.7512L3.1275 18.8787C2.56916 19.4446 2.25424 20.2063 2.25 21.0012C2.25 21.2001 2.32902 21.3909 2.46967 21.5316C2.61032 21.6722 2.80109 21.7512 3 21.7512C3.19891 21.7512 3.38968 21.6722 3.53033 21.5316C3.67098 21.3909 3.75 21.2001 3.75 21.0012C3.75 20.6034 3.90804 20.2219 4.18934 19.9406C4.47064 19.6593 4.85218 19.5012 5.25 19.5012C5.64783 19.5012 6.02936 19.6593 6.31066 19.9406C6.59196 20.2219 6.75 20.6034 6.75 21.0012C6.75 21.2001 6.82902 21.3909 6.96967 21.5316C7.11032 21.6722 7.30109 21.7512 7.5 21.7512C7.69891 21.7512 7.88968 21.6722 8.03033 21.5316C8.17098 21.3909 8.25 21.2001 8.25 21.0012C8.24759 20.5741 8.15401 20.1525 7.97552 19.7644C7.79703 19.3764 7.53774 19.031 7.215 18.7512C7.53774 18.4715 7.79703 18.126 7.97552 17.738C8.15401 17.35 8.24759 16.9283 8.25 16.5012ZM5.25 15.0012C5.54667 15.0012 5.83668 15.0892 6.08336 15.254C6.33003 15.4188 6.52229 15.6531 6.63582 15.9272C6.74935 16.2013 6.77906 16.5029 6.72118 16.7939C6.6633 17.0848 6.52044 17.3521 6.31066 17.5619C6.10088 17.7717 5.83361 17.9145 5.54264 17.9724C5.25166 18.0303 4.95006 18.0006 4.67597 17.887C4.40189 17.7735 4.16762 17.5813 4.0028 17.3346C3.83797 17.0879 3.75 16.7979 3.75 16.5012C3.75 16.1034 3.90804 15.7219 4.18934 15.4406C4.47064 15.1593 4.85218 15.0012 5.25 15.0012Z" fill="#191C1F"/>
<path d="M15 16.5012C15.0028 15.9981 14.8791 15.5024 14.6402 15.0597C14.4012 14.6169 14.0548 14.2414 13.6327 13.9676C13.2106 13.6938 12.7265 13.5305 12.2248 13.4928C11.7231 13.4551 11.22 13.5442 10.7617 13.7519C10.3035 13.9595 9.90484 14.2791 9.60245 14.6812C9.30005 15.0833 9.10363 15.5549 9.03125 16.0528C8.95888 16.5507 9.01287 17.0588 9.18828 17.5303C9.36368 18.0018 9.65485 18.4217 10.035 18.7512C9.71226 19.031 9.45297 19.3764 9.27448 19.7644C9.09599 20.1525 9.00241 20.5741 9 21.0012C9 21.2001 9.07902 21.3909 9.21967 21.5316C9.36032 21.6722 9.55109 21.7512 9.75 21.7512C9.94891 21.7512 10.1397 21.6722 10.2803 21.5316C10.421 21.3909 10.5 21.2001 10.5 21.0012C10.5 20.6034 10.658 20.2219 10.9393 19.9406C11.2206 19.6593 11.6022 19.5012 12 19.5012C12.3978 19.5012 12.7794 19.6593 13.0607 19.9406C13.342 20.2219 13.5 20.6034 13.5 21.0012C13.5 21.2001 13.579 21.3909 13.7197 21.5316C13.8603 21.6722 14.0511 21.7512 14.25 21.7512C14.4489 21.7512 14.6397 21.6722 14.7803 21.5316C14.921 21.3909 15 21.2001 15 21.0012C14.9976 20.5741 14.904 20.1525 14.7255 19.7644C14.547 19.3764 14.2877 19.031 13.965 18.7512C14.2877 18.4715 14.547 18.126 14.7255 17.738C14.904 17.35 14.9976 16.9283 15 16.5012ZM10.5 16.5012C10.5 16.2046 10.588 15.9145 10.7528 15.6679C10.9176 15.4212 11.1519 15.2289 11.426 15.1154C11.7001 15.0019 12.0017 14.9722 12.2926 15.03C12.5836 15.0879 12.8509 15.2308 13.0607 15.4406C13.2704 15.6503 13.4133 15.9176 13.4712 16.2086C13.5291 16.4996 13.4994 16.8012 13.3858 17.0752C13.2723 17.3493 13.08 17.5836 12.8334 17.7484C12.5867 17.9132 12.2967 18.0012 12 18.0012C11.6022 18.0012 11.2206 17.8432 10.9393 17.5619C10.658 17.2806 10.5 16.899 10.5 16.5012Z" fill="#191C1F"/>
<path d="M20.715 18.7513C21.1771 18.3507 21.5058 17.8185 21.6569 17.2259C21.8081 16.6333 21.7745 16.0087 21.5608 15.4357C21.347 14.8628 20.9632 14.3688 20.4609 14.02C19.9585 13.6713 19.3616 13.4844 18.75 13.4844C18.1384 13.4844 17.5415 13.6713 17.0391 14.02C16.5368 14.3688 16.153 14.8628 15.9392 15.4357C15.7255 16.0087 15.6919 16.6333 15.8431 17.2259C15.9942 17.8185 16.3229 18.3507 16.785 18.7513L16.6275 18.8788C16.0692 19.4446 15.7542 20.2063 15.75 21.0013C15.75 21.2002 15.829 21.3909 15.9697 21.5316C16.1103 21.6722 16.3011 21.7513 16.5 21.7513C16.6989 21.7513 16.8897 21.6722 17.0303 21.5316C17.171 21.3909 17.25 21.2002 17.25 21.0013C17.25 20.6034 17.408 20.2219 17.6893 19.9406C17.9706 19.6593 18.3522 19.5013 18.75 19.5013C19.1478 19.5013 19.5294 19.6593 19.8107 19.9406C20.092 20.2219 20.25 20.6034 20.25 21.0013C20.25 21.2002 20.329 21.3909 20.4697 21.5316C20.6103 21.6722 20.8011 21.7513 21 21.7513C21.1989 21.7513 21.3897 21.6722 21.5303 21.5316C21.671 21.3909 21.75 21.2002 21.75 21.0013C21.7476 20.5742 21.654 20.1525 21.4755 19.7645C21.297 19.3765 21.0377 19.031 20.715 18.7513ZM18.75 15.0013C19.0467 15.0013 19.3367 15.0892 19.5834 15.2541C19.83 15.4189 20.0223 15.6531 20.1358 15.9272C20.2494 16.2013 20.2791 16.5029 20.2212 16.7939C20.1633 17.0849 20.0204 17.3521 19.8107 17.5619C19.6009 17.7717 19.3336 17.9146 19.0426 17.9724C18.7517 18.0303 18.4501 18.0006 18.176 17.8871C17.9019 17.7736 17.6676 17.5813 17.5028 17.3346C17.338 17.0879 17.25 16.7979 17.25 16.5013C17.25 16.1034 17.408 15.7219 17.6893 15.4406C17.9706 15.1593 18.3522 15.0013 18.75 15.0013Z" fill="#191C1F"/>
<path d="M4.5 12C4.69891 12 4.88968 11.921 5.03033 11.7803C5.17098 11.6397 5.25 11.4489 5.25 11.25V3.75H18.75V11.25C18.75 11.4489 18.829 11.6397 18.9697 11.7803C19.1103 11.921 19.3011 12 19.5 12C19.6989 12 19.8897 11.921 20.0303 11.7803C20.171 11.6397 20.25 11.4489 20.25 11.25V3C20.25 2.80109 20.171 2.61032 20.0303 2.46967C19.8897 2.32902 19.6989 2.25 19.5 2.25H4.5C4.30109 2.25 4.11032 2.32902 3.96967 2.46967C3.82902 2.61032 3.75 2.80109 3.75 3V11.25C3.75 11.4489 3.82902 11.6397 3.96967 11.7803C4.11032 11.921 4.30109 12 4.5 12Z" fill="#191C1F"/>
<path d="M15.9675 5.46666L13.35 8.08416L10.8375 6.83166C10.6967 6.75958 10.5368 6.73383 10.3806 6.75807C10.2243 6.78232 10.0797 6.85532 9.96745 6.96666L6.96745 9.96666C6.89716 10.0364 6.84136 10.1193 6.80329 10.2107C6.76521 10.3021 6.74561 10.4001 6.74561 10.4992C6.74561 10.5982 6.76521 10.6962 6.80329 10.7876C6.84136 10.879 6.89716 10.9619 6.96745 11.0317C7.03718 11.102 7.12013 11.1577 7.21152 11.1958C7.30292 11.2339 7.40095 11.2535 7.49995 11.2535C7.59896 11.2535 7.69699 11.2339 7.78839 11.1958C7.87978 11.1577 7.96273 11.102 8.03245 11.0317L10.65 8.41416L13.1625 9.66666C13.3032 9.73874 13.4631 9.76449 13.6193 9.74025C13.7756 9.716 13.9202 9.64299 14.0325 9.53166L17.0325 6.53166C17.1737 6.39043 17.253 6.19889 17.253 5.99916C17.253 5.79944 17.1737 5.60789 17.0325 5.46666C16.8912 5.32543 16.6997 5.24609 16.5 5.24609C16.3002 5.24609 16.1087 5.32543 15.9675 5.46666Z" fill="#191C1F"/>
</svg>
