<svg width="24" height="24" viewBox="0 0 24 24" fill="none" xmlns="http://www.w3.org/2000/svg">
<path d="M19.5 5.25H15.75V3C15.75 2.80109 15.671 2.61032 15.5303 2.46967C15.3897 2.32902 15.1989 2.25 15 2.25H9C8.80109 2.25 8.61032 2.32902 8.46967 2.46967C8.32902 2.61032 8.25 2.80109 8.25 3V5.25H4.5C4.30109 5.25 4.11032 5.32902 3.96967 5.46967C3.82902 5.61032 3.75 5.80109 3.75 6C3.75 6.19891 3.82902 6.38968 3.96967 6.53033C4.11032 6.67098 4.30109 6.75 4.5 6.75H19.5C19.6989 6.75 19.8897 6.67098 20.0303 6.53033C20.171 6.38968 20.25 6.19891 20.25 6C20.25 5.80109 20.171 5.61032 20.0303 5.46967C19.8897 5.32902 19.6989 5.25 19.5 5.25ZM9.75 3.75H14.25V5.25H9.75V3.75Z" fill="white"/>
<path d="M18 8.25C17.8011 8.25 17.6103 8.32902 17.4697 8.46967C17.329 8.61032 17.25 8.80109 17.25 9V19.5C17.2499 19.6989 17.1708 19.8896 17.0302 20.0302C16.8896 20.1708 16.6989 20.2499 16.5 20.25H7.5C7.30112 20.2499 7.11043 20.1708 6.9698 20.0302C6.82918 19.8896 6.75012 19.6989 6.75 19.5V9C6.75 8.80109 6.67098 8.61032 6.53033 8.46967C6.38968 8.32902 6.19891 8.25 6 8.25C5.80109 8.25 5.61032 8.32902 5.46967 8.46967C5.32902 8.61032 5.25 8.80109 5.25 9V19.5C5.25066 20.0965 5.48792 20.6685 5.90973 21.0903C6.33155 21.5121 6.90346 21.7493 7.5 21.75H16.5C17.0965 21.7493 17.6685 21.5121 18.0903 21.0903C18.5121 20.6685 18.7493 20.0965 18.75 19.5V9C18.75 8.80109 18.671 8.61032 18.5303 8.46967C18.3897 8.32902 18.1989 8.25 18 8.25Z" fill="white"/>
<path d="M11.2651 16.5V10.5C11.2651 10.3011 11.1861 10.1103 11.0455 9.96967C10.9048 9.82902 10.714 9.75 10.5151 9.75C10.3162 9.75 10.1255 9.82902 9.98481 9.96967C9.84415 10.1103 9.76514 10.3011 9.76514 10.5V16.5C9.76514 16.6989 9.84415 16.8897 9.98481 17.0303C10.1255 17.171 10.3162 17.25 10.5151 17.25C10.714 17.25 10.9048 17.171 11.0455 17.0303C11.1861 16.8897 11.2651 16.6989 11.2651 16.5Z" fill="white"/>
<path d="M14.2354 16.5V10.5C14.2354 10.3011 14.1563 10.1103 14.0157 9.96967C13.875 9.82902 13.6843 9.75 13.4854 9.75C13.2864 9.75 13.0957 9.82902 12.955 9.96967C12.8144 10.1103 12.7354 10.3011 12.7354 10.5V16.5C12.7354 16.6989 12.8144 16.8897 12.955 17.0303C13.0957 17.171 13.2864 17.25 13.4854 17.25C13.6843 17.25 13.875 17.171 14.0157 17.0303C14.1563 16.8897 14.2354 16.6989 14.2354 16.5Z" fill="white"/>
</svg>
