<svg width="24" height="24" viewBox="0 0 24 24" fill="none" xmlns="http://www.w3.org/2000/svg">
<path d="M5.625 9.1875C5.625 12.6938 8.49375 15.5625 12 15.5625C15.5063 15.5625 18.375 12.6938 18.375 9.1875C18.375 5.68125 15.5063 2.8125 12 2.8125C8.49375 2.8125 5.625 5.68125 5.625 9.1875ZM16.875 9.1875C16.875 11.8687 14.6812 14.0625 12 14.0625C9.31875 14.0625 7.125 11.8687 7.125 9.1875C7.125 6.50625 9.31875 4.3125 12 4.3125C14.6812 4.3125 16.875 6.50625 16.875 9.1875Z" fill="#C2C2C2"/>
<path d="M4.5751 22.3875C6.5626 20.4 9.1876 19.3125 12.0001 19.3125C14.8126 19.3125 17.4376 20.4 19.4251 22.3875L20.4938 21.3187C18.2251 19.0687 15.2063 17.8125 12.0001 17.8125C8.79385 17.8125 5.7751 19.0687 3.50635 21.3187L4.5751 22.3875Z" fill="#C2C2C2"/>
</svg>
