<svg width="20" height="20" viewBox="0 0 20 20" fill="none" xmlns="http://www.w3.org/2000/svg">
<g clip-path="url(#clip0_478_27835)">
<path d="M8.89569 1.4375C5.68773 1.4375 3.06236 2.5227 3.06236 3.85417C3.06236 3.9305 3.06636 4.00865 3.08323 4.08325H3.04156V5.72917C2.55822 6.08103 2.27073 6.48625 2.27073 6.91659C2.27073 6.99279 2.27473 7.07123 2.29159 7.14583H2.24993V8.95825C2.23513 9.00159 2.23559 9.04259 2.22906 9.08325C1.79665 9.41545 1.54156 9.78203 1.54156 10.1875C1.54156 10.2638 1.54556 10.342 1.56243 10.4166H1.52076V12.2292C1.48876 12.3224 1.47909 12.4034 1.47909 12.4999C1.47909 12.6458 1.53243 12.7783 1.60409 12.9166C1.17024 13.2547 0.916593 13.6329 0.916593 14.0416C0.916593 14.1178 0.920593 14.1962 0.937459 14.2708H0.895793V16.0833C0.863793 16.1763 0.854126 16.2576 0.854126 16.3542C0.854126 17.5696 3.46245 18.5625 6.68746 18.5625C8.58519 18.5625 10.2618 18.2167 11.3333 17.6875C12.0425 18.0444 12.8434 18.2499 13.6875 18.2499C16.2099 18.2499 18.3071 16.4636 18.7916 14.0833C18.793 14.0766 18.7903 14.0692 18.7916 14.0626C19.0084 13.5082 19.1458 12.9009 19.1458 12.2709C19.1458 9.56818 16.9526 7.39591 14.25 7.39591C14.1377 7.39591 14.0273 7.40925 13.9166 7.41659V7.24992C14.3128 6.98972 14.5825 6.70777 14.6666 6.39583H14.7083V4.08325H14.6666C14.6834 4.00852 14.6875 3.9305 14.6875 3.85417C14.6875 2.5227 12.1038 1.4375 8.89583 1.4375H8.89569ZM8.89569 1.87492C11.5444 1.87492 13.6665 2.75483 13.6665 3.85417C13.6665 4.9535 11.5444 5.83325 8.89569 5.83325C6.24699 5.83325 4.08319 4.9535 4.08319 3.85417C4.08319 2.75483 6.24699 1.87492 8.89569 1.87492V1.87492ZM3.29153 6.83325C4.04697 7.71979 6.23403 8.37492 8.83319 8.37492C9.89267 8.37492 10.8894 8.26972 11.7499 8.08325C11.625 8.15692 11.492 8.22823 11.3749 8.3125C11.3154 8.34183 11.2663 8.38525 11.2082 8.41659C10.3737 8.71479 9.30053 8.89583 8.10403 8.89583C5.45532 8.89583 3.29153 8.01592 3.29153 6.91659C3.29153 6.88792 3.28886 6.86192 3.29153 6.83325V6.83325ZM14.2499 8.0625C16.5922 8.0625 18.479 9.9285 18.479 12.2708C18.479 14.6132 16.5922 16.5208 14.2499 16.5208C11.9075 16.5208 9.99986 14.6132 9.99986 12.2708C9.99986 9.9285 11.9075 8.0625 14.2499 8.0625ZM2.58319 10.0208C3.41932 10.8515 5.54872 11.4375 8.04153 11.4375C8.26261 11.4375 8.47471 11.4288 8.68736 11.4168C8.61588 11.6378 8.58333 11.8719 8.54153 12.1043C8.16879 12.145 7.78323 12.167 7.37486 12.167C4.72615 12.167 2.56236 11.2872 2.56236 10.1878C2.56236 10.1305 2.57149 10.0772 2.58323 10.0212L2.58319 10.0208ZM2.12486 13.4999C3.09127 14.2129 5.04679 14.7083 7.31236 14.7083C7.7842 14.7083 8.24879 14.6863 8.68736 14.6456C8.81213 15.0256 9.00375 15.3716 9.20819 15.7081C8.49105 15.8903 7.66081 16.0206 6.74986 16.0206C4.10115 16.0206 1.93736 15.1408 1.93736 14.0414C1.93736 13.8544 2.00584 13.669 2.12486 13.4998V13.4999Z" fill="#FF7A00"/>
</g>
<defs>
<clipPath id="clip0_478_27835">
<rect width="20" height="20" fill="white"/>
</clipPath>
</defs>
</svg>
