<svg width="50" height="50" viewBox="0 0 50 50" fill="none" xmlns="http://www.w3.org/2000/svg">
<circle cx="25.5" cy="21.5" r="12.5" fill="white"/>
<path d="M25.0003 0C20.1397 0.00549202 15.4797 1.9388 12.0428 5.37577C8.60579 8.81275 6.67248 13.4727 6.66699 18.3333C6.66699 35.6022 23.2531 49.0706 23.9595 49.6354C24.2551 49.8714 24.6221 50 25.0003 50C25.3786 50 25.7456 49.8714 26.0411 49.6354C26.7476 49.0706 43.3337 35.6022 43.3337 18.3333C43.3282 13.4727 41.3949 8.81275 37.9579 5.37577C34.5209 1.9388 29.8609 0.00549202 25.0003 0V0ZM34.1735 16.8636L25.7214 30.3158C25.5882 30.5277 25.409 30.7069 25.1971 30.8402C24.9852 30.9734 24.7461 31.0573 24.4974 31.0856C24.4352 31.0921 24.3727 31.0953 24.3102 31.0954C23.8682 31.0952 23.4444 30.9196 23.1319 30.607L16.0599 23.5352C15.7474 23.2226 15.5718 22.7987 15.5718 22.3568C15.5718 21.9148 15.7473 21.4909 16.0599 21.1784C16.3724 20.8658 16.7963 20.6902 17.2383 20.6902C17.6802 20.6902 18.1041 20.8658 18.4167 21.1783L24.0107 26.7724L31.3512 15.0895C31.5872 14.7167 31.9613 14.4527 32.3916 14.3552C32.8218 14.2578 33.2732 14.3349 33.6467 14.5697C34.0202 14.8045 34.2854 15.1778 34.3841 15.6078C34.4829 16.0377 34.4071 16.4893 34.1735 16.8636V16.8636Z" fill="#FF7A00"/>
</svg>
