<svg width="20" height="20" viewBox="0 0 20 20" fill="none" xmlns="http://www.w3.org/2000/svg">
<g clip-path="url(#clip0_478_27830)">
<path d="M17.7167 10.6814H14.5359L14.5359 9.09108H17.7167V10.6814ZM17.7167 11.5902H14.5359L14.5359 13.1806H17.7167V11.5902ZM17.7167 4.09279H14.5359L14.5359 5.68315H17.7167V4.09279ZM17.7167 6.59193H14.5359L14.5359 8.1823H17.7167V6.59193ZM17.7167 14.0894H14.5359L14.5359 15.6797H17.7167V14.0894ZM19.9137 17.2247C19.8228 17.6972 19.2548 17.7086 18.8754 17.7245H11.8096V19.7692H10.3987L0 17.9517V2.0503L10.4601 0.230469H11.8096V2.04123L18.6323 2.04121C19.0162 2.05712 19.4388 2.02985 19.7728 2.25932C20.0068 2.59557 19.9841 3.0227 20 3.40893L19.9909 15.2367C19.9795 15.8978 20.0522 16.5726 19.9137 17.2247ZM8.33124 13.66C7.70419 12.3877 7.06577 11.1245 6.44098 9.85218C7.05895 8.61397 7.66783 7.37121 8.27445 6.12845C7.75871 6.15344 7.24298 6.18525 6.72952 6.2216C6.34556 7.15538 5.89798 8.06416 5.59809 9.02974C5.31864 8.11868 4.94831 7.24171 4.60979 6.35338C4.10996 6.38064 3.61013 6.41018 3.1103 6.43971C3.63739 7.60295 4.19857 8.75029 4.70975 9.92034C4.10769 11.0563 3.54424 12.2082 2.96035 13.351C3.45791 13.3714 3.95547 13.3919 4.45302 13.3987C4.80745 12.4945 5.24821 11.6243 5.55719 10.7019C5.83437 11.6925 6.30466 12.6081 6.6909 13.5555C7.23844 13.5941 7.7837 13.6282 8.33124 13.66ZM18.9164 3.12024H11.8096L11.8096 4.09279H13.6272V5.68315H11.8096V6.59193H13.6272V8.1823H11.8096V9.09108H13.6272V10.6814H11.8096V11.5902H13.6272V13.1806H11.8096V14.0894H13.6272V15.6797H11.8096V16.7304H18.9164V3.12024Z" fill="#4BB14B"/>
</g>
<defs>
<clipPath id="clip0_478_27830">
<rect width="20" height="20" fill="white"/>
</clipPath>
</defs>
</svg>
