<svg width="40" height="40" viewBox="0 0 40 40" fill="none" xmlns="http://www.w3.org/2000/svg">
<path d="M20 40C31.0457 40 40 31.0457 40 20C40 8.95431 31.0457 0 20 0C8.95431 0 0 8.95431 0 20C0 31.0457 8.95431 40 20 40Z" fill="#EDEDED"/>
<path d="M20.0001 35.7147C28.6788 35.7147 35.7143 28.6792 35.7143 20.0004C35.7143 11.3217 28.6788 4.28613 20.0001 4.28613C11.3213 4.28613 4.28577 11.3217 4.28577 20.0004C4.28577 28.6792 11.3213 35.7147 20.0001 35.7147Z" fill="#BCBCBC"/>
<path d="M20.7453 10.5586L23.354 15.776C23.4783 16.0244 23.7267 16.2108 23.9752 16.2729L29.7516 17.1425C30.4348 17.2667 30.7453 18.0741 30.2484 18.571L26.087 22.6704C25.9006 22.8567 25.7764 23.1673 25.8385 23.4158L26.8323 29.1922C26.9565 29.8754 26.2112 30.4344 25.5901 30.0617L20.4348 27.3288C20.1863 27.2046 19.8758 27.2046 19.6273 27.3288L14.4099 30.0617C13.7888 30.3723 13.0435 29.8754 13.1677 29.1922L14.1615 23.4158C14.2236 23.1673 14.0994 22.8567 13.913 22.6704L9.75156 18.571C9.25466 18.0741 9.50311 17.2046 10.2484 17.1425L16.0248 16.2729C16.2733 16.2108 16.5217 16.0866 16.646 15.776L19.2547 10.5586C19.5652 9.93749 20.4348 9.93749 20.7453 10.5586Z" fill="white"/>
</svg>
